<svg width="166" height="46" viewBox="0 0 166 46" fill="none" xmlns="http://www.w3.org/2000/svg">
<path fill-rule="evenodd" clip-rule="evenodd" d="M104.261 0.178641C104.261 0.342365 104.2 0.357282 103.535 0.357282C102.871 0.357282 102.81 0.372198 102.81 0.535922C102.81 0.688124 102.75 0.714563 102.402 0.714563C102.055 0.714563 101.994 0.741002 101.994 0.893204C101.994 1.03871 101.934 1.07184 101.668 1.07184C101.419 1.07184 101.331 1.11365 101.295 1.25049C101.269 1.34936 101.172 1.42913 101.077 1.42913C100.967 1.42913 100.906 1.49237 100.906 1.60777C100.906 1.72683 100.846 1.78641 100.725 1.78641C100.604 1.78641 100.544 1.84598 100.544 1.96505C100.544 2.08411 100.483 2.14369 100.362 2.14369C100.229 2.14369 100.181 2.20327 100.181 2.36699C100.181 2.53071 100.133 2.59029 99.9996 2.59029C99.8788 2.59029 99.8183 2.64987 99.8183 2.76893C99.8183 2.888 99.7578 2.94757 99.637 2.94757C99.4758 2.94757 99.4556 3.00715 99.4556 3.4835C99.4556 3.95984 99.4355 4.01942 99.2743 4.01942C99.1155 4.01942 99.093 4.07899 99.093 4.49951C99.093 5.13244 99.0057 5.53786 98.8693 5.53786C98.6751 5.53786 98.6397 8.25008 98.64 23.0813C98.6403 37.8033 98.6723 40.1942 98.8692 40.1942C99.0024 40.1942 99.093 40.5964 99.093 41.1879C99.093 41.4978 99.1289 41.6233 99.2177 41.6233C99.3472 41.6233 99.4556 41.9948 99.4556 42.4384C99.4556 42.6356 99.4977 42.6951 99.637 42.6951C99.77 42.6951 99.8183 42.7547 99.8183 42.9184C99.8183 43.0788 99.8671 43.1417 99.9916 43.1417C100.123 43.1417 100.18 43.2279 100.226 43.499C100.273 43.7702 100.329 43.8563 100.461 43.8563C100.574 43.8563 100.634 43.9186 100.634 44.035C100.634 44.1796 100.695 44.2136 100.952 44.2136C101.208 44.2136 101.269 44.2476 101.269 44.3922C101.269 44.5233 101.329 44.5709 101.496 44.5709C101.658 44.5709 101.722 44.619 101.722 44.7417C101.722 44.8713 101.81 44.927 102.085 44.9728C102.292 45.0073 102.447 45.0833 102.447 45.15C102.447 45.2312 102.668 45.2862 103.173 45.3301C103.659 45.3725 103.898 45.4302 103.898 45.5051C103.898 45.6475 104.754 45.7305 106.233 45.7314C107.159 45.7319 107.343 45.7543 107.343 45.866C107.343 45.9848 110.164 46 132.184 46C154.205 46 157.026 45.9848 157.026 45.866C157.026 45.7542 157.211 45.732 158.146 45.732C159.586 45.732 160.38 45.6515 160.38 45.5053C160.38 45.4301 160.619 45.3725 161.105 45.3301C161.618 45.2854 161.831 45.2318 161.831 45.1476C161.831 45.0748 161.99 45.005 162.239 44.9682C162.556 44.9212 162.647 44.8706 162.647 44.7393C162.647 44.6023 162.714 44.5709 163.009 44.5709C163.312 44.5709 163.372 44.5411 163.372 44.3922C163.372 44.2732 163.432 44.2136 163.553 44.2136C163.674 44.2136 163.735 44.154 163.735 44.035C163.735 43.9159 163.795 43.8563 163.916 43.8563C164.04 43.8563 164.097 43.7967 164.097 43.6693C164.097 43.5605 164.17 43.4637 164.27 43.4378C164.38 43.4094 164.464 43.2828 164.501 43.0889C164.533 42.9215 164.613 42.7845 164.68 42.7845C164.755 42.7845 164.826 42.6291 164.863 42.3825C164.9 42.1407 164.972 41.9806 165.043 41.9806C165.185 41.9806 165.276 41.5903 165.276 40.9869C165.276 40.677 165.312 40.5515 165.401 40.5515C165.588 40.5515 165.639 40.1344 165.639 38.5752C165.639 37.4405 165.663 37.1573 165.762 37.1573C165.846 37.1573 165.903 36.9829 165.943 36.6082C166.018 35.9005 166.019 9.13408 165.944 8.76456C165.913 8.61102 165.832 8.48544 165.763 8.48544C165.663 8.48544 165.638 8.21899 165.638 7.1233C165.636 5.57341 165.58 5.09126 165.4 5.09126C165.315 5.09126 165.276 4.97291 165.275 4.71165C165.273 4.12115 165.173 3.66214 165.045 3.66214C164.98 3.66214 164.902 3.5044 164.868 3.30485C164.821 3.03368 164.765 2.94757 164.633 2.94757C164.491 2.94757 164.46 2.88255 164.46 2.59029C164.46 2.29259 164.43 2.23301 164.279 2.23301C164.158 2.23301 164.097 2.17343 164.097 2.05437C164.097 1.9353 164.037 1.87573 163.916 1.87573C163.798 1.87573 163.735 1.81615 163.735 1.70495C163.735 1.57525 163.647 1.51961 163.372 1.47379C163.097 1.42797 163.009 1.37232 163.009 1.24263C163.009 1.13491 162.946 1.07184 162.839 1.07184C162.744 1.07184 162.647 0.992082 162.62 0.893204C162.58 0.741449 162.497 0.714563 162.066 0.714563C161.619 0.714563 161.559 0.693305 161.559 0.535922C161.559 0.375592 161.498 0.357282 160.969 0.357282C160.441 0.357282 160.38 0.338971 160.38 0.178641C160.38 0.000357277 160.32 0 132.32 0C104.321 0 104.261 0.000357277 104.261 0.178641ZM159.223 22.6204C159.236 31.8192 159.233 39.3657 159.217 39.3903C159.17 39.4593 155.217 39.5002 154.782 39.4361L154.396 39.3793V37.7324C154.396 36.145 154.39 36.0854 154.215 36.0854C154.094 36.0854 154.034 36.145 154.034 36.2641C154.034 36.3831 153.973 36.4427 153.853 36.4427C153.732 36.4427 153.671 36.5023 153.671 36.6214C153.671 36.7404 153.611 36.8 153.49 36.8C153.372 36.8 153.309 36.8596 153.309 36.9708C153.309 37.1005 153.221 37.1561 152.946 37.2019C152.671 37.2478 152.583 37.3034 152.583 37.4331C152.583 37.5557 152.519 37.6039 152.357 37.6039C152.19 37.6039 152.13 37.6515 152.13 37.7825C152.13 37.9016 152.069 37.9612 151.949 37.9612C151.828 37.9612 151.767 38.0207 151.767 38.1398C151.767 38.2887 151.707 38.3184 151.405 38.3184C151.102 38.3184 151.042 38.3482 151.042 38.4971C151.042 38.646 150.982 38.6757 150.679 38.6757C150.377 38.6757 150.317 38.7055 150.317 38.8544C150.317 39.0039 150.256 39.033 149.946 39.033C149.651 39.033 149.565 39.0697 149.527 39.2117C149.488 39.3588 149.403 39.3903 149.048 39.3903C148.456 39.3903 148.05 39.4804 148.05 39.6121C148.05 39.7569 146.427 39.8358 144.809 39.7698C143.952 39.7348 143.608 39.6896 143.608 39.6119C143.608 39.4877 143.129 39.3927 142.497 39.3913C142.193 39.3906 142.067 39.3543 142.067 39.2675C142.067 39.1398 141.689 39.033 141.239 39.033C141.039 39.033 140.979 38.9916 140.979 38.8544C140.979 38.7022 140.918 38.6757 140.571 38.6757C140.223 38.6757 140.163 38.6493 140.163 38.4971C140.163 38.3482 140.102 38.3184 139.8 38.3184C139.498 38.3184 139.437 38.2887 139.437 38.1398C139.437 38.0207 139.377 37.9612 139.256 37.9612C139.135 37.9612 139.075 37.9016 139.075 37.7825C139.075 37.6336 139.014 37.6039 138.712 37.6039C138.41 37.6039 138.349 37.5741 138.349 37.4252C138.349 37.3035 138.289 37.2466 138.16 37.2466C138.046 37.2466 137.951 37.1749 137.922 37.068C137.896 36.9697 137.815 36.8893 137.741 36.8893C137.667 36.8893 137.586 36.8089 137.56 36.7107C137.534 36.6124 137.452 36.532 137.378 36.532C137.305 36.532 137.223 36.4517 137.197 36.3534C137.171 36.2551 137.089 36.1748 137.016 36.1748C136.942 36.1748 136.861 36.0981 136.837 36.0043C136.812 35.9106 136.714 35.8139 136.618 35.7894C136.518 35.7635 136.446 35.6667 136.446 35.5579C136.446 35.4305 136.388 35.3709 136.264 35.3709C136.143 35.3709 136.083 35.3113 136.083 35.1922C136.083 35.0732 136.022 35.0136 135.902 35.0136C135.781 35.0136 135.72 34.954 135.72 34.835C135.72 34.7199 135.66 34.6563 135.551 34.6563C135.423 34.6563 135.366 34.5683 135.323 34.299C135.285 34.0679 135.217 33.9417 135.13 33.9417C135.053 33.9417 134.995 33.8607 134.995 33.7547C134.995 33.6452 134.922 33.5491 134.82 33.5227C134.7 33.4918 134.626 33.3679 134.585 33.1291C134.54 32.866 134.483 32.7806 134.352 32.7806C134.211 32.7806 134.179 32.7157 134.179 32.4338C134.179 32.162 134.14 32.0767 133.998 32.0401C133.854 32.0031 133.816 31.9183 133.816 31.6278C133.816 31.376 133.777 31.2621 133.691 31.2621C133.528 31.2621 133.457 30.9837 133.455 30.3466C133.454 29.8929 133.433 29.833 133.272 29.833C133.094 29.833 133.091 29.7734 133.091 26.7068C133.091 23.6402 133.094 23.5806 133.272 23.5806C133.434 23.5806 133.454 23.521 133.454 23.0363C133.454 22.5672 133.479 22.4856 133.635 22.4453C133.767 22.4112 133.817 22.3229 133.818 22.1187C133.819 21.7137 133.911 21.4369 134.043 21.4369C134.11 21.4369 134.184 21.2687 134.22 21.035C134.257 20.7867 134.328 20.633 134.403 20.633C134.475 20.633 134.551 20.4864 134.587 20.2757C134.633 20.0046 134.69 19.9184 134.822 19.9184C134.934 19.9184 134.995 19.8562 134.995 19.7398C134.995 19.6416 135.053 19.5612 135.123 19.5612C135.202 19.5612 135.275 19.4235 135.312 19.2039C135.359 18.9327 135.415 18.8466 135.547 18.8466C135.671 18.8466 135.72 18.7836 135.72 18.6233C135.72 18.4596 135.769 18.4 135.902 18.4C136.022 18.4 136.083 18.3404 136.083 18.2214C136.083 18.1023 136.143 18.0427 136.264 18.0427C136.385 18.0427 136.446 17.9831 136.446 17.8641C136.446 17.745 136.506 17.6854 136.627 17.6854C136.748 17.6854 136.808 17.6259 136.808 17.5068C136.808 17.3877 136.869 17.3282 136.989 17.3282C137.11 17.3282 137.171 17.2686 137.171 17.1495C137.171 17.0305 137.231 16.9709 137.352 16.9709C137.473 16.9709 137.533 16.9113 137.533 16.7922C137.533 16.6705 137.594 16.6136 137.723 16.6136C137.834 16.6136 137.932 16.5424 137.958 16.4432C137.983 16.3495 138.081 16.2527 138.176 16.2283C138.272 16.2038 138.349 16.1232 138.349 16.0493C138.349 15.9619 138.477 15.8936 138.712 15.8544C138.987 15.8085 139.075 15.7529 139.075 15.6232C139.075 15.4835 139.141 15.4524 139.437 15.4524C139.74 15.4524 139.8 15.4227 139.8 15.2738C139.8 15.1249 139.86 15.0951 140.163 15.0951C140.465 15.0951 140.525 15.0654 140.525 14.9165C140.525 14.7643 140.586 14.7379 140.933 14.7379C141.281 14.7379 141.341 14.7114 141.341 14.5592C141.341 14.422 141.402 14.3806 141.602 14.3806C142.052 14.3806 142.429 14.2738 142.429 14.1461C142.429 14.0541 142.583 14.023 143.041 14.0223C143.872 14.021 144.333 13.9375 144.333 13.7883C144.333 13.6898 144.623 13.666 145.829 13.666C147.028 13.666 147.325 13.69 147.325 13.7873C147.325 13.9203 148.043 14.0233 148.97 14.0233C149.44 14.0233 149.501 14.0437 149.501 14.2019C149.501 14.3541 149.561 14.3806 149.909 14.3806C150.256 14.3806 150.317 14.407 150.317 14.5592C150.317 14.7081 150.377 14.7379 150.679 14.7379C150.982 14.7379 151.042 14.7676 151.042 14.9165C151.042 15.0654 151.102 15.0951 151.405 15.0951C151.707 15.0951 151.767 15.1249 151.767 15.2738C151.767 15.4048 151.828 15.4524 151.994 15.4524C152.156 15.4524 152.221 15.5008 152.221 15.6212C152.221 15.7422 152.307 15.8059 152.528 15.8466C152.728 15.8836 152.852 15.965 152.882 16.0799C152.91 16.1847 153.006 16.2563 153.119 16.2563C153.248 16.2563 153.309 16.3132 153.309 16.435C153.309 16.554 153.369 16.6136 153.49 16.6136C153.611 16.6136 153.671 16.6732 153.671 16.7922C153.671 16.9113 153.732 16.9709 153.853 16.9709C153.973 16.9709 154.034 17.0305 154.034 17.1495C154.034 17.2686 154.094 17.3282 154.215 17.3282C154.395 17.3282 154.396 17.2686 154.396 11.6117V5.89515H156.798H159.2L159.223 22.6204ZM13.4179 7.53828C13.4179 7.6293 13.2222 7.68004 12.6926 7.72621C12.2001 7.76918 11.9673 7.8259 11.9673 7.90298C11.9673 8.03776 11.5665 8.12816 10.9693 8.12816C10.6141 8.12816 10.5295 8.15969 10.4904 8.3068C10.4528 8.44873 10.3668 8.48544 10.0719 8.48544C9.76125 8.48544 9.70078 8.51456 9.70078 8.66408C9.70078 8.81628 9.64031 8.84272 9.2928 8.84272C8.9453 8.84272 8.88482 8.86916 8.88482 9.02136C8.88482 9.16686 8.82435 9.2 8.55899 9.2C8.30949 9.2 8.22209 9.2418 8.18582 9.37864C8.14983 9.51405 8.06216 9.55728 7.82318 9.55728C7.58419 9.55728 7.49643 9.60051 7.46053 9.73592C7.43424 9.8348 7.33687 9.91456 7.24231 9.91456C7.13469 9.91456 7.07159 9.97762 7.07159 10.0853C7.07159 10.215 6.9842 10.2707 6.70895 10.3165C6.4337 10.3623 6.3463 10.418 6.3463 10.5477C6.3463 10.6589 6.28311 10.7184 6.16498 10.7184C6.04413 10.7184 5.98366 10.778 5.98366 10.8971C5.98366 11.0162 5.92319 11.0757 5.80233 11.0757C5.68148 11.0757 5.62101 11.1353 5.62101 11.2544C5.62101 11.3854 5.56054 11.433 5.39436 11.433C5.22818 11.433 5.1677 11.4806 5.1677 11.6117C5.1677 11.7307 5.10723 11.7903 4.98638 11.7903C4.86553 11.7903 4.80506 11.8499 4.80506 11.9689C4.80506 12.088 4.74459 12.1476 4.62374 12.1476C4.50288 12.1476 4.44241 12.2071 4.44241 12.3262C4.44241 12.4453 4.38194 12.5049 4.26109 12.5049C4.14024 12.5049 4.07977 12.5644 4.07977 12.6835C4.07977 12.8026 4.0193 12.8621 3.89844 12.8621C3.76544 12.8621 3.71712 12.9217 3.71712 13.0854C3.71712 13.2492 3.6688 13.3087 3.5358 13.3087C3.41495 13.3087 3.35447 13.3683 3.35447 13.4874C3.35447 13.6064 3.294 13.666 3.17315 13.666C3.02202 13.666 2.99183 13.7256 2.99183 14.0233C2.99183 14.321 2.96164 14.3806 2.81051 14.3806C2.68965 14.3806 2.62918 14.4402 2.62918 14.5592C2.62918 14.6743 2.56871 14.7379 2.45946 14.7379C2.33154 14.7379 2.27542 14.8258 2.23172 15.0951C2.19609 15.3147 2.12474 15.4524 2.04677 15.4524C1.96935 15.4524 1.89591 15.5917 1.85856 15.8097C1.82239 16.0204 1.74705 16.167 1.67479 16.167C1.59918 16.167 1.52901 16.3207 1.4912 16.5689C1.45557 16.8027 1.38177 16.9709 1.31486 16.9709C1.17679 16.9709 1.09084 17.2513 1.08921 17.7078C1.08812 17.9828 1.05548 18.0427 0.906615 18.0427C0.743877 18.0427 0.725292 18.1023 0.725292 18.6233C0.725292 19.1443 0.706706 19.2039 0.543969 19.2039C0.370987 19.2039 0.362646 19.2635 0.362646 20.499C0.362646 21.7346 0.354305 21.7942 0.181323 21.7942C0.00861284 21.7942 0 21.8538 0 23.0447C0 24.2356 0.00861284 24.2951 0.181323 24.2951C0.354305 24.2951 0.362646 24.3547 0.362646 25.5903C0.362646 26.8259 0.370987 26.8854 0.543969 26.8854C0.705165 26.8854 0.725292 26.945 0.725292 27.4214C0.725292 27.8977 0.745419 27.9573 0.906615 27.9573C1.05213 27.9573 1.08794 28.0169 1.08794 28.2587C1.08794 28.7342 1.19075 29.1184 1.31795 29.1184C1.3834 29.1184 1.46155 29.2752 1.49591 29.4757C1.53136 29.6823 1.60779 29.833 1.67724 29.833C1.74668 29.833 1.82311 29.9837 1.85856 30.1903C1.89401 30.3969 1.97044 30.5476 2.03988 30.5476C2.10879 30.5476 2.18539 30.696 2.21967 30.8961C2.26064 31.1349 2.33453 31.2588 2.4543 31.2896C2.55674 31.3161 2.62918 31.4122 2.62918 31.5217C2.62918 31.6492 2.68693 31.7087 2.81051 31.7087C2.96164 31.7087 2.99183 31.7683 2.99183 32.066C2.99183 32.3637 3.02202 32.4233 3.17315 32.4233C3.294 32.4233 3.35447 32.4829 3.35447 32.6019C3.35447 32.721 3.41495 32.7806 3.5358 32.7806C3.65665 32.7806 3.71712 32.8402 3.71712 32.9592C3.71712 33.0783 3.77759 33.1379 3.89844 33.1379C4.02201 33.1379 4.07977 33.1974 4.07977 33.3249C4.07977 33.4337 4.15202 33.5305 4.25275 33.5564C4.34785 33.5809 4.44604 33.6776 4.47088 33.7713C4.49572 33.8651 4.57632 33.9417 4.65003 33.9417C4.72364 33.9417 4.80524 34.0221 4.83135 34.1204C4.85737 34.2186 4.93896 34.299 5.01267 34.299C5.08629 34.299 5.16788 34.3794 5.194 34.4777C5.22237 34.5846 5.31766 34.6563 5.43117 34.6563C5.56054 34.6563 5.62101 34.7132 5.62101 34.835C5.62101 34.954 5.68148 35.0136 5.80233 35.0136C5.92319 35.0136 5.98366 35.0732 5.98366 35.1922C5.98366 35.3113 6.04413 35.3709 6.16498 35.3709C6.28175 35.3709 6.3463 35.4305 6.3463 35.5381C6.3463 35.6641 6.4356 35.7194 6.70895 35.7625C6.94358 35.7994 7.07159 35.8665 7.07159 35.9525C7.07159 36.0259 7.15283 36.0854 7.25292 36.0854C7.37014 36.0854 7.43424 36.145 7.43424 36.2539C7.43424 36.3852 7.52445 36.4358 7.84222 36.4827C8.09417 36.52 8.25019 36.5891 8.25019 36.6636C8.25019 36.7348 8.39897 36.809 8.61284 36.8447C8.88809 36.8905 8.97549 36.9461 8.97549 37.0758C8.97549 37.2155 9.04149 37.2466 9.33813 37.2466C9.64031 37.2466 9.70078 37.2763 9.70078 37.4252C9.70078 37.5774 9.76125 37.6039 10.1088 37.6039C10.3957 37.6039 10.5167 37.6405 10.5167 37.7274C10.5167 37.8729 10.7913 37.9582 11.2647 37.9599C11.5438 37.961 11.6047 37.9931 11.6047 38.1398C11.6047 38.3066 11.6651 38.3184 12.5113 38.3184C13.3574 38.3184 13.4179 38.3303 13.4179 38.4971C13.4179 38.6716 13.4784 38.6757 16.0471 38.6757C18.6158 38.6757 18.6763 38.6716 18.6763 38.4971C18.6763 38.3334 18.7367 38.3184 19.4016 38.3184C20.0664 38.3184 20.1268 38.3035 20.1268 38.1398C20.1268 37.9931 20.1877 37.961 20.4668 37.9599C20.9403 37.9582 21.2148 37.8729 21.2148 37.7274C21.2148 37.6405 21.3358 37.6039 21.6228 37.6039C21.9703 37.6039 22.0307 37.5774 22.0307 37.4252C22.0307 37.2757 22.0912 37.2466 22.4019 37.2466C22.6922 37.2466 22.783 37.2091 22.8188 37.0743C22.85 36.9563 22.9759 36.8835 23.2182 36.8431C23.4325 36.8075 23.572 36.735 23.572 36.6592C23.572 36.5824 23.7118 36.5121 23.9346 36.477C24.208 36.434 24.2973 36.3787 24.2973 36.2526C24.2973 36.145 24.3618 36.0854 24.4786 36.0854C24.5994 36.0854 24.6599 36.0259 24.6599 35.9068C24.6599 35.7579 24.7204 35.7282 25.0226 35.7282C25.3247 35.7282 25.3852 35.6984 25.3852 35.5495C25.3852 35.4305 25.4457 35.3709 25.5665 35.3709C25.6874 35.3709 25.7479 35.3113 25.7479 35.1922C25.7479 35.0612 25.8083 35.0136 25.9745 35.0136C26.1407 35.0136 26.2012 34.966 26.2012 34.835C26.2012 34.7159 26.2616 34.6563 26.3825 34.6563C26.5033 34.6563 26.5638 34.5967 26.5638 34.4777C26.5638 34.3586 26.6243 34.299 26.7451 34.299C26.866 34.299 26.9265 34.2395 26.9265 34.1204C26.9265 34.0013 26.9869 33.9417 27.1078 33.9417C27.2286 33.9417 27.2891 33.8822 27.2891 33.7631C27.2891 33.644 27.3496 33.5845 27.4704 33.5845C27.6034 33.5845 27.6517 33.5249 27.6517 33.3612C27.6517 33.1974 27.7001 33.1379 27.8331 33.1379C27.9842 33.1379 28.0144 33.0783 28.0144 32.7806C28.0144 32.4829 27.9842 32.4233 27.8331 32.4233C27.7122 32.4233 27.6517 32.3637 27.6517 32.2447C27.6517 32.1229 27.5913 32.066 27.4619 32.066C27.3484 32.066 27.2531 31.9943 27.2247 31.8874C27.1986 31.7891 27.117 31.7087 27.0434 31.7087C26.9697 31.7087 26.8891 31.6321 26.8643 31.5385C26.8359 31.4315 26.708 31.3477 26.5201 31.313C26.3276 31.2774 26.2044 31.1949 26.1743 31.0813C26.1486 30.9843 26.0673 30.9049 25.9936 30.9049C25.9199 30.9049 25.8383 30.8245 25.8122 30.7262C25.7839 30.6193 25.6886 30.5476 25.5751 30.5476C25.442 30.5476 25.3852 30.4909 25.3852 30.3578C25.3852 30.1928 25.3481 30.1753 25.1019 30.2238C24.946 30.2545 24.7829 30.2796 24.7392 30.2796C24.6956 30.2796 24.6599 30.36 24.6599 30.4583C24.6599 30.5738 24.5994 30.6369 24.4887 30.6369C24.3651 30.6369 24.3011 30.723 24.2586 30.9461C24.208 31.2118 24.1555 31.2635 23.8859 31.3133C23.6594 31.3552 23.572 31.4183 23.572 31.54C23.572 31.6457 23.5082 31.7087 23.4013 31.7087C23.3067 31.7087 23.2093 31.7885 23.183 31.8874C23.1547 31.9943 23.0594 32.066 22.9459 32.066C22.8165 32.066 22.756 32.1229 22.756 32.2447C22.756 32.3893 22.6956 32.4233 22.4387 32.4233C22.1819 32.4233 22.1214 32.4573 22.1214 32.6019C22.1214 32.733 22.0609 32.7806 21.8947 32.7806C21.7286 32.7806 21.6681 32.8282 21.6681 32.9592C21.6681 33.1081 21.6076 33.1379 21.3054 33.1379C21.0033 33.1379 20.9428 33.1676 20.9428 33.3165C20.9428 33.4537 20.8823 33.4951 20.6821 33.4951C20.2384 33.4951 19.8549 33.6014 19.8549 33.7242C19.8549 33.7947 19.6923 33.8655 19.4469 33.9017C19.2113 33.9366 19.0389 34.0096 19.0389 34.0747C19.0389 34.2629 18.5709 34.299 16.1397 34.299C13.533 34.299 12.6926 34.2434 12.6926 34.0708C12.6926 34.0081 12.5304 33.9305 12.33 33.8971C12.1143 33.8612 11.9673 33.7874 11.9673 33.7151C11.9673 33.6328 11.7935 33.5739 11.4311 33.5336C11.0127 33.4869 10.8851 33.4369 10.8503 33.3058C10.8175 33.1821 10.7228 33.1379 10.4904 33.1379C10.2515 33.1379 10.1638 33.0946 10.1278 32.9592C10.0994 32.8523 10.0041 32.7806 9.89062 32.7806C9.76125 32.7806 9.70078 32.7237 9.70078 32.6019C9.70078 32.453 9.64031 32.4233 9.33813 32.4233C9.03596 32.4233 8.97549 32.3936 8.97549 32.2447C8.97549 32.1256 8.91501 32.066 8.79416 32.066C8.67331 32.066 8.61284 32.0064 8.61284 31.8874C8.61284 31.7683 8.55237 31.7087 8.43152 31.7087C8.31067 31.7087 8.25019 31.6492 8.25019 31.5301C8.25019 31.4084 8.18972 31.3515 8.06035 31.3515C7.94992 31.3515 7.85165 31.2803 7.82535 31.181C7.80051 31.0873 7.70233 30.9906 7.60722 30.9661C7.5065 30.9402 7.43424 30.8434 7.43424 30.7346C7.43424 30.6072 7.37649 30.5476 7.25292 30.5476C7.13207 30.5476 7.07159 30.488 7.07159 30.3689C7.07159 30.2499 7.01112 30.1903 6.89027 30.1903C6.76942 30.1903 6.70895 30.1307 6.70895 30.0117C6.70895 29.8926 6.64848 29.833 6.52763 29.833C6.37649 29.833 6.3463 29.7734 6.3463 29.4757C6.3463 29.1862 6.31412 29.1184 6.17659 29.1184C6.04866 29.1184 5.99254 29.0305 5.94884 28.7612C5.91412 28.5474 5.84132 28.4039 5.76752 28.4039C5.69372 28.4039 5.62092 28.2603 5.5862 28.0466C5.5512 27.8307 5.47885 27.6893 5.40361 27.6893C5.32536 27.6893 5.25619 27.5396 5.21775 27.2874C5.18094 27.0456 5.10914 26.8854 5.03751 26.8854C4.90814 26.8854 4.80506 26.5041 4.80506 26.0257C4.80506 25.831 4.76136 25.7243 4.68167 25.7243C4.50361 25.7243 4.44414 25.0645 4.44323 23.0801C4.44223 21.044 4.50769 20.2757 4.68194 20.2757C4.7571 20.2757 4.80506 20.1757 4.80506 20.0189C4.80506 19.5817 4.91285 19.2039 5.03751 19.2039C5.10914 19.2039 5.18094 19.0437 5.21775 18.8019C5.2542 18.5628 5.32663 18.4 5.39671 18.4C5.46335 18.4 5.54096 18.2451 5.57568 18.0427C5.62219 17.7715 5.67867 17.6854 5.81031 17.6854C5.95211 17.6854 5.98366 17.6204 5.98366 17.3282C5.98366 17.0305 6.01385 16.9709 6.16498 16.9709C6.31611 16.9709 6.3463 16.9113 6.3463 16.6136C6.3463 16.3159 6.37649 16.2563 6.52763 16.2563C6.64848 16.2563 6.70895 16.1967 6.70895 16.0777C6.70895 15.9586 6.76942 15.899 6.89027 15.899C7.02327 15.899 7.07159 15.8395 7.07159 15.6757C7.07159 15.512 7.11992 15.4524 7.25292 15.4524C7.37377 15.4524 7.43424 15.3929 7.43424 15.2738C7.43424 15.1547 7.49471 15.0951 7.61556 15.0951C7.73642 15.0951 7.79689 15.0356 7.79689 14.9165C7.79689 14.7855 7.85736 14.7379 8.02354 14.7379C8.18972 14.7379 8.25019 14.6903 8.25019 14.5592C8.25019 14.4402 8.31067 14.3806 8.43152 14.3806C8.55237 14.3806 8.61284 14.321 8.61284 14.2019C8.61284 14.0829 8.67331 14.0233 8.79416 14.0233C8.91229 14.0233 8.97549 13.9637 8.97549 13.8525C8.97549 13.7228 9.06288 13.6672 9.33813 13.6214C9.56107 13.5843 9.70078 13.5124 9.70078 13.4349C9.70078 13.3655 9.78618 13.3087 9.89062 13.3087C10.0044 13.3087 10.0994 13.2369 10.128 13.1295C10.1615 13.0031 10.2794 12.9339 10.5274 12.8947C10.721 12.8643 10.8794 12.7888 10.8794 12.7272C10.8794 12.5923 11.1654 12.5077 11.6273 12.5061C11.9065 12.505 11.9673 12.4729 11.9673 12.3262C11.9673 12.1674 12.0278 12.1476 12.5113 12.1476C12.9948 12.1476 13.0553 12.1277 13.0553 11.9689C13.0553 11.7985 13.1157 11.7903 14.3698 11.7903C15.624 11.7903 15.6844 11.7821 15.6844 11.6117C15.6844 11.4628 15.7449 11.433 16.0471 11.433C16.3493 11.433 16.4097 11.4628 16.4097 11.6117C16.4097 11.7807 16.4702 11.7903 17.543 11.7903C18.6158 11.7903 18.6763 11.7998 18.6763 11.9689C18.6763 12.1293 18.7367 12.1476 19.2656 12.1476C19.7944 12.1476 19.8549 12.1659 19.8549 12.3262C19.8549 12.4836 19.9153 12.5049 20.362 12.5049C20.7866 12.5049 20.8765 12.5329 20.9149 12.6772C20.9462 12.7951 21.072 12.8679 21.3143 12.9083C21.5304 12.9442 21.6681 13.0163 21.6681 13.0933C21.6681 13.1627 21.7497 13.2194 21.8494 13.2194C21.9675 13.2194 22.0307 13.279 22.0307 13.3902C22.0307 13.5199 22.1181 13.5755 22.3934 13.6214C22.6686 13.6672 22.756 13.7228 22.756 13.8525C22.756 13.9602 22.8191 14.0233 22.9267 14.0233C23.0213 14.0233 23.1187 14.1031 23.145 14.2019C23.1733 14.3089 23.2686 14.3806 23.3821 14.3806C23.5115 14.3806 23.572 14.4375 23.572 14.5592C23.572 14.6783 23.6325 14.7379 23.7533 14.7379C23.8742 14.7379 23.9346 14.7974 23.9346 14.9165C23.9346 15.0356 23.9951 15.0951 24.116 15.0951C24.2368 15.0951 24.2973 15.1547 24.2973 15.2738C24.2973 15.3929 24.3577 15.4524 24.4786 15.4524C24.5994 15.4524 24.6599 15.512 24.6599 15.6311C24.6599 15.7791 24.7204 15.8097 25.012 15.8097C25.2878 15.8097 25.3743 15.771 25.4115 15.6311C25.4399 15.5242 25.5352 15.4524 25.6487 15.4524C25.778 15.4524 25.8385 15.3955 25.8385 15.2738C25.8385 15.1547 25.899 15.0951 26.0198 15.0951C26.1407 15.0951 26.2012 15.0356 26.2012 14.9165C26.2012 14.7719 26.2616 14.7379 26.5185 14.7379C26.7753 14.7379 26.8358 14.7038 26.8358 14.5592C26.8358 14.4282 26.8963 14.3806 27.0624 14.3806C27.2286 14.3806 27.2891 14.333 27.2891 14.2019C27.2891 14.0829 27.3496 14.0233 27.4704 14.0233C27.5913 14.0233 27.6517 13.9637 27.6517 13.8447C27.6517 13.7256 27.7122 13.666 27.8331 13.666C27.9876 13.666 28.0144 13.6064 28.0144 13.2641C28.0144 12.9217 27.9876 12.8621 27.8331 12.8621C27.7122 12.8621 27.6517 12.8026 27.6517 12.6835C27.6517 12.5644 27.5913 12.5049 27.4704 12.5049C27.3496 12.5049 27.2891 12.4453 27.2891 12.3262C27.2891 12.2071 27.2286 12.1476 27.1078 12.1476C26.9869 12.1476 26.9265 12.088 26.9265 11.9689C26.9265 11.8499 26.866 11.7903 26.7451 11.7903C26.6243 11.7903 26.5638 11.7307 26.5638 11.6117C26.5638 11.4926 26.5033 11.433 26.3825 11.433C26.2616 11.433 26.2012 11.3734 26.2012 11.2544C26.2012 11.1326 26.1407 11.0757 26.0113 11.0757C25.8978 11.0757 25.8025 11.004 25.7742 10.8971C25.7479 10.7982 25.6505 10.7184 25.5559 10.7184C25.4483 10.7184 25.3852 10.6554 25.3852 10.5477C25.3852 10.418 25.2978 10.3623 25.0226 10.3165C24.7473 10.2707 24.6599 10.215 24.6599 10.0853C24.6599 9.97414 24.5967 9.91456 24.4786 9.91456C24.3789 9.91456 24.2973 9.85785 24.2973 9.78844C24.2973 9.71091 24.1576 9.63901 23.9346 9.60194C23.6594 9.55612 23.572 9.50047 23.572 9.37078C23.572 9.23108 23.506 9.2 23.2093 9.2C22.9072 9.2 22.8467 9.17026 22.8467 9.02136C22.8467 8.86916 22.7862 8.84272 22.4387 8.84272C22.0912 8.84272 22.0307 8.81628 22.0307 8.66408C22.0307 8.51518 21.9703 8.48544 21.6681 8.48544C21.3659 8.48544 21.3054 8.45569 21.3054 8.3068C21.3054 8.14772 21.245 8.12816 20.753 8.12816C20.2768 8.12816 20.194 8.1035 20.1531 7.94951C20.1163 7.81107 20.0295 7.77087 19.7669 7.77087C19.0168 7.77087 18.3136 7.65672 18.3136 7.53489C18.3136 7.43574 17.867 7.41359 15.8658 7.41359C13.8314 7.41359 13.4179 7.43467 13.4179 7.53828ZM80.6887 7.53489C80.6887 7.65735 79.9847 7.77087 79.2248 7.77087C78.936 7.77087 78.8755 7.80178 78.8755 7.94951C78.8755 8.10172 78.815 8.12816 78.4675 8.12816C78.1668 8.12816 78.0595 8.16308 78.0595 8.26106C78.0595 8.34708 77.9315 8.41416 77.6969 8.45114C77.4235 8.49419 77.3342 8.54948 77.3342 8.67551C77.3342 8.81101 77.2655 8.84272 76.9716 8.84272C76.6694 8.84272 76.6089 8.87246 76.6089 9.02136C76.6089 9.14042 76.5485 9.2 76.4276 9.2C76.3095 9.2 76.2463 9.25958 76.2463 9.37078C76.2463 9.50047 76.1589 9.55612 75.8837 9.60194C75.6084 9.64776 75.521 9.70341 75.521 9.8331C75.521 9.941 75.4579 10.0039 75.3498 10.0039C75.2269 10.0039 75.1623 10.0895 75.1209 10.3067C75.0834 10.5037 75.0007 10.6256 74.8841 10.6556C74.7778 10.683 74.7051 10.7776 74.7051 10.8887C74.7051 10.9954 74.6467 11.0757 74.5691 11.0757C74.4943 11.0757 74.4331 11.1398 74.4331 11.2181C74.4331 11.2963 74.3544 11.3807 74.2582 11.4055C74.1384 11.4363 74.0645 11.5603 74.0235 11.799C73.9903 11.9931 73.9121 12.1476 73.8471 12.1476C73.7199 12.1476 73.6171 12.5318 73.6171 13.0073C73.6171 13.2492 73.5813 13.3087 73.4358 13.3087C73.2666 13.3087 73.2545 13.3683 73.2545 14.1992V15.0896L72.1439 15.1147L71.0333 15.1398L71.0089 17.1272L70.9845 19.1146H71.8362C72.3046 19.1146 72.8153 19.1397 72.9712 19.1704L73.2545 19.2262V28.951V38.6757H74.977C76.6391 38.6757 76.6996 38.6695 76.6996 38.4971C76.6996 38.3979 76.7601 38.3184 76.8356 38.3184C76.9556 38.3184 76.9716 37.1982 76.9716 28.7723V19.2262L77.2549 19.1704C77.4108 19.1397 78.5123 19.1146 79.7028 19.1146H81.8673V17.1049V15.0951H79.6008H77.3342V14.6597C77.3342 14.0046 77.4215 13.6877 77.6159 13.6376C77.7154 13.612 77.7875 13.5148 77.7875 13.4065C77.7875 13.2997 77.8459 13.2194 77.9235 13.2194C77.9983 13.2194 78.0595 13.1554 78.0595 13.077C78.0595 12.9988 78.1373 12.9147 78.2325 12.8902C78.3276 12.8657 78.4258 12.769 78.4506 12.6753C78.4769 12.576 78.5752 12.5049 78.6856 12.5049C78.815 12.5049 78.8755 12.448 78.8755 12.3262C78.8755 12.1952 78.936 12.1476 79.1021 12.1476C79.2683 12.1476 79.3288 12.1 79.3288 11.9689C79.3288 11.8101 79.3893 11.7903 79.8728 11.7903C80.3563 11.7903 80.4167 11.7705 80.4167 11.6117C80.4167 11.4479 80.4772 11.433 81.142 11.433H81.8673V9.4233V7.41359H81.278C80.8421 7.41359 80.6887 7.44512 80.6887 7.53489ZM87.4883 11.2544V15.0951H85.8111C84.1943 15.0951 84.1338 15.1016 84.1338 15.2738C84.1338 15.3929 84.0734 15.4524 83.9525 15.4524C83.7771 15.4524 83.7712 15.512 83.7712 17.2835C83.7712 18.8994 83.7882 19.1146 83.9157 19.1146C83.9951 19.1146 84.0813 19.1941 84.107 19.2912C84.1513 19.4579 84.2472 19.4693 85.7985 19.4922L87.443 19.5165L87.4661 29.0961L87.4891 38.6757H89.3473C91.145 38.6757 91.2054 38.6699 91.2054 38.4971C91.2054 38.378 91.2659 38.3184 91.3868 38.3184C91.5669 38.3184 91.5681 38.2589 91.5681 28.8951V19.4718H93.2453H94.9226V17.2835V15.0951H93.2453H91.5681V11.433C91.5681 8.14173 91.5535 7.77087 91.4236 7.77087C91.3442 7.77087 91.2578 7.69049 91.2317 7.59223C91.1862 7.42101 91.1081 7.41359 89.3363 7.41359H87.4883V11.2544ZM118.132 14.1461C118.132 14.3184 118.543 14.3806 119.684 14.3806C120.61 14.3806 120.67 14.3916 120.67 14.5592C120.67 14.7196 120.731 14.7379 121.26 14.7379C121.789 14.7379 121.849 14.7562 121.849 14.9165C121.849 15.066 121.909 15.0951 122.22 15.0951C122.515 15.0951 122.601 15.1319 122.639 15.2738C122.675 15.4092 122.762 15.4524 123.001 15.4524C123.24 15.4524 123.328 15.4957 123.364 15.6311C123.39 15.7299 123.488 15.8097 123.582 15.8097C123.69 15.8097 123.753 15.8728 123.753 15.9805C123.753 16.1102 123.84 16.1658 124.116 16.2117C124.391 16.2575 124.478 16.3131 124.478 16.4428C124.478 16.5505 124.541 16.6136 124.649 16.6136C124.743 16.6136 124.841 16.6934 124.867 16.7922C124.896 16.8992 124.991 16.9709 125.104 16.9709C125.234 16.9709 125.294 17.0278 125.294 17.1495C125.294 17.2686 125.355 17.3282 125.475 17.3282C125.596 17.3282 125.657 17.3877 125.657 17.5068C125.657 17.6514 125.717 17.6854 125.974 17.6854C126.231 17.6854 126.291 17.6514 126.291 17.5068C126.291 17.4076 126.231 17.3282 126.155 17.3282C126.071 17.3282 126.019 17.2438 126.019 17.1049C126.019 16.9659 126.071 16.8816 126.155 16.8816C126.23 16.8816 126.291 16.8213 126.291 16.7476C126.291 16.6739 126.23 16.6136 126.155 16.6136C126.049 16.6136 126.019 16.4895 126.019 16.033C126.019 15.5765 126.049 15.4524 126.155 15.4524C126.254 15.4524 126.291 15.3532 126.291 15.0951V14.7379H128.558H130.825V27.0601V39.3822L130.53 39.4347C130.368 39.4635 129.358 39.4754 128.286 39.461C126.343 39.435 126.337 39.4343 126.308 39.234C126.292 39.1235 126.22 39.033 126.149 39.033C126.078 39.033 126.019 38.9526 126.019 38.8544C126.019 38.7551 126.08 38.6757 126.155 38.6757C126.231 38.6757 126.291 38.5963 126.291 38.4971C126.291 38.3979 126.231 38.3184 126.155 38.3184C126.057 38.3184 126.019 38.2192 126.019 37.9612C126.019 37.7031 126.057 37.6039 126.155 37.6039C126.231 37.6039 126.291 37.5245 126.291 37.4252C126.291 37.326 126.231 37.2466 126.155 37.2466C126.071 37.2466 126.019 37.1623 126.019 37.0233C126.019 36.8843 126.071 36.8 126.155 36.8C126.254 36.8 126.291 36.7008 126.291 36.4427C126.291 36.0939 126.284 36.0854 125.974 36.0854C125.721 36.0854 125.657 36.1204 125.657 36.2578C125.657 36.3687 125.584 36.4405 125.453 36.4588C125.322 36.4772 125.238 36.5592 125.22 36.6884C125.201 36.8175 125.128 36.8893 125.016 36.8893C124.92 36.8893 124.841 36.945 124.841 37.0129C124.841 37.0808 124.759 37.1575 124.66 37.1832C124.551 37.2111 124.478 37.305 124.478 37.4168C124.478 37.5755 124.423 37.6039 124.116 37.6039C123.813 37.6039 123.753 37.6336 123.753 37.7825C123.753 37.9016 123.692 37.9612 123.572 37.9612C123.451 37.9612 123.39 38.0207 123.39 38.1398C123.39 38.2887 123.33 38.3184 123.028 38.3184C122.734 38.3184 122.665 38.3502 122.665 38.4857C122.665 38.6117 122.576 38.667 122.302 38.71C122.068 38.747 121.94 38.8141 121.94 38.9001C121.94 38.9981 121.832 39.033 121.532 39.033C121.191 39.033 121.124 39.061 121.124 39.2036C121.124 39.3532 121.029 39.3821 120.353 39.4375C119.837 39.4799 119.582 39.5371 119.582 39.611C119.582 39.7686 118.151 39.8521 116.693 39.7795C115.83 39.7364 115.503 39.6892 115.503 39.6079C115.503 39.5316 115.256 39.4754 114.732 39.4324C114.208 39.3894 113.961 39.3333 113.961 39.2569C113.961 39.1385 113.572 39.033 113.134 39.033C112.934 39.033 112.874 38.9916 112.874 38.8544C112.874 38.7055 112.813 38.6757 112.511 38.6757C112.209 38.6757 112.148 38.646 112.148 38.4971C112.148 38.3482 112.088 38.3184 111.786 38.3184C111.483 38.3184 111.423 38.2887 111.423 38.1398C111.423 37.9909 111.362 37.9612 111.06 37.9612C110.758 37.9612 110.698 37.9314 110.698 37.7825C110.698 37.6515 110.637 37.6039 110.471 37.6039C110.309 37.6039 110.244 37.5556 110.244 37.4352C110.244 37.3141 110.157 37.2504 109.937 37.2097C109.737 37.1727 109.613 37.0913 109.583 36.9764C109.555 36.8716 109.459 36.8 109.346 36.8C109.217 36.8 109.156 36.7431 109.156 36.6214C109.156 36.5023 109.096 36.4427 108.975 36.4427C108.854 36.4427 108.794 36.3831 108.794 36.2641C108.794 36.145 108.733 36.0854 108.612 36.0854C108.492 36.0854 108.431 36.0259 108.431 35.9068C108.431 35.7877 108.371 35.7282 108.25 35.7282C108.129 35.7282 108.068 35.6686 108.068 35.5495C108.068 35.4305 108.008 35.3709 107.887 35.3709C107.764 35.3709 107.706 35.3113 107.706 35.1838C107.706 35.0727 107.633 34.9781 107.527 34.9507C107.411 34.9211 107.328 34.7997 107.292 34.61C107.256 34.425 107.171 34.2989 107.063 34.271C106.962 34.2451 106.89 34.1483 106.89 34.0395C106.89 33.9334 106.831 33.8524 106.755 33.8524C106.668 33.8524 106.6 33.7263 106.562 33.4951C106.518 33.2258 106.462 33.1379 106.334 33.1379C106.197 33.1379 106.165 33.0702 106.165 32.7806C106.165 32.4829 106.134 32.4233 105.983 32.4233C105.832 32.4233 105.802 32.3637 105.802 32.066C105.802 31.7683 105.772 31.7087 105.621 31.7087C105.458 31.7087 105.439 31.6492 105.439 31.1282C105.439 30.6072 105.421 30.5476 105.258 30.5476C105.09 30.5476 105.077 30.488 105.077 29.7549C105.077 28.8032 105.006 28.4039 104.839 28.4039C104.738 28.4039 104.714 28.1414 104.714 27.0641C104.714 25.9937 104.739 25.7243 104.837 25.7243C104.98 25.7243 105.075 25.1124 105.076 24.1835C105.077 23.6404 105.095 23.5806 105.258 23.5806C105.419 23.5806 105.439 23.521 105.439 23.0447C105.439 22.5683 105.459 22.5087 105.621 22.5087C105.775 22.5087 105.802 22.4492 105.802 22.1068C105.802 21.7644 105.829 21.7049 105.983 21.7049C106.134 21.7049 106.165 21.6453 106.165 21.3476C106.165 21.0499 106.195 20.9903 106.346 20.9903C106.497 20.9903 106.527 20.9307 106.527 20.633C106.527 20.3408 106.559 20.2757 106.701 20.2757C106.832 20.2757 106.889 20.1896 106.935 19.9184C106.975 19.6866 107.044 19.5612 107.133 19.5612C107.208 19.5612 107.29 19.4845 107.315 19.3907C107.34 19.297 107.438 19.2003 107.533 19.1758C107.634 19.1499 107.706 19.0531 107.706 18.9443C107.706 18.8169 107.764 18.7573 107.887 18.7573C108.008 18.7573 108.068 18.6977 108.068 18.5786C108.068 18.48 108.129 18.4 108.203 18.4C108.291 18.4 108.359 18.2739 108.396 18.0427C108.452 17.6972 108.466 17.6854 108.805 17.6854C109.096 17.6854 109.156 17.6547 109.156 17.5068C109.156 17.3877 109.217 17.3282 109.338 17.3282C109.459 17.3282 109.519 17.2686 109.519 17.1495C109.519 17.0305 109.58 16.9709 109.7 16.9709C109.821 16.9709 109.882 16.9113 109.882 16.7922C109.882 16.6705 109.942 16.6136 110.072 16.6136C110.183 16.6136 110.28 16.5422 110.307 16.4413C110.338 16.3233 110.464 16.2505 110.707 16.2101C110.921 16.1745 111.06 16.102 111.06 16.0262C111.06 15.9494 111.2 15.8791 111.423 15.844C111.696 15.801 111.786 15.7457 111.786 15.6196C111.786 15.4841 111.854 15.4524 112.148 15.4524C112.45 15.4524 112.511 15.4227 112.511 15.2738C112.511 15.1249 112.571 15.0951 112.874 15.0951C113.176 15.0951 113.236 15.0654 113.236 14.9165C113.236 14.7528 113.297 14.7379 113.961 14.7379C114.626 14.7379 114.687 14.7229 114.687 14.5592C114.687 14.3926 114.747 14.3806 115.582 14.3806C116.635 14.3806 117.044 14.315 117.044 14.1461C117.044 14.0555 117.187 14.0233 117.588 14.0233C117.989 14.0233 118.132 14.0555 118.132 14.1461ZM37.6018 15.1567C37.5146 15.1792 37.4432 15.2549 37.4432 15.325C37.4432 15.4102 37.3417 15.4524 37.1372 15.4524C36.6546 15.4524 36.2646 15.5537 36.2646 15.679C36.2646 15.7431 36.1078 15.8201 35.9108 15.8529C35.6685 15.8932 35.5427 15.966 35.5114 16.084C35.4845 16.1849 35.387 16.2563 35.2758 16.2563C35.1701 16.2563 35.086 16.3139 35.086 16.3863C35.086 16.4634 34.9603 16.5394 34.777 16.5733C34.5802 16.6097 34.4516 16.6922 34.4229 16.8006C34.3966 16.8997 34.2983 16.9709 34.1879 16.9709C34.0585 16.9709 33.9981 17.0278 33.9981 17.1495C33.9981 17.2686 33.9376 17.3282 33.8167 17.3282C33.6959 17.3282 33.6354 17.3877 33.6354 17.5068C33.6354 17.6259 33.5749 17.6854 33.4541 17.6854C33.3332 17.6854 33.2728 17.745 33.2728 17.8641C33.2728 17.9791 33.2123 18.0427 33.103 18.0427C32.9751 18.0427 32.919 18.1307 32.8753 18.4C32.836 18.6421 32.7711 18.7573 32.6739 18.7573C32.5951 18.7573 32.5091 18.8377 32.4831 18.9359C32.457 19.0342 32.3838 19.1146 32.3205 19.1146C32.2536 19.1146 32.1798 19.2828 32.1442 19.5165C32.0959 19.834 32.0461 19.9184 31.9073 19.9184C31.7627 19.9184 31.7315 19.9818 31.7315 20.2757C31.7315 20.5193 31.6919 20.633 31.6069 20.633C31.4573 20.633 31.3689 21.0185 31.3689 21.6714C31.3689 22.0206 31.3347 22.1515 31.2435 22.1515C31.1745 22.1515 31.0934 22.2418 31.0633 22.3524C31.0333 22.463 31.0081 26.1005 31.0075 30.4359C31.0062 38.2593 31.0076 38.3184 31.1875 38.3184C31.3084 38.3184 31.3689 38.378 31.3689 38.4971C31.3689 38.6695 31.4293 38.6757 33.0914 38.6757C34.7535 38.6757 34.814 38.6695 34.814 38.4971C34.814 38.378 34.8745 38.3184 34.9953 38.3184C35.1753 38.3184 35.1767 38.2589 35.1767 30.4136C35.1767 23.7343 35.1961 22.5087 35.3023 22.5087C35.3818 22.5087 35.4505 22.3609 35.4893 22.1068C35.5271 21.8586 35.5972 21.7049 35.6728 21.7049C35.7451 21.7049 35.8204 21.5583 35.8566 21.3476C35.9031 21.0764 35.9596 20.9903 36.0912 20.9903C36.2041 20.9903 36.2646 20.928 36.2646 20.8117C36.2646 20.6926 36.3251 20.633 36.4459 20.633C36.5668 20.633 36.6272 20.5734 36.6272 20.4544C36.6272 20.3353 36.6877 20.2757 36.8086 20.2757C36.9294 20.2757 36.9899 20.2162 36.9899 20.0971C36.9899 19.978 37.0504 19.9184 37.1712 19.9184C37.2905 19.9184 37.3525 19.8589 37.3525 19.7443C37.3525 19.5976 37.4387 19.5605 37.8965 19.5094C38.2377 19.4714 38.4405 19.4073 38.4405 19.3374C38.4405 19.2003 39.1375 19.1351 40.0497 19.1868C40.509 19.2128 40.707 19.259 40.707 19.3401C40.707 19.4063 40.866 19.4827 41.0769 19.5178C41.5674 19.5994 42.2482 19.4962 42.2482 19.3403C42.2482 19.2691 42.397 19.1949 42.6109 19.1592C42.8861 19.1134 42.9735 19.0578 42.9735 18.9281C42.9735 18.8054 43.0375 18.7573 43.2002 18.7573C43.3381 18.7573 43.4268 18.7064 43.4268 18.6273C43.4268 18.5502 43.5525 18.4742 43.7358 18.4403C43.9326 18.4039 44.0612 18.3214 44.0899 18.213C44.1239 18.0853 44.2168 18.0427 44.4609 18.0427C44.7263 18.0427 44.7868 18.0096 44.7868 17.8641C44.7868 17.733 44.8472 17.6854 45.0134 17.6854C45.2174 17.6854 45.2401 17.6497 45.2401 17.3282C45.2401 17.0251 45.2112 16.9709 45.0502 16.9709C44.9398 16.9709 44.8415 16.8997 44.8152 16.8006C44.7865 16.6922 44.6579 16.6097 44.4611 16.5733C44.2778 16.5394 44.1521 16.4634 44.1521 16.3863C44.1521 16.3139 44.068 16.2563 43.9623 16.2563C43.8511 16.2563 43.7536 16.1849 43.7268 16.084C43.6955 15.966 43.5696 15.8932 43.3273 15.8529C43.1303 15.8201 42.9735 15.7431 42.9735 15.679C42.9735 15.5422 42.5741 15.4524 41.9649 15.4524C41.5834 15.4524 41.523 15.428 41.523 15.2738C41.523 15.1006 41.466 15.0955 39.6417 15.1055C38.607 15.1112 37.6891 15.1343 37.6018 15.1567ZM52.8783 15.5155C52.7662 15.5367 52.6743 15.6117 52.6743 15.682C52.6743 15.7785 52.5417 15.8097 52.1303 15.8097C51.6468 15.8097 51.5864 15.8295 51.5864 15.9884C51.5864 16.1255 51.5259 16.167 51.3257 16.167C50.8848 16.167 50.4984 16.2728 50.4984 16.3936C50.4984 16.4576 50.3417 16.5346 50.1447 16.5674C49.9023 16.6078 49.7765 16.6806 49.7452 16.7986C49.7184 16.8995 49.6208 16.9709 49.5097 16.9709C49.4021 16.9709 49.3198 17.0284 49.3198 17.1038C49.3198 17.1898 49.1918 17.2569 48.9572 17.2939C48.6839 17.3369 48.5945 17.3922 48.5945 17.5182C48.5945 17.6259 48.53 17.6854 48.4132 17.6854C48.2924 17.6854 48.2319 17.745 48.2319 17.8641C48.2319 17.9831 48.1714 18.0427 48.0506 18.0427C47.9297 18.0427 47.8693 18.1023 47.8693 18.2214C47.8693 18.3431 47.8088 18.4 47.6794 18.4C47.5659 18.4 47.4706 18.4717 47.4422 18.5786C47.4161 18.6769 47.3345 18.7573 47.2609 18.7573C47.1872 18.7573 47.1066 18.8339 47.0818 18.9277C47.0569 19.0214 46.9587 19.1181 46.8636 19.1426C46.7684 19.1671 46.6907 19.2465 46.6907 19.3191C46.6907 19.3916 46.6091 19.472 46.5093 19.4977C46.4008 19.5257 46.328 19.6196 46.328 19.7314C46.328 19.8589 46.2703 19.9184 46.1467 19.9184C46.0258 19.9184 45.9654 19.978 45.9654 20.0971C45.9654 20.2162 45.9049 20.2757 45.784 20.2757C45.6329 20.2757 45.6027 20.3353 45.6027 20.633C45.6027 20.9307 45.5725 20.9903 45.4214 20.9903C45.2703 20.9903 45.2401 21.0499 45.2401 21.3476C45.2401 21.6381 45.2082 21.7049 45.0691 21.7049C44.9358 21.7049 44.8845 21.7937 44.8368 22.1068C44.7969 22.369 44.7303 22.5087 44.6452 22.5087C44.5559 22.5087 44.5148 22.61 44.5148 22.8298C44.5148 23.071 44.4716 23.1618 44.3409 23.1955C44.1937 23.2334 44.1572 23.3559 44.1035 23.991C44.0611 24.4929 44.003 24.7417 43.9282 24.7417C43.7282 24.7417 43.6331 26.928 43.7578 28.6581C43.8008 29.2564 43.8495 29.4757 43.9391 29.4757C44.0119 29.4757 44.0618 29.5751 44.0625 29.7214C44.0644 30.1851 44.176 30.6369 44.2887 30.6369C44.4078 30.6369 44.5148 31.0224 44.5148 31.4519C44.5148 31.6198 44.5616 31.7087 44.6497 31.7087C44.737 31.7087 44.8051 31.8349 44.8426 32.066C44.8863 32.3353 44.9424 32.4233 45.0704 32.4233C45.2079 32.4233 45.2401 32.491 45.2401 32.7806C45.2401 33.0783 45.2703 33.1379 45.4214 33.1379C45.5544 33.1379 45.6027 33.1974 45.6027 33.3612C45.6027 33.5249 45.651 33.5845 45.784 33.5845C45.9308 33.5845 45.9654 33.644 45.9654 33.8971C45.9654 34.1501 45.9999 34.2097 46.1467 34.2097C46.2703 34.2097 46.328 34.2693 46.328 34.3967C46.328 34.5086 46.4008 34.6025 46.5093 34.6304C46.6097 34.6563 46.6907 34.7522 46.6907 34.8454C46.6907 34.954 46.7548 35.0136 46.872 35.0136C46.9928 35.0136 47.0533 35.0732 47.0533 35.1922C47.0533 35.3233 47.1138 35.3709 47.28 35.3709C47.4461 35.3709 47.5066 35.4185 47.5066 35.5495C47.5066 35.6686 47.5671 35.7282 47.6879 35.7282C47.8088 35.7282 47.8693 35.7877 47.8693 35.9068C47.8693 36.0259 47.9297 36.0854 48.0506 36.0854C48.1714 36.0854 48.2319 36.145 48.2319 36.2641C48.2319 36.3831 48.2924 36.4427 48.4132 36.4427C48.53 36.4427 48.5945 36.5023 48.5945 36.6099C48.5945 36.736 48.6839 36.7912 48.9572 36.8343C49.18 36.8694 49.3198 36.9397 49.3198 37.0165C49.3198 37.0923 49.4593 37.1648 49.6736 37.2004C49.9159 37.2408 50.0418 37.3136 50.0731 37.4316C50.1089 37.5664 50.1996 37.6039 50.4899 37.6039C50.8006 37.6039 50.8611 37.633 50.8611 37.7825C50.8611 37.9314 50.9216 37.9612 51.2237 37.9612C51.5259 37.9612 51.5864 37.9909 51.5864 38.1398C51.5864 38.3035 51.6468 38.3184 52.3117 38.3184C52.9765 38.3184 53.037 38.3334 53.037 38.4971C53.037 38.6714 53.0974 38.6757 55.4848 38.6757C57.8722 38.6757 57.9327 38.6714 57.9327 38.4971C57.9327 38.3383 57.9932 38.3184 58.4767 38.3184C58.9601 38.3184 59.0206 38.2986 59.0206 38.1398C59.0206 37.9909 59.0811 37.9612 59.3833 37.9612C59.6782 37.9612 59.7459 37.9297 59.7459 37.7927C59.7459 37.6614 59.8361 37.6109 60.1539 37.5639C60.42 37.5246 60.5619 37.4589 60.5619 37.3751C60.5619 37.3044 60.6435 37.2466 60.7432 37.2466C60.864 37.2466 60.9245 37.187 60.9245 37.068C60.9245 36.9462 60.985 36.8893 61.1144 36.8893C61.2271 36.8893 61.3231 36.8177 61.351 36.7129C61.3814 36.5981 61.5051 36.5166 61.7051 36.4796C61.9256 36.4389 62.0124 36.3752 62.0124 36.2542C62.0124 36.1338 62.0774 36.0854 62.2391 36.0854C62.4053 36.0854 62.4658 36.0378 62.4658 35.9068C62.4658 35.7877 62.5262 35.7282 62.6471 35.7282C62.7679 35.7282 62.8284 35.6686 62.8284 35.5495C62.8284 35.4006 62.8889 35.3709 63.191 35.3709C63.4932 35.3709 63.5537 35.4006 63.5537 35.5495C63.5537 35.6686 63.4932 35.7282 63.3724 35.7282C63.2096 35.7282 63.191 35.7877 63.191 36.3087C63.191 36.8297 63.2096 36.8893 63.3724 36.8893C63.4731 36.8893 63.5537 36.9489 63.5537 37.0233C63.5537 37.0977 63.4731 37.1573 63.3724 37.1573C63.2394 37.1573 63.191 37.2169 63.191 37.3806C63.191 37.5443 63.2394 37.6039 63.3724 37.6039C63.4932 37.6039 63.5537 37.6635 63.5537 37.7825C63.5537 37.9016 63.4932 37.9612 63.3724 37.9612C63.2515 37.9612 63.191 38.0207 63.191 38.1398C63.191 38.2589 63.2515 38.3184 63.3724 38.3184C63.4932 38.3184 63.5537 38.378 63.5537 38.4971C63.5537 38.6699 63.6142 38.6757 65.4123 38.6757C67.2103 38.6757 67.2708 38.6699 67.2708 38.4971C67.2708 38.378 67.3313 38.3184 67.4521 38.3184C67.6325 38.3184 67.6335 38.2589 67.6335 27.0641V15.8097H65.6956C64.6298 15.8097 63.6302 15.8348 63.4744 15.8655C63.2242 15.9148 63.191 15.9566 63.191 16.2228C63.191 16.4647 63.2269 16.5243 63.3724 16.5243C63.4932 16.5243 63.5537 16.5838 63.5537 16.7029C63.5537 16.822 63.4932 16.8816 63.3724 16.8816C63.2096 16.8816 63.191 16.9411 63.191 17.4621C63.191 17.9831 63.2096 18.0427 63.3724 18.0427C63.4932 18.0427 63.5537 18.1023 63.5537 18.2214C63.5537 18.3694 63.4932 18.4 63.2017 18.4C62.9258 18.4 62.8393 18.3613 62.8021 18.2214C62.7737 18.1144 62.6784 18.0427 62.5649 18.0427C62.4356 18.0427 62.3751 17.9858 62.3751 17.8641C62.3751 17.745 62.3146 17.6854 62.1938 17.6854C62.0729 17.6854 62.0124 17.6259 62.0124 17.5068C62.0124 17.3613 61.952 17.3282 61.6866 17.3282C61.4371 17.3282 61.3497 17.2864 61.3134 17.1495C61.2872 17.0506 61.1898 16.9709 61.0952 16.9709C60.9876 16.9709 60.9245 16.9078 60.9245 16.8001C60.9245 16.6704 60.8371 16.6148 60.5619 16.5689C60.3522 16.534 60.1992 16.4587 60.1992 16.3903C60.1992 16.3219 60.0463 16.2466 59.8366 16.2117C59.634 16.178 59.4739 16.1007 59.4739 16.0369C59.4739 15.923 59.0203 15.8126 58.5446 15.8107C58.3941 15.8101 58.2953 15.7611 58.2953 15.6869C58.2953 15.6194 58.1679 15.539 58.012 15.5083C57.7009 15.447 53.206 15.4532 52.8783 15.5155ZM144.174 18.4631C144.062 18.4843 143.97 18.5593 143.97 18.6296C143.97 18.7091 143.876 18.7576 143.721 18.7583C143.245 18.7601 142.792 18.8705 142.792 18.9844C142.792 19.0483 142.632 19.1256 142.429 19.1592C142.219 19.1941 142.067 19.2694 142.067 19.3379C142.067 19.4063 141.914 19.4816 141.704 19.5165C141.429 19.5623 141.341 19.618 141.341 19.7477C141.341 19.8703 141.277 19.9184 141.115 19.9184C140.948 19.9184 140.888 19.9661 140.888 20.0971C140.888 20.2162 140.827 20.2757 140.707 20.2757C140.586 20.2757 140.525 20.3353 140.525 20.4544C140.525 20.5734 140.465 20.633 140.344 20.633C140.223 20.633 140.163 20.6926 140.163 20.8117C140.163 20.9307 140.102 20.9903 139.981 20.9903C139.86 20.9903 139.8 21.0499 139.8 21.1689C139.8 21.288 139.74 21.3476 139.619 21.3476C139.498 21.3476 139.437 21.4072 139.437 21.5262C139.437 21.6453 139.377 21.7049 139.256 21.7049C139.105 21.7049 139.075 21.7644 139.075 22.0621C139.075 22.3598 139.045 22.4194 138.893 22.4194C138.76 22.4194 138.712 22.479 138.712 22.6427C138.712 22.8064 138.664 22.866 138.531 22.866C138.38 22.866 138.349 22.9256 138.349 23.2233C138.349 23.521 138.319 23.5806 138.168 23.5806C138.012 23.5806 137.987 23.6402 137.987 24.016C137.987 24.6267 137.895 25.0097 137.749 25.0097C137.647 25.0097 137.624 25.3467 137.624 26.8408C137.624 28.3311 137.647 28.6718 137.748 28.6718C137.871 28.6718 137.984 29.1005 137.986 29.5769C137.986 29.7365 138.045 29.8272 138.168 29.8589C138.307 29.8946 138.349 29.9807 138.349 30.2266C138.349 30.488 138.383 30.5476 138.531 30.5476C138.682 30.5476 138.712 30.6072 138.712 30.9049C138.712 31.2026 138.742 31.2621 138.893 31.2621C139.026 31.2621 139.075 31.3217 139.075 31.4854C139.075 31.6458 139.124 31.7087 139.248 31.7087C139.38 31.7087 139.436 31.7948 139.483 32.066C139.529 32.3372 139.586 32.4233 139.717 32.4233C139.83 32.4233 139.891 32.4856 139.891 32.6019C139.891 32.721 139.951 32.7806 140.072 32.7806C140.189 32.7806 140.253 32.8402 140.253 32.9493C140.253 33.0703 140.34 33.134 140.561 33.1748C140.761 33.2117 140.884 33.2932 140.915 33.4081C140.943 33.5128 141.039 33.5845 141.151 33.5845C141.26 33.5845 141.341 33.642 141.341 33.7184C141.341 33.7921 141.406 33.8524 141.486 33.8524C141.565 33.8524 141.65 33.9285 141.675 34.0215C141.721 34.1945 142.043 34.299 142.531 34.299C142.731 34.299 142.792 34.3405 142.792 34.4777C142.792 34.6257 142.852 34.6563 143.144 34.6563C143.42 34.6563 143.506 34.695 143.543 34.835C143.587 34.9987 143.667 35.0136 144.506 35.0136C145.361 35.0136 145.421 35.0254 145.421 35.1922C145.421 35.3526 145.481 35.3709 146.01 35.3709C146.539 35.3709 146.6 35.3526 146.6 35.1922C146.6 35.0255 146.66 35.0136 147.506 35.0136C148.352 35.0136 148.413 35.0017 148.413 34.835C148.413 34.6883 148.474 34.6561 148.753 34.6551C149.216 34.6535 149.501 34.5688 149.501 34.4327C149.501 34.3668 149.671 34.2941 149.909 34.259C150.175 34.2197 150.317 34.1541 150.317 34.0703C150.317 33.9995 150.382 33.9417 150.461 33.9417C150.541 33.9417 150.626 33.8642 150.651 33.7694C150.683 33.6515 150.809 33.5787 151.051 33.5383C151.318 33.4939 151.405 33.4376 151.405 33.3086C151.405 33.1974 151.468 33.1379 151.586 33.1379C151.707 33.1379 151.767 33.0783 151.767 32.9592C151.767 32.8402 151.828 32.7806 151.949 32.7806C152.069 32.7806 152.13 32.721 152.13 32.6019C152.13 32.4856 152.19 32.4233 152.303 32.4233C152.435 32.4233 152.491 32.3372 152.538 32.066C152.584 31.7948 152.641 31.7087 152.773 31.7087C152.882 31.7087 152.946 31.6466 152.946 31.5405C152.946 31.4474 153.027 31.3515 153.127 31.3256C153.266 31.2898 153.309 31.2037 153.309 30.9579C153.309 30.6965 153.342 30.6369 153.49 30.6369C153.644 30.6369 153.671 30.5773 153.671 30.235C153.671 29.8926 153.698 29.833 153.853 29.833C154.014 29.833 154.034 29.7734 154.034 29.2971C154.034 28.8207 154.054 28.7612 154.215 28.7612C154.391 28.7612 154.396 28.7016 154.396 26.7515C154.396 24.8013 154.391 24.7417 154.215 24.7417C154.052 24.7417 154.034 24.6822 154.034 24.1612C154.034 23.6402 154.015 23.5806 153.853 23.5806C153.701 23.5806 153.671 23.521 153.671 23.2233C153.671 22.9337 153.639 22.866 153.501 22.866C153.374 22.866 153.317 22.778 153.274 22.5087C153.236 22.2776 153.168 22.1515 153.081 22.1515C153.004 22.1515 152.946 22.0704 152.946 21.9644C152.946 21.8526 152.873 21.7587 152.765 21.7308C152.665 21.705 152.583 21.6246 152.583 21.5521C152.583 21.4795 152.502 21.3991 152.402 21.3735C152.302 21.3476 152.221 21.2516 152.221 21.1585C152.221 21.0499 152.156 20.9903 152.039 20.9903C151.918 20.9903 151.858 20.9307 151.858 20.8117C151.858 20.6806 151.797 20.633 151.631 20.633C151.465 20.633 151.405 20.5854 151.405 20.4544C151.405 20.3353 151.344 20.2757 151.223 20.2757C151.102 20.2757 151.042 20.2162 151.042 20.0971C151.042 19.978 150.982 19.9184 150.861 19.9184C150.743 19.9184 150.679 19.8589 150.679 19.7477C150.679 19.618 150.592 19.5623 150.317 19.5165C150.111 19.4823 149.954 19.4058 149.954 19.3402C149.954 19.2711 149.789 19.1998 149.546 19.1639C149.301 19.1276 149.138 19.0569 149.138 18.9863C149.138 18.8635 148.755 18.7573 148.311 18.7573C148.15 18.7573 148.05 18.7102 148.05 18.6345C148.05 18.5669 147.923 18.4866 147.767 18.4558C147.457 18.3947 144.503 18.4007 144.174 18.4631ZM116.115 18.8212C115.978 18.8417 115.865 18.9119 115.865 18.9772C115.865 19.0609 115.651 19.1147 115.14 19.1592C114.511 19.2141 114.415 19.245 114.415 19.3918C114.415 19.5298 114.348 19.5612 114.052 19.5612C113.75 19.5612 113.689 19.5909 113.689 19.7398C113.689 19.8708 113.629 19.9184 113.463 19.9184C113.297 19.9184 113.236 19.9661 113.236 20.0971C113.236 20.246 113.176 20.2757 112.874 20.2757C112.571 20.2757 112.511 20.3055 112.511 20.4544C112.511 20.5734 112.45 20.633 112.33 20.633C112.209 20.633 112.148 20.6926 112.148 20.8117C112.148 20.9307 112.088 20.9903 111.967 20.9903C111.846 20.9903 111.786 21.0499 111.786 21.1689C111.786 21.288 111.725 21.3476 111.604 21.3476C111.481 21.3476 111.423 21.4071 111.423 21.5346C111.423 21.6464 111.35 21.7403 111.242 21.7683C111.141 21.7942 111.06 21.8901 111.06 21.9833C111.06 22.0919 110.996 22.1515 110.879 22.1515C110.731 22.1515 110.698 22.211 110.698 22.4725C110.698 22.7144 110.655 22.8045 110.523 22.8385C110.403 22.8693 110.329 22.9933 110.288 23.2321C110.255 23.4261 110.177 23.5806 110.112 23.5806C109.989 23.5806 109.882 23.9613 109.882 24.3956C109.882 24.554 109.834 24.6524 109.757 24.6524C109.561 24.6524 109.519 25.0778 109.519 27.0641C109.519 29.0504 109.561 29.4757 109.757 29.4757C109.843 29.4757 109.882 29.5907 109.882 29.8414C109.882 30.1319 109.919 30.2166 110.063 30.2537C110.177 30.283 110.244 30.3755 110.244 30.5022C110.244 30.9298 110.358 31.2471 110.526 31.2905C110.625 31.3162 110.698 31.4134 110.698 31.5217C110.698 31.6492 110.755 31.7087 110.879 31.7087C111 31.7087 111.06 31.7683 111.06 31.8874C111.06 31.9856 111.118 32.066 111.188 32.066C111.267 32.066 111.34 32.2037 111.378 32.4233C111.424 32.6945 111.481 32.7806 111.612 32.7806C111.722 32.7806 111.786 32.8427 111.786 32.9514C111.786 33.0811 111.873 33.1367 112.148 33.1825C112.423 33.2283 112.511 33.284 112.511 33.4137C112.511 33.5249 112.574 33.5845 112.692 33.5845C112.793 33.5845 112.874 33.644 112.874 33.7184C112.874 33.7949 112.955 33.8524 113.063 33.8524C113.175 33.8524 113.272 33.9238 113.299 34.0247C113.33 34.1427 113.456 34.2155 113.698 34.2559C113.897 34.2889 114.052 34.3656 114.052 34.4304C114.052 34.5686 114.334 34.6535 114.8 34.6551C115.079 34.6561 115.14 34.6883 115.14 34.835C115.14 34.9987 115.201 35.0136 115.865 35.0136C116.53 35.0136 116.591 35.0285 116.591 35.1922C116.591 35.3627 116.651 35.3709 117.905 35.3709C119.159 35.3709 119.22 35.3627 119.22 35.1922C119.22 35.0344 119.281 35.0134 119.741 35.0123C120.376 35.0109 120.67 34.9404 120.67 34.79C120.67 34.7241 120.841 34.6514 121.078 34.6163C121.33 34.579 121.486 34.5099 121.486 34.4354C121.486 34.3648 121.633 34.2904 121.84 34.2559C122.082 34.2155 122.208 34.1427 122.24 34.0247C122.266 33.9238 122.364 33.8524 122.475 33.8524C122.581 33.8524 122.665 33.7948 122.665 33.7225C122.665 33.6449 122.792 33.5691 122.98 33.5344C123.25 33.4845 123.303 33.4324 123.353 33.1724C123.404 32.9025 123.45 32.8627 123.763 32.8133C124.027 32.7717 124.116 32.7157 124.116 32.5905C124.116 32.4829 124.18 32.4233 124.297 32.4233C124.448 32.4233 124.478 32.3637 124.478 32.066C124.478 31.7683 124.508 31.7087 124.66 31.7087C124.793 31.7087 124.841 31.6492 124.841 31.4854C124.841 31.3217 124.889 31.2621 125.022 31.2621C125.153 31.2621 125.203 31.2026 125.203 31.05C125.203 30.6593 125.316 30.2796 125.431 30.2796C125.497 30.2796 125.571 30.1097 125.607 29.8777C125.643 29.639 125.716 29.4757 125.785 29.4757C125.944 29.4757 126.019 28.6999 126.019 27.0641C126.019 25.4552 125.943 24.6524 125.791 24.6524C125.673 24.6524 125.566 24.2657 125.566 23.8374C125.566 23.6402 125.524 23.5806 125.385 23.5806C125.234 23.5806 125.203 23.521 125.203 23.2233C125.203 22.9256 125.173 22.866 125.022 22.866C124.871 22.866 124.841 22.8064 124.841 22.5087C124.841 22.211 124.811 22.1515 124.66 22.1515C124.527 22.1515 124.478 22.0919 124.478 21.9282C124.478 21.7644 124.43 21.7049 124.297 21.7049C124.176 21.7049 124.116 21.6453 124.116 21.5262C124.116 21.4072 124.055 21.3476 123.934 21.3476C123.813 21.3476 123.753 21.288 123.753 21.1689C123.753 21.0499 123.692 20.9903 123.572 20.9903C123.451 20.9903 123.39 20.9307 123.39 20.8117C123.39 20.6806 123.33 20.633 123.164 20.633C122.997 20.633 122.937 20.5854 122.937 20.4544C122.937 20.3098 122.876 20.2757 122.62 20.2757C122.363 20.2757 122.302 20.2417 122.302 20.0971C122.302 19.9661 122.242 19.9184 122.076 19.9184C121.909 19.9184 121.849 19.8708 121.849 19.7398C121.849 19.5909 121.789 19.5612 121.486 19.5612C121.191 19.5612 121.124 19.5298 121.124 19.3918C121.124 19.245 121.027 19.2141 120.398 19.1592C119.908 19.1164 119.673 19.0594 119.673 18.983C119.673 18.9208 119.52 18.8451 119.333 18.8146C118.967 18.755 116.525 18.7601 116.115 18.8212ZM56.6861 19.5304C57.291 19.5699 57.57 19.6226 57.57 19.6975C57.57 19.8133 57.9636 19.9184 58.3973 19.9184C58.5975 19.9184 58.658 19.9599 58.658 20.0971C58.658 20.2493 58.7184 20.2757 59.066 20.2757C59.4135 20.2757 59.4739 20.3022 59.4739 20.4544C59.4739 20.6033 59.5344 20.633 59.8366 20.633C60.1387 20.633 60.1992 20.6628 60.1992 20.8117C60.1992 20.9307 60.2597 20.9903 60.3805 20.9903C60.5014 20.9903 60.5619 21.0499 60.5619 21.1689C60.5619 21.288 60.6223 21.3476 60.7432 21.3476C60.864 21.3476 60.9245 21.4072 60.9245 21.5262C60.9245 21.6453 60.985 21.7049 61.1058 21.7049C61.2294 21.7049 61.2872 21.7644 61.2872 21.8919C61.2872 22.0037 61.36 22.0976 61.4685 22.1256C61.5682 22.1513 61.6498 22.2317 61.6498 22.3042C61.6498 22.3768 61.7285 22.4564 61.8247 22.4812C61.9445 22.512 62.0183 22.636 62.0593 22.8748C62.0936 23.0749 62.1702 23.2233 62.2391 23.2233C62.3085 23.2233 62.385 23.374 62.4204 23.5806C62.4548 23.7811 62.5329 23.9379 62.5984 23.9379C62.7198 23.9379 62.8284 24.3177 62.8284 24.7425C62.8284 24.9138 62.8837 25.0031 63.0097 25.0356C63.1842 25.0805 63.191 25.1574 63.191 27.0641C63.191 28.9707 63.1842 29.0476 63.0097 29.0925C62.8707 29.1284 62.8281 29.215 62.8271 29.4638C62.8255 29.9092 62.7386 30.1903 62.6027 30.1903C62.5401 30.1903 62.4629 30.3508 62.4309 30.5476C62.3934 30.7787 62.3253 30.9049 62.238 30.9049C62.1615 30.9049 62.1031 30.9859 62.1031 31.0919C62.1031 31.2014 62.0307 31.2975 61.9282 31.3239C61.8085 31.3548 61.7346 31.4787 61.6936 31.7175C61.6485 31.9806 61.5914 32.066 61.4605 32.066C61.3476 32.066 61.2872 32.1283 61.2872 32.2447C61.2872 32.3637 61.2267 32.4233 61.1058 32.4233C60.985 32.4233 60.9245 32.4829 60.9245 32.6019C60.9245 32.721 60.864 32.7806 60.7432 32.7806C60.6264 32.7806 60.5619 32.8402 60.5619 32.9478C60.5619 33.0738 60.4726 33.1291 60.1992 33.1722C59.9764 33.2073 59.8366 33.2776 59.8366 33.3544C59.8366 33.4301 59.6971 33.5026 59.4828 33.5383C59.2405 33.5787 59.1146 33.6515 59.0834 33.7694C59.0565 33.8704 58.959 33.9417 58.8478 33.9417C58.7434 33.9417 58.658 33.997 58.658 34.0646C58.658 34.2206 58.2601 34.299 57.468 34.299C56.9996 34.299 56.8447 34.3296 56.8447 34.4218C56.8447 34.5797 56.4454 34.6563 55.6228 34.6563C54.5795 34.6563 53.8529 34.5594 53.8529 34.4203C53.8529 34.3421 53.7442 34.299 53.5469 34.299C53.0643 34.299 52.6743 34.1977 52.6743 34.0724C52.6743 34.0079 52.5152 33.9309 52.3117 33.8971C52.102 33.8622 51.949 33.7869 51.949 33.7184C51.949 33.65 51.7961 33.5747 51.5864 33.5398C51.3111 33.494 51.2237 33.4383 51.2237 33.3086C51.2237 33.2009 51.1606 33.1379 51.053 33.1379C50.9585 33.1379 50.8611 33.0581 50.8348 32.9592C50.8064 32.8523 50.7111 32.7806 50.5976 32.7806C50.4682 32.7806 50.4078 32.7237 50.4078 32.6019C50.4078 32.4829 50.3473 32.4233 50.2265 32.4233C50.1056 32.4233 50.0451 32.3637 50.0451 32.2447C50.0451 32.1256 49.9847 32.066 49.8638 32.066C49.743 32.066 49.6825 32.0064 49.6825 31.8874C49.6825 31.7683 49.622 31.7087 49.5012 31.7087C49.384 31.7087 49.3198 31.6492 49.3198 31.5405C49.3198 31.4474 49.2389 31.3515 49.1385 31.3256C48.9996 31.2898 48.9572 31.2037 48.9572 30.9579C48.9572 30.6965 48.9236 30.6369 48.7759 30.6369C48.6214 30.6369 48.5945 30.5773 48.5945 30.235C48.5945 29.8926 48.5677 29.833 48.4132 29.833C48.253 29.833 48.2317 29.7731 48.2306 29.3194C48.2291 28.6823 48.1574 28.4039 47.9946 28.4039C47.8935 28.4039 47.8693 28.1453 47.8693 27.0641C47.8693 25.9829 47.8935 25.7243 47.9946 25.7243C48.1574 25.7243 48.2291 25.4459 48.2306 24.8087C48.2317 24.3551 48.253 24.2951 48.4132 24.2951C48.5644 24.2951 48.5945 24.2356 48.5945 23.9379C48.5945 23.6402 48.6247 23.5806 48.7759 23.5806C48.927 23.5806 48.9572 23.521 48.9572 23.2233C48.9572 22.9256 48.9874 22.866 49.1385 22.866C49.2715 22.866 49.3198 22.8064 49.3198 22.6427C49.3198 22.4834 49.3689 22.4194 49.4911 22.4194C49.6139 22.4194 49.6786 22.3338 49.7199 22.1166C49.7575 21.9196 49.8402 21.7977 49.9567 21.7677C50.0631 21.7403 50.1358 21.6457 50.1358 21.5346C50.1358 21.4071 50.1935 21.3476 50.3171 21.3476C50.4172 21.3476 50.4984 21.288 50.4984 21.2147C50.4984 21.1286 50.6265 21.0616 50.8611 21.0246C51.1344 20.9815 51.2237 20.9263 51.2237 20.8002C51.2237 20.6926 51.2883 20.633 51.4051 20.633C51.5259 20.633 51.5864 20.5734 51.5864 20.4544C51.5864 20.3048 51.6468 20.2757 51.9575 20.2757C52.2524 20.2757 52.3384 20.239 52.376 20.0971C52.4162 19.9459 52.4997 19.9184 52.92 19.9184C53.3371 19.9184 53.424 19.8904 53.4631 19.7433C53.5036 19.5906 53.6047 19.5642 54.2479 19.5381C54.6539 19.5217 55.1698 19.5003 55.3942 19.4905C55.6185 19.4808 56.2 19.4987 56.6861 19.5304Z" fill="url(#paint0_linear_2732_651)"/>
<defs>
<linearGradient id="paint0_linear_2732_651" x1="170.455" y1="-8.62491" x2="-10.0163" y2="0.304175" gradientUnits="userSpaceOnUse">
<stop stop-color="#ED5699"/>
<stop offset="1" stop-color="#FF8586"/>
</linearGradient>
</defs>
</svg>
