<svg width="28" height="28" viewBox="0 0 28 28" fill="none" xmlns="http://www.w3.org/2000/svg">
<path opacity="0.3" d="M14.0666 2.04199C16.6224 2.04198 18.6299 2.04197 20.1972 2.25268C21.8032 2.46862 23.0776 2.92017 24.0788 3.92139C25.08 4.92262 25.5315 6.19692 25.7475 7.80302C25.9582 9.37034 25.9582 11.3778 25.9582 13.9336V14.0671C25.9582 16.6229 25.9582 18.6304 25.7475 20.1977C25.5315 21.8037 25.08 23.078 24.0788 24.0793C23.0776 25.0805 21.8032 25.532 20.1972 25.748C18.6299 25.9587 16.6224 25.9587 14.0666 25.9587H13.9331C11.3773 25.9587 9.36985 25.9587 7.80253 25.748C6.19644 25.532 4.92213 25.0805 3.9209 24.0793C2.91968 23.078 2.46813 21.8037 2.25219 20.1977C2.04148 18.6304 2.04149 16.6229 2.0415 14.0671V13.9336C2.04149 11.3778 2.04148 9.37034 2.25219 7.80302C2.46813 6.19692 2.91968 4.92262 3.9209 3.92139C4.92213 2.92017 6.19644 2.46862 7.80253 2.25268C9.36985 2.04197 11.3773 2.04198 13.9331 2.04199H14.0666Z" fill="#FDF2F6"/>
<path fill-rule="evenodd" clip-rule="evenodd" d="M13.9998 8.16699C14.6442 8.16699 15.1665 8.68933 15.1665 9.33366V12.8337H18.6665C19.3109 12.8337 19.8332 13.356 19.8332 14.0003C19.8332 14.6447 19.3109 15.167 18.6665 15.167H15.1665V18.667C15.1665 19.3113 14.6442 19.8337 13.9998 19.8337C13.3555 19.8337 12.8332 19.3113 12.8332 18.667V15.167H9.33317C8.68884 15.167 8.1665 14.6447 8.1665 14.0003C8.1665 13.356 8.68884 12.8337 9.33317 12.8337H12.8332V9.33366C12.8332 8.68933 13.3555 8.16699 13.9998 8.16699Z" fill="#FDF2F6"/>
</svg>
