<svg width="28" height="28" viewBox="0 0 28 28" fill="none" xmlns="http://www.w3.org/2000/svg">
<path opacity="0.4" d="M18.9317 2.76789C17.4967 2.62498 15.7097 2.62499 13.4766 2.625C10.9207 2.62499 8.78672 2.62498 7.2194 2.83569C5.61331 3.05163 4.339 3.50317 3.33777 4.5044C2.33655 5.50563 1.885 6.77993 1.66906 8.38602C1.45835 9.95335 1.45836 12.0942 1.45837 14.6501C1.45836 17.2059 1.45835 19.2134 1.66906 20.7807C1.885 22.3867 2.33655 23.661 3.33777 24.6623C4.339 25.6635 5.61331 26.115 7.2194 26.331C8.78672 26.5417 10.9276 26.5417 13.4834 26.5417C16.0393 26.5417 18.0467 26.5417 19.614 26.331C21.2201 26.115 22.4944 25.6635 23.4957 24.6623C24.4969 23.661 24.9484 22.3867 25.1643 20.7807C25.375 19.2134 25.375 17.2059 25.375 14.6501C25.375 12.415 25.375 10.5187 25.2318 9.06682C24.8898 9.1957 24.6544 9.28884 24.5182 9.35156C24.4319 9.53897 24.2881 9.91437 24.0726 10.4966L23.7717 11.3097C23.4329 12.2254 22.5598 12.8333 21.5834 12.8333C20.607 12.8333 19.7339 12.2254 19.3951 11.3097L19.0942 10.4966C18.8787 9.91437 18.7303 9.53897 18.644 9.35157C18.4565 9.26525 18.0857 9.12133 17.5035 8.9059L16.6903 8.60498C15.7747 8.26616 15.1667 7.39303 15.1667 6.41667C15.1667 5.44031 15.7747 4.56719 16.6903 4.22835L17.5035 3.92743C18.0857 3.71201 18.4519 3.56809 18.6394 3.48178C18.7021 3.34555 18.8001 3.11 18.9317 2.76789Z" fill="#ed5699"></path>
<path d="M7.40692 19.6909C10.0762 15.0197 16.7571 15.0197 19.4264 19.6909C19.5811 19.9617 19.58 20.2944 19.4234 20.5642C19.2669 20.834 18.9786 21 18.6666 21H8.16663C7.85472 21 7.56639 20.834 7.40983 20.5642C7.25328 20.2944 7.25216 19.9617 7.40692 19.6909Z" fill="#5A5A5A"></path>
<path d="M13.4065 14.5833C15.0197 14.5833 16.3274 13.2775 16.3274 11.6667C16.3274 10.0558 15.0197 8.75 13.4065 8.75C11.7935 8.75 10.4857 10.0558 10.4857 11.6667C10.4857 13.2775 11.7935 14.5833 13.4065 14.5833Z" fill="#5a5a5a"></path>
<path d="M21.5833 1.45825C21.9494 1.45825 22.2769 1.68622 22.404 2.02959L22.7049 2.84279C23.1272 3.9842 23.2619 4.29431 23.4837 4.51616C23.7056 4.738 24.0157 4.8727 25.1572 5.29506L25.9704 5.59596C26.3137 5.72303 26.5417 6.05045 26.5417 6.41659C26.5417 6.78272 26.3137 7.11015 25.9704 7.23721L25.1572 7.53811C24.0157 7.96047 23.7056 8.09517 23.4837 8.31702C23.2619 8.53886 23.1272 8.84897 22.7049 9.99038L22.404 10.8036C22.2769 11.147 21.9494 11.3749 21.5833 11.3749C21.2172 11.3749 20.8898 11.147 20.7627 10.8036L20.4618 9.99038C20.0395 8.84897 19.9047 8.53886 19.6829 8.31702C19.461 8.09517 19.1509 7.96047 18.0095 7.53811L17.1963 7.23721C16.853 7.11015 16.625 6.78272 16.625 6.41659C16.625 6.05045 16.853 5.72303 17.1963 5.59596L18.0095 5.29506C19.1509 4.8727 19.461 4.738 19.6829 4.51616C19.9047 4.29431 20.0395 3.9842 20.4618 2.84279L20.7627 2.02959C20.8898 1.68622 21.2172 1.45825 21.5833 1.45825Z" fill="#ed5699"></path>
</svg>