<svg width="28" height="28" viewBox="0 0 28 28" fill="none" xmlns="http://www.w3.org/2000/svg">
<path opacity="0.4" d="M18.9318 2.76789C17.4968 2.62498 15.7098 2.62499 13.4767 2.625C10.9208 2.62499 8.78684 2.62498 7.21952 2.83569C5.61343 3.05163 4.33912 3.50317 3.33789 4.5044C2.33667 5.50563 1.88512 6.77993 1.66918 8.38602C1.45847 9.95335 1.45848 12.0942 1.4585 14.6501C1.45848 17.2059 1.45847 19.2134 1.66918 20.7807C1.88512 22.3867 2.33667 23.661 3.33789 24.6623C4.33912 25.6635 5.61343 26.115 7.21952 26.331C8.78684 26.5417 10.9277 26.5417 13.4836 26.5417C16.0394 26.5417 18.0469 26.5417 19.6142 26.331C21.2202 26.115 22.4945 25.6635 23.4958 24.6623C24.497 23.661 24.9485 22.3867 25.1645 20.7807C25.3752 19.2134 25.3752 17.2059 25.3752 14.6501C25.3752 12.415 25.3752 10.5187 25.2319 9.06682C24.8899 9.1957 24.6545 9.28884 24.5184 9.35156C24.432 9.53897 24.2882 9.91437 24.0727 10.4966L23.7718 11.3097C23.433 12.2254 22.5599 12.8333 21.5835 12.8333C20.6071 12.8333 19.734 12.2254 19.3952 11.3097L19.0943 10.4966C18.8788 9.91437 18.7304 9.53897 18.6441 9.35157C18.4566 9.26525 18.0858 9.12133 17.5037 8.9059L16.6904 8.60498C15.7748 8.26616 15.1668 7.39303 15.1668 6.41667C15.1668 5.44031 15.7748 4.56719 16.6904 4.22835L17.5037 3.92743C18.0858 3.71201 18.452 3.56809 18.6395 3.48178C18.7022 3.34555 18.8002 3.11 18.9318 2.76789Z" fill="#5A5A5A"/>
<path d="M7.40679 19.6909C10.076 15.0197 16.757 15.0197 19.4262 19.6909C19.5809 19.9617 19.5799 20.2944 19.4233 20.5642C19.2668 20.834 18.9785 21 18.6665 21H8.1665C7.85459 21 7.56626 20.834 7.40971 20.5642C7.25315 20.2944 7.25203 19.9617 7.40679 19.6909Z" fill="#5A5A5A"/>
<path d="M13.4066 14.5833C15.0198 14.5833 16.3275 13.2775 16.3275 11.6667C16.3275 10.0558 15.0198 8.75 13.4066 8.75C11.7936 8.75 10.4858 10.0558 10.4858 11.6667C10.4858 13.2775 11.7936 14.5833 13.4066 14.5833Z" fill="#5A5A5A"/>
<path d="M21.5833 1.45801C21.9494 1.45801 22.2769 1.68597 22.404 2.02935L22.7049 2.84255C23.1272 3.98396 23.2619 4.29407 23.4837 4.51591C23.7056 4.73775 24.0157 4.87246 25.1572 5.29481L25.9704 5.59572C26.3137 5.72278 26.5417 6.05021 26.5417 6.41634C26.5417 6.78248 26.3137 7.1099 25.9704 7.23696L25.1572 7.53787C24.0157 7.96023 23.7056 8.09493 23.4837 8.31677C23.2619 8.53861 23.1272 8.84872 22.7049 9.99013L22.404 10.8033C22.2769 11.1467 21.9494 11.3747 21.5833 11.3747C21.2172 11.3747 20.8898 11.1467 20.7627 10.8033L20.4618 9.99013C20.0395 8.84872 19.9047 8.53861 19.6829 8.31677C19.461 8.09493 19.1509 7.96023 18.0095 7.53787L17.1963 7.23696C16.853 7.1099 16.625 6.78248 16.625 6.41634C16.625 6.05021 16.853 5.72278 17.1963 5.59572L18.0095 5.29481C19.1509 4.87246 19.461 4.73775 19.6829 4.51591C19.9047 4.29407 20.0395 3.98396 20.4618 2.84255L20.7627 2.02935C20.8898 1.68597 21.2172 1.45801 21.5833 1.45801Z" fill="#5A5A5A"/>
</svg>
