<svg width="28" height="28" viewBox="0 0 28 28" fill="none" xmlns="http://www.w3.org/2000/svg">
<path opacity="0.4" d="M15.1667 11.6667C15.1667 11.0223 14.6444 10.5 14 10.5C13.3556 10.5 12.8333 11.0223 12.8333 11.6667V17.6991C11.4739 18.1796 10.5 19.4761 10.5 21C10.5 22.933 12.0669 24.5 14 24.5C15.933 24.5 17.5 22.933 17.5 21C17.5 19.4761 16.5261 18.1796 15.1667 17.6991V11.6667Z" fill="url(#paint0_linear_2732_1074)"/>
<path fill-rule="evenodd" clip-rule="evenodd" d="M14.0002 5.83333C8.8455 5.83333 4.66683 10.012 4.66683 15.1667C4.66683 15.811 4.14449 16.3333 3.50016 16.3333C2.85584 16.3333 2.3335 15.811 2.3335 15.1667C2.3335 8.72334 7.55684 3.5 14.0002 3.5C20.4434 3.5 25.6668 8.72334 25.6668 15.1667C25.6668 15.811 25.1445 16.3333 24.5002 16.3333C23.8558 16.3333 23.3335 15.811 23.3335 15.1667C23.3335 10.012 19.1548 5.83333 14.0002 5.83333Z" fill="url(#paint1_linear_2732_1074)"/>
<defs>
<linearGradient id="paint0_linear_2732_1074" x1="17.6879" y1="7.87503" x2="10.0594" y2="7.92732" gradientUnits="userSpaceOnUse">
<stop stop-color="#ED5699"/>
<stop offset="1" stop-color="#FF8586"/>
</linearGradient>
<linearGradient id="paint1_linear_2732_1074" x1="26.2931" y1="1.09378" x2="0.879273" y2="1.72729" gradientUnits="userSpaceOnUse">
<stop stop-color="#ED5699"/>
<stop offset="1" stop-color="#FF8586"/>
</linearGradient>
</defs>
</svg>
