<svg width="28" height="28" viewBox="0 0 28 28" fill="none" xmlns="http://www.w3.org/2000/svg">
<path d="M7 17.2378V18.3745C7 19.1345 7.06321 19.8454 7.39554 20.51C7.72785 21.1746 8.25858 21.6516 8.86667 22.1078L10.3038 23.1857C10.8714 23.6113 11.3506 23.9707 11.75 24.2252C12.1443 24.4764 12.6156 24.7307 13.1548 24.7793C14.255 24.8785 15.3169 24.3476 15.8977 23.4078C16.1823 22.9474 16.2616 22.4178 16.2973 21.9516C16.3172 21.6906 16.3261 21.3909 16.3301 21.0552L13.9983 19.9187V19.922C13.9992 19.9896 14 20.057 14 20.1245C14 20.8927 13.9992 21.4014 13.9707 21.7737C13.9483 22.0661 13.9138 22.1703 13.908 22.1881L13.9073 22.1899C13.7919 22.3695 13.5876 22.4716 13.3748 22.4563L13.3728 22.4556C13.3552 22.4496 13.251 22.4147 13.0037 22.2572C12.6888 22.0566 12.2813 21.7521 11.6667 21.2911L10.2667 20.2411C9.73439 19.8419 9.56512 19.6317 9.48253 19.4665C9.39994 19.3013 9.33333 19.0398 9.33333 18.3745V17.6449L8.99849 17.4817C8.36515 17.173 7.68925 17.0908 7 17.2378Z" fill="#5A5A5A"/>
<path opacity="0.4" d="M8.99865 8.76746L17.407 4.66915C19.3371 3.72836 20.3023 3.25796 21.3783 3.62461C22.4543 3.99127 22.8236 4.77801 23.5623 6.35152C24.5765 8.51193 25.0835 10.8185 25.0835 13.125C25.0835 15.4315 24.5765 17.7381 23.5623 19.8984C22.8236 21.472 22.4543 22.2587 21.3783 22.6254C20.3023 22.9921 19.3371 22.5217 17.407 21.5809L8.99865 17.4825C8.35151 17.1671 7.65995 17.0882 6.95509 17.2485C6.4939 17.3533 6.26324 17.4058 6.07752 17.4273C3.77109 17.6948 2.3335 15.8412 2.3335 13.7098V12.5401C2.3335 10.4087 3.77109 8.5552 6.07752 8.82264C6.26324 8.84416 6.49389 8.89663 6.95509 9.00153C7.65995 9.16187 8.35151 9.08287 8.99865 8.76746Z" fill="#5A5A5A"/>
</svg>
