<svg width="28" height="28" viewBox="0 0 28 28" fill="none" xmlns="http://www.w3.org/2000/svg">
<path d="M7 17.2378V18.3745C7 19.1345 7.06321 19.8454 7.39554 20.51C7.72785 21.1746 8.25858 21.6516 8.86667 22.1078L10.3038 23.1857C10.8714 23.6113 11.3506 23.9707 11.75 24.2252C12.1443 24.4764 12.6156 24.7307 13.1548 24.7793C14.255 24.8785 15.3169 24.3476 15.8977 23.4078C16.1823 22.9474 16.2616 22.4178 16.2973 21.9516C16.3172 21.6906 16.3261 21.3909 16.3301 21.0552L13.9983 19.9187V19.922C13.9992 19.9896 14 20.057 14 20.1245C14 20.8927 13.9992 21.4014 13.9707 21.7737C13.9483 22.0661 13.9138 22.1703 13.908 22.1881L13.9073 22.1899C13.7919 22.3695 13.5876 22.4716 13.3748 22.4563L13.3728 22.4556C13.3552 22.4496 13.251 22.4147 13.0037 22.2572C12.6888 22.0566 12.2813 21.7521 11.6667 21.2911L10.2667 20.2411C9.73439 19.8419 9.56512 19.6317 9.48253 19.4665C9.39994 19.3013 9.33333 19.0398 9.33333 18.3745V17.6449L8.99849 17.4817C8.36515 17.173 7.68925 17.0908 7 17.2378Z" fill="url(#paint0_linear_2732_3415)"/>
<path opacity="0.4" d="M8.99853 8.76746L17.4068 4.66915C19.337 3.72836 20.3022 3.25796 21.3782 3.62461C22.4542 3.99127 22.8234 4.77801 23.5622 6.35152C24.5764 8.51193 25.0834 10.8185 25.0834 13.125C25.0834 15.4315 24.5764 17.7381 23.5622 19.8984C22.8234 21.472 22.4542 22.2587 21.3782 22.6254C20.3022 22.9921 19.337 22.5217 17.4068 21.5809L8.99853 17.4825C8.35139 17.1671 7.65983 17.0882 6.95497 17.2485C6.49378 17.3533 6.26312 17.4058 6.07739 17.4273C3.77096 17.6948 2.33337 15.8412 2.33337 13.7098V12.5401C2.33337 10.4087 3.77096 8.5552 6.07739 8.82264C6.26312 8.84416 6.49377 8.89663 6.95497 9.00153C7.65983 9.16187 8.35139 9.08287 8.99853 8.76746Z" fill="url(#paint1_linear_2732_3415)"/>
<defs>
<linearGradient id="paint0_linear_2732_3415" x1="16.5805" y1="15.7375" x2="6.41506" y2="15.908" gradientUnits="userSpaceOnUse">
<stop stop-color="#ED5699"/>
<stop offset="1" stop-color="#FF8586"/>
</linearGradient>
<linearGradient id="paint1_linear_2732_3415" x1="25.694" y1="-0.109341" x2="0.906616" y2="0.292291" gradientUnits="userSpaceOnUse">
<stop stop-color="#ED5699"/>
<stop offset="1" stop-color="#FF8586"/>
</linearGradient>
</defs>
</svg>
