<svg width="16" height="16" viewBox="0 0 16 16" fill="none" xmlns="http://www.w3.org/2000/svg">
<path d="M7.86737 4.32665L8.85777 3.33627C9.9729 2.22113 11.4328 1.75857 12.9779 1.68299C13.5789 1.65359 13.8794 1.63889 14.1203 1.87985C14.3613 2.1208 14.3466 2.42128 14.3172 3.02225C14.2416 4.56733 13.779 6.02727 12.6639 7.14239L11.6735 8.13279C10.8579 8.94839 10.626 9.18033 10.7972 10.065C10.9662 10.7408 11.1298 11.3952 10.6384 11.8866C10.0423 12.4827 9.49857 12.4827 8.9025 11.8866L4.11356 7.09766C3.5175 6.50158 3.51748 5.95786 4.11356 5.36179C4.60495 4.87039 5.25936 5.03395 5.93515 5.20292C6.81984 5.37415 7.05177 5.14225 7.86737 4.32665Z" stroke="#5A5A5A" stroke-width="1.5" stroke-linejoin="round"/>
<path d="M11.3306 4.66699H11.3366" stroke="#5A5A5A" stroke-width="2" stroke-linecap="round" stroke-linejoin="round"/>
<path d="M1.6665 14.3333L4.99984 11" stroke="#5A5A5A" stroke-width="1.5" stroke-linecap="round"/>
<path d="M5.6665 14.3333L6.99984 13" stroke="#5A5A5A" stroke-width="1.5" stroke-linecap="round"/>
<path d="M1.6665 10.3333L2.99984 9" stroke="#5A5A5A" stroke-width="1.5" stroke-linecap="round"/>
</svg>
