<svg width="28" height="28" viewBox="0 0 28 28" fill="none" xmlns="http://www.w3.org/2000/svg">
<path opacity="0.4" d="M9.35064 2.4789C9.54107 2.39581 9.82079 2.29983 10.1526 2.34425C10.5133 2.39255 10.7807 2.59841 10.9344 2.72693C11.0977 2.86341 11.5082 3.2706 11.5082 3.2706C12.1884 3.94511 13.0942 4.2825 14.0002 4.28274C14.9061 4.2825 15.8119 3.94511 16.4922 3.2706C16.4922 3.2706 16.9027 2.86341 17.0659 2.72693C17.2197 2.59841 17.4871 2.39255 17.8477 2.34425C18.1795 2.29983 18.4593 2.39581 18.6497 2.4789C18.8248 2.55529 19.0222 2.66681 19.2139 2.775L21.8378 4.27825C22.0079 4.39859 22.2379 4.59017 22.3698 4.90017C22.5138 5.23861 22.4674 5.57972 22.4332 5.77702C22.3961 5.99052 22.3193 6.28446 22.2458 6.56574C21.7835 8.33537 22.9127 10.239 24.7407 10.7289L24.7729 10.7376C25.0496 10.8117 25.3087 10.8811 25.5113 10.9542C25.701 11.0225 26.0179 11.1508 26.2412 11.4406C26.4464 11.7068 26.5008 11.9986 26.5222 12.2052C26.542 12.3956 26.5418 12.6236 26.5418 12.8452V15.1543C26.5418 15.376 26.542 15.6038 26.5222 15.7943C26.5008 16.0008 26.4464 16.2926 26.2412 16.5588C26.0179 16.8485 25.701 16.9769 25.5114 17.0452C25.3088 17.1184 24.7409 17.2705 24.7409 17.2705C22.9135 17.7604 21.785 19.6637 22.2476 21.4335C22.2476 21.4335 22.3979 22.0087 22.4349 22.2222C22.4692 22.4195 22.5157 22.7606 22.3717 23.0991C22.2397 23.4092 22.0099 23.6007 21.8397 23.721L19.2158 25.2244C19.0242 25.3325 18.8265 25.4441 18.6516 25.5205C18.461 25.6035 18.1813 25.6996 17.8495 25.6551C17.4887 25.6068 17.2214 25.4009 17.0677 25.2723C16.9045 25.1358 16.4939 24.7287 16.4939 24.7287C15.8133 24.0535 14.9068 23.7158 14.0002 23.7155C13.0935 23.7158 12.187 24.0535 11.5064 24.7287C11.5064 24.7287 11.0959 25.1358 10.9327 25.2723C10.7789 25.4009 10.5116 25.6068 10.1509 25.6551C9.81904 25.6996 9.53929 25.6035 9.34884 25.5205C9.17381 25.4441 8.97627 25.3325 8.78472 25.2244L6.16058 23.721C5.99045 23.6007 5.76057 23.4092 5.62865 23.0991C5.48463 22.7606 5.53112 22.4195 5.56537 22.2222C5.60241 22.0087 5.75279 21.4335 5.75279 21.4335C6.21536 19.6637 5.08687 17.7604 3.25953 17.2705C3.25953 17.2705 2.6916 17.1184 2.48892 17.0452C2.29933 16.9769 1.98244 16.8485 1.75915 16.5588C1.55395 16.2926 1.49956 16.0008 1.47815 15.7943C1.45841 15.6038 1.45845 15.376 1.4585 15.1543V12.8452C1.45845 12.6236 1.45841 12.3956 1.47815 12.2052C1.49956 11.9986 1.55396 11.7068 1.75917 11.4406C1.98247 11.1508 2.29936 11.0225 2.48898 10.9542C2.69166 10.8811 2.95081 10.8117 3.22738 10.7376L3.25958 10.7289C5.08759 10.239 6.21683 8.33537 5.75455 6.56574C5.68104 6.28446 5.60423 5.99052 5.5672 5.77702C5.53298 5.57972 5.48651 5.23861 5.63055 4.90017C5.76249 4.59017 5.99235 4.39859 6.16247 4.27825L8.78649 2.775C8.97808 2.66681 9.17558 2.55529 9.35064 2.4789Z" fill="#5A5A5A"/>
<path d="M18.0832 14.0003C18.0832 16.2555 16.255 18.0836 13.9998 18.0836C11.7447 18.0836 9.9165 16.2555 9.9165 14.0003C9.9165 11.7451 11.7447 9.91699 13.9998 9.91699C16.255 9.91699 18.0832 11.7451 18.0832 14.0003Z" fill="#5A5A5A"/>
</svg>
