<svg width="28" height="28" viewBox="0 0 28 28" fill="none" xmlns="http://www.w3.org/2000/svg">
<path opacity="0.4" d="M9.35039 2.4789C9.54083 2.39581 9.82055 2.29983 10.1523 2.34425C10.513 2.39255 10.7804 2.59841 10.9342 2.72693C11.0974 2.86341 11.508 3.2706 11.508 3.2706C12.1882 3.94511 13.094 4.2825 13.9999 4.28274C14.9058 4.2825 15.8116 3.94511 16.4919 3.2706C16.4919 3.2706 16.9025 2.86341 17.0657 2.72693C17.2195 2.59841 17.4869 2.39255 17.8475 2.34425C18.1793 2.29983 18.459 2.39581 18.6494 2.4789C18.8246 2.55529 19.022 2.66681 19.2136 2.775L21.8376 4.27825C22.0077 4.39859 22.2376 4.59017 22.3696 4.90017C22.5136 5.23861 22.4671 5.57972 22.4329 5.77702C22.3958 5.99052 22.3191 6.28446 22.2456 6.56574C21.7832 8.33537 22.9124 10.239 24.7405 10.7289L24.7727 10.7376C25.0493 10.8117 25.3084 10.8811 25.5111 10.9542C25.7008 11.0225 26.0176 11.1508 26.2409 11.4406C26.4462 11.7068 26.5005 11.9986 26.522 12.2052C26.5417 12.3956 26.5416 12.6236 26.5416 12.8452V15.1543C26.5416 15.376 26.5417 15.6038 26.522 15.7943C26.5005 16.0008 26.4462 16.2926 26.2409 16.5588C26.0176 16.8485 25.7008 16.9769 25.5112 17.0452C25.3085 17.1184 24.7406 17.2705 24.7406 17.2705C22.9133 17.7604 21.7847 19.6637 22.2473 21.4335C22.2473 21.4335 22.3977 22.0087 22.4347 22.2222C22.469 22.4195 22.5154 22.7606 22.3715 23.0991C22.2395 23.4092 22.0097 23.6007 21.8395 23.721L19.2155 25.2244C19.0239 25.3325 18.8263 25.4441 18.6513 25.5205C18.4608 25.6035 18.181 25.6996 17.8492 25.6551C17.4885 25.6068 17.2212 25.4009 17.0674 25.2723C16.9042 25.1358 16.4937 24.7287 16.4937 24.7287C15.813 24.0535 14.9065 23.7158 13.9999 23.7155C13.0933 23.7158 12.1868 24.0535 11.5062 24.7287C11.5062 24.7287 11.0957 25.1358 10.9324 25.2723C10.7787 25.4009 10.5113 25.6068 10.1506 25.6551C9.8188 25.6996 9.53904 25.6035 9.3486 25.5205C9.17356 25.4441 8.97602 25.3325 8.78448 25.2244L6.16033 23.721C5.99021 23.6007 5.76033 23.4092 5.6284 23.0991C5.48439 22.7606 5.53088 22.4195 5.56512 22.2222C5.60216 22.0087 5.75255 21.4335 5.75255 21.4335C6.21512 19.6637 5.08662 17.7604 3.25929 17.2705C3.25929 17.2705 2.69135 17.1184 2.48868 17.0452C2.29908 16.9769 1.98219 16.8485 1.75891 16.5588C1.5537 16.2926 1.49931 16.0008 1.4779 15.7943C1.45816 15.6038 1.45821 15.376 1.45826 15.1543V12.8452C1.45821 12.6236 1.45816 12.3956 1.4779 12.2052C1.49931 11.9986 1.55371 11.7068 1.75893 11.4406C1.98223 11.1508 2.29912 11.0225 2.48874 10.9542C2.69141 10.8811 2.95056 10.8117 3.22713 10.7376L3.25933 10.7289C5.08735 10.239 6.21659 8.33537 5.75431 6.56574C5.6808 6.28446 5.60398 5.99052 5.56695 5.77702C5.53273 5.57972 5.48627 5.23861 5.6303 4.90017C5.76224 4.59017 5.99211 4.39859 6.16222 4.27825L8.78624 2.775C8.97783 2.66681 9.17534 2.55529 9.35039 2.4789Z" fill="url(#paint0_linear_637_6720)"/>
<path d="M18.0834 14.0003C18.0834 16.2555 16.2552 18.0836 14.0001 18.0836C11.7449 18.0836 9.91675 16.2555 9.91675 14.0003C9.91675 11.7451 11.7449 9.91699 14.0001 9.91699C16.2552 9.91699 18.0834 11.7451 18.0834 14.0003Z" fill="url(#paint1_linear_637_6720)"/>
<defs>
<linearGradient id="paint0_linear_637_6720" x1="27.2148" y1="-2.04195" x2="-0.116078" y2="-1.63913" gradientUnits="userSpaceOnUse">
<stop stop-color="#ED5699"/>
<stop offset="1" stop-color="#FF8586"/>
</linearGradient>
<linearGradient id="paint1_linear_637_6720" x1="18.3026" y1="8.38577" x2="9.40392" y2="8.50777" gradientUnits="userSpaceOnUse">
<stop stop-color="#ED5699"/>
<stop offset="1" stop-color="#FF8586"/>
</linearGradient>
</defs>
</svg>
