<svg width="28" height="28" viewBox="0 0 28 28" fill="none" xmlns="http://www.w3.org/2000/svg">
<path opacity="0.4" d="M14 2.625C14.4832 2.625 14.875 3.01675 14.875 3.5C14.875 5.84043 16.054 8.25409 17.8999 10.1C19.7459 11.946 22.1595 13.125 24.5 13.125C24.9832 13.125 25.375 13.5168 25.375 14C25.375 14.4832 24.9832 14.875 24.5 14.875C22.1595 14.875 19.7459 16.054 17.8999 17.8999C16.054 19.7459 14.875 22.1595 14.875 24.5C14.875 24.9832 14.4832 25.375 14 25.375C13.5168 25.375 13.125 24.9832 13.125 24.5C13.125 22.1595 11.946 19.7459 10.1 17.8999C8.25409 16.054 5.84043 14.875 3.5 14.875C3.01675 14.875 2.625 14.4832 2.625 14C2.625 13.5168 3.01675 13.125 3.5 13.125C5.84043 13.125 8.25409 11.946 10.1 10.1C11.946 8.25409 13.125 5.84043 13.125 3.5C13.125 3.01675 13.5168 2.625 14 2.625Z" fill="#5A5A5A"/>
<path d="M22.4583 1.45801C22.7074 1.45801 22.9231 1.6306 22.978 1.87357L23.2512 3.08669C23.4377 3.91502 24.0847 4.56189 24.913 4.74849L26.1261 5.02175C26.3691 5.07648 26.5417 5.29228 26.5417 5.54134C26.5417 5.7904 26.3691 6.0062 26.1261 6.06093L24.913 6.3342C24.0847 6.52079 23.4377 7.16765 23.2512 7.99598L22.978 9.20911C22.9231 9.45208 22.7074 9.62467 22.4583 9.62467C22.2092 9.62467 21.9935 9.45208 21.9387 9.20911L21.6655 7.99598C21.4789 7.16765 20.832 6.52079 20.0037 6.3342L18.7906 6.06093C18.5475 6.0062 18.375 5.7904 18.375 5.54134C18.375 5.29228 18.5475 5.07648 18.7906 5.02175L20.0037 4.74849C20.832 4.56189 21.4789 3.91503 21.6655 3.08669L21.9387 1.87357C21.9935 1.6306 22.2092 1.45801 22.4583 1.45801Z" fill="#5A5A5A"/>
<path d="M5.54183 18.375C5.79089 18.375 6.00669 18.5475 6.06142 18.7906L6.33468 20.0037C6.52128 20.832 7.16814 21.4789 7.99647 21.6655L9.2096 21.9387C9.45257 21.9935 9.62516 22.2092 9.62516 22.4583C9.62516 22.7074 9.45257 22.9231 9.2096 22.978L7.99647 23.2512C7.16814 23.4377 6.52128 24.0847 6.33468 24.913L6.06142 26.1261C6.00669 26.3691 5.79089 26.5417 5.54183 26.5417C5.29277 26.5417 5.07697 26.3691 5.02224 26.1261L4.74897 24.913C4.56238 24.0847 3.91552 23.4377 3.08717 23.2512L1.87406 22.978C1.63109 22.9231 1.4585 22.7074 1.4585 22.4583C1.4585 22.2092 1.63109 21.9935 1.87406 21.9387L3.08717 21.6655C3.91552 21.4789 4.56238 20.832 4.74897 20.0037L5.02224 18.7906C5.07697 18.5475 5.29277 18.375 5.54183 18.375Z" fill="#5A5A5A"/>
</svg>
