<svg width="20" height="20" viewBox="0 0 20 20" fill="none" xmlns="http://www.w3.org/2000/svg">
<path d="M2.5 14.9843V10.5899C2.5 7.56213 2.5 6.04823 3.41529 5.10761C4.33058 4.16699 5.80372 4.16699 8.75 4.16699C11.6962 4.16699 13.1694 4.16699 14.0847 5.10761C15 6.04823 15 7.56213 15 10.5899V14.9843C15 16.9059 15 17.8667 14.3962 18.2106C13.227 18.8765 11.0337 16.6547 9.99217 15.9857C9.38808 15.5977 9.08608 15.4037 8.75 15.4037C8.41392 15.4037 8.11188 15.5977 7.50782 15.9857C6.46625 16.6547 4.27302 18.8765 3.10378 18.2106C2.5 17.8667 2.5 16.9059 2.5 14.9843Z" stroke="#EF4576" stroke-width="1.5" stroke-linecap="round" stroke-linejoin="round"/>
<path d="M7.5 1.66699H9.16667C13.095 1.66699 15.0592 1.66699 16.2796 2.88738C17.5 4.10777 17.5 6.07195 17.5 10.0003V15.0003" stroke="#EF4576" stroke-width="1.5" stroke-linecap="round" stroke-linejoin="round"/>
</svg>
