<svg width="32" height="32" viewBox="0 0 32 32" fill="none" xmlns="http://www.w3.org/2000/svg">
<path d="M3.80512 28.8233C3.50891 28.7645 3.25516 28.5749 3.11472 28.3076C2.97427 28.0403 2.96217 27.7237 3.0818 27.4464C3.64591 26.1388 3.63515 25.1167 3.62351 24.0127C3.62184 23.8539 3.62015 23.6933 3.62015 23.53C3.62015 22.8889 3.64995 22.1773 3.88419 21.4405C4.12396 20.6861 4.5574 19.9649 5.27968 19.2473C7.31365 17.2268 10.6087 17.2268 12.6426 19.2473C14.6803 21.2716 14.6803 24.5563 12.6426 26.5805C10.9151 28.2967 8.65564 28.8309 6.92885 28.9628C6.05488 29.0296 5.28459 28.9963 4.73175 28.9463C4.45447 28.9212 4.10133 28.8823 3.80512 28.8233Z" fill="white"/>
<g opacity="0.5">
<path d="M9.2508 17.7396C10.5745 16.1453 12.8253 13.7428 14.54 12.0185C17.4927 9.08511 20.4084 6.6336 22.7477 5.04355C23.9105 4.25318 24.9729 3.64662 25.8511 3.31015C26.2867 3.14326 26.7329 3.0206 27.1548 3.00231C27.5733 2.98416 28.106 3.06656 28.5179 3.47567C28.931 3.88623 29.0154 4.4198 28.997 4.83995C28.9785 5.26192 28.8542 5.70736 28.686 6.1407C28.3468 7.01447 27.7356 8.07072 26.94 9.22596C25.3392 11.5504 22.8713 14.4471 19.9187 17.3804C18.1831 19.0839 15.7681 21.3163 14.1627 22.632C14.1229 21.9016 13.9285 21.1779 13.5795 20.5137C14.7828 19.4907 16.1703 18.2261 17.4552 16.9912L14.9227 14.4752C13.6811 15.75 12.409 17.1268 11.3786 18.3221C9.41427 17.298 6.93089 17.6063 5.27913 19.2472C6.37 18.1636 7.82357 17.6608 9.2508 17.7396Z" fill="white"/>
<path d="M4.18082 28.8848C4.34401 28.9081 4.53465 28.9313 4.72034 28.945C4.55701 28.9301 4.3683 28.9105 4.18082 28.8848Z" fill="white"/>
</g>
</svg>
