<svg width="16" height="16" viewBox="0 0 16 16" fill="none" xmlns="http://www.w3.org/2000/svg">
<path d="M9.38214 2.58997C9.87894 2.05173 10.1273 1.78261 10.3913 1.62563C11.0281 1.24685 11.8124 1.23507 12.4599 1.59455C12.7283 1.74354 12.9843 2.00509 13.4963 2.52818C14.0084 3.05127 14.2645 3.31282 14.4103 3.58696C14.7622 4.24842 14.7507 5.04953 14.3799 5.70014C14.2262 5.96978 13.9627 6.22353 13.4359 6.73101L7.16674 12.7692C6.16826 13.7309 5.66901 14.2118 5.04505 14.4555C4.42109 14.6992 3.73514 14.6813 2.36325 14.6454L2.1766 14.6405C1.75895 14.6296 1.55012 14.6241 1.42874 14.4863C1.30734 14.3486 1.32392 14.1359 1.35706 13.7105L1.37506 13.4795C1.46835 12.282 1.51499 11.6833 1.74882 11.1451C1.98264 10.6069 2.38597 10.17 3.19263 9.29601L9.38214 2.58997Z" stroke="#EF4576" stroke-width="1.5" stroke-linejoin="round"/>
<path d="M8.66699 2.66699L13.3337 7.33366" stroke="#EF4576" stroke-width="1.5" stroke-linejoin="round"/>
<path d="M9.33301 14.667H14.6663" stroke="#EF4576" stroke-width="1.5" stroke-linecap="round" stroke-linejoin="round"/>
</svg>
