<svg width="20" height="20" viewBox="0 0 20 20" fill="none" xmlns="http://www.w3.org/2000/svg">
<path d="M7.61951 8.90915L7.79194 8.73674C9.44085 7.08775 12.1144 7.08775 13.7633 8.73674C15.4123 10.3857 15.4123 13.0592 13.7633 14.7081L11.3748 17.0966C9.72585 18.7456 7.05234 18.7456 5.40339 17.0966C3.75445 15.4477 3.75445 12.7742 5.40339 11.1252L5.79035 10.7383" stroke="#F98FB3" stroke-width="1.25" stroke-linecap="round"/>
<path opacity="0.4" d="M14.2097 9.2615L14.5966 8.87459C16.2456 7.22563 16.2456 4.55216 14.5966 2.90321C12.9477 1.25427 10.2742 1.25427 8.62525 2.90321L6.23671 5.29176C4.58776 6.9407 4.58776 9.61417 6.23671 11.2631C7.88566 12.9121 10.5592 12.9121 12.2081 11.2631L12.3805 11.0907" stroke="#F98FB3" stroke-width="1.25" stroke-linecap="round"/>
</svg>
