<svg width="20" height="20" viewBox="0 0 20 20" fill="none" xmlns="http://www.w3.org/2000/svg">
<path fill-rule="evenodd" clip-rule="evenodd" d="M16.6149 4.71067C16.775 5.14216 16.555 5.62174 16.1235 5.78184C15.2411 6.10923 14.273 6.79067 13.293 7.69104C12.3224 8.58283 11.387 9.64533 10.5664 10.6759C9.74738 11.7044 9.05279 12.6882 8.56279 13.4154C8.31809 13.7786 8.12511 14.0767 7.99388 14.2832C7.92828 14.3863 7.87816 14.4665 7.84478 14.5203L7.80742 14.5808L7.79845 14.5955L7.79645 14.5988C7.63909 14.8582 7.35278 15.0122 7.04963 14.9998C6.74643 14.9875 6.47393 14.8113 6.33822 14.5399C5.77378 13.411 5.13283 12.7846 4.66634 12.4453C4.4311 12.2742 4.23523 12.1726 4.10841 12.1162C4.04492 12.088 3.99868 12.0712 3.97343 12.0626C3.96278 12.0589 3.95588 12.0568 3.95302 12.056C3.51354 11.9394 3.24782 11.491 3.35845 11.0484C3.47007 10.6019 3.92253 10.3305 4.36902 10.4421C4.38963 10.4475 4.37002 10.4423 4.37002 10.4423L4.37105 10.4426L4.37323 10.4432L4.37808 10.4444L4.38963 10.4475C4.39815 10.4498 4.4083 10.4527 4.42001 10.4561C4.44343 10.4629 4.4731 10.4722 4.50849 10.4841C4.57927 10.5081 4.673 10.5433 4.7853 10.5932C5.01003 10.6931 5.30897 10.8518 5.64663 11.0974C6.09893 11.4264 6.61243 11.9051 7.10748 12.593C7.13135 12.5573 7.15573 12.5211 7.18063 12.4841C7.68785 11.7313 8.40879 10.7099 9.26254 9.63766C10.1147 8.56758 11.1095 7.43389 12.1655 6.46372C13.2121 5.5021 14.3672 4.65577 15.5437 4.21926C15.9752 4.05917 16.4548 4.27918 16.6149 4.71067Z" fill="#CC3366"/>
</svg>
