<svg width="60" height="40" viewBox="0 0 60 40" fill="none" xmlns="http://www.w3.org/2000/svg">
<rect width="60" height="40" rx="6" fill="white"/>
<rect x="0.5" y="0.5" width="59" height="39" rx="5.5" stroke="#E5E7EB"/>
<path d="M28.0173 26.0851H24.6173L26.7427 13.9551H30.1428L28.0173 26.0851Z" fill="#1434CB"/>
<path d="M40.4707 14.2552C39.8347 14.0078 38.8307 13.7402 37.6 13.7402C34.4293 13.7402 32.1947 15.4252 32.1813 17.8302C32.1573 19.6027 33.7787 20.5879 34.992 21.1814C36.232 21.7882 36.6587 22.1816 36.6587 22.7218C36.6453 23.5511 35.6547 23.9311 34.7307 23.9311C33.4493 23.9311 32.768 23.7368 31.7253 23.2901L31.3107 23.0958L30.8693 25.8615C31.6253 26.2014 33.0133 26.5014 34.4547 26.5147C37.824 26.5147 40.0187 24.8564 40.0453 22.2914C40.0573 20.8866 39.1467 19.8147 37.1907 18.9319C36.0093 18.3651 35.2747 17.9852 35.2747 17.4051C35.2867 16.8783 35.8587 16.3382 37.1373 16.3382C38.1947 16.3115 38.9787 16.5589 39.572 16.8062L39.8627 16.9338L40.4707 14.2552Z" fill="#1434CB"/>
<path d="M44.9893 21.7878C45.2667 21.0518 46.328 18.2061 46.328 18.2061C46.3147 18.2329 46.6053 17.4569 46.7787 16.9837L47.024 18.0823C47.024 18.0823 47.6587 21.1339 47.792 21.7878C47.2533 21.7878 45.6587 21.7878 44.9893 21.7878ZM49.1547 13.9551H46.5253C45.7173 13.9551 45.1093 14.1893 44.7613 15.0186L39.7333 26.085H43.1027C43.1027 26.085 43.6613 24.5872 43.7813 24.2741C44.1547 24.2741 47.4453 24.2741 47.9333 24.2741C48.024 24.6939 48.3147 26.085 48.3147 26.085H51.2933L49.1547 13.9551Z" fill="#1434CB"/>
<path d="M21.7773 13.9551L18.4453 22.2113L18.0853 20.4521C17.4773 18.4233 15.5747 16.2178 13.4453 15.1192L16.4933 26.0717H19.8907L24.9467 13.9551H21.7773Z" fill="#1434CB"/>
<path d="M15.3147 13.9551H10.1413L10.0933 14.1893C14.1413 15.1879 16.8267 17.6195 17.9227 20.4524L16.7973 15.0319C16.6107 14.2159 16.0147 13.9818 15.3147 13.9551Z" fill="#F7B600"/>
</svg>
