<svg width="32" height="32" viewBox="0 0 32 32" fill="none" xmlns="http://www.w3.org/2000/svg">
<path d="M21.3564 3.10019C22.0562 3.20464 22.818 3.45732 23.2548 4.21384C23.6904 4.9685 23.5312 5.7549 23.275 6.41515C23.0286 7.05054 22.5917 7.81911 22.0828 8.7142L20.6147 11.2967C20.3372 11.7851 20.1583 12.101 20.0446 12.3432C19.9592 12.5249 19.9434 12.5993 19.9409 12.6117C19.9453 12.7598 20.0234 12.8934 20.1452 12.9688C20.1584 12.973 20.2305 12.9953 20.424 13.0104C20.6889 13.0311 21.0909 13.0319 21.6506 13.0319C22.3024 13.0319 22.8491 13.0318 23.2757 13.0645C23.688 13.0961 24.1737 13.1662 24.5807 13.4368C25.3712 13.9621 25.7822 14.8999 25.6381 15.8364C25.5638 16.3181 25.2905 16.7245 25.0364 17.0524C24.7737 17.3913 24.4061 17.7979 23.9676 18.2828L16.512 26.5269C15.8281 27.2833 15.2524 27.92 14.784 28.3284C14.5458 28.536 14.2644 28.7495 13.9505 28.8768C13.6046 29.0172 13.1483 29.0768 12.6951 28.8407C12.243 28.6051 12.0305 28.1981 11.946 27.8365C11.869 27.5072 11.8801 27.1545 11.9116 26.8395C11.9736 26.2197 12.1593 25.38 12.38 24.3819L13.311 20.1703C13.4957 19.3349 13.6084 18.8137 13.6372 18.4323C13.6768 18.1179 13.4025 17.9829 13.2604 17.9549C12.885 17.9005 12.3558 17.8981 11.504 17.8981H10.816C9.8921 17.8981 9.08788 17.8983 8.46644 17.8057C7.809 17.7077 7.10519 17.4725 6.66319 16.7888C6.22224 16.1068 6.29427 15.3683 6.47152 14.7272C6.63948 14.1199 6.9658 13.3819 7.34138 12.5326L9.80839 6.95264C10.1558 6.16678 10.448 5.50595 10.7459 4.98856C11.0617 4.44023 11.4265 3.97395 11.9596 3.62575C12.4929 3.27731 13.066 3.13114 13.6941 3.0636C14.2861 2.99996 15.0061 2.99998 15.8612 3H18.7781C19.8029 2.99994 20.6844 2.99988 21.3564 3.10019Z" fill="white"/>
</svg>
