<svg width="93" height="94" viewBox="0 0 93 94" fill="none" xmlns="http://www.w3.org/2000/svg">
<g filter="url(#filter0_d_188_4318)">
<path d="M15 30.8C15 23.8693 15 20.404 16.3488 17.7569C17.5352 15.4284 19.4284 13.5352 21.7569 12.3488C24.404 11 27.8693 11 34.8 11H58.2C65.1306 11 68.596 11 71.2431 12.3488C73.5716 13.5352 75.4648 15.4284 76.6512 17.7569C78 20.404 78 23.8693 78 30.8V54.2C78 61.1306 78 64.596 76.6512 67.2431C75.4648 69.5716 73.5716 71.4648 71.2431 72.6512C68.596 74 65.1306 74 58.2 74H34.8C27.8693 74 24.404 74 21.7569 72.6512C19.4284 71.4648 17.5352 69.5716 16.3488 67.2431C15 64.596 15 61.1306 15 54.2V30.8Z" fill="url(#paint0_linear_188_4318)" shape-rendering="crispEdges"/>
<path d="M58.2002 9.6875C61.6437 9.6875 64.3052 9.68639 66.4346 9.86035C68.5793 10.0356 70.2994 10.3953 71.8389 11.1797C74.4143 12.4919 76.508 14.5857 77.8203 17.1611C78.6047 18.7006 78.9644 20.4207 79.1396 22.5654C79.3136 24.6948 79.3125 27.3563 79.3125 30.7998V54.2002C79.3125 57.6437 79.3136 60.3052 79.1396 62.4346C78.9644 64.5793 78.6047 66.2994 77.8203 67.8389C76.508 70.4143 74.4143 72.508 71.8389 73.8203C70.2994 74.6047 68.5793 74.9644 66.4346 75.1396C64.3052 75.3136 61.6437 75.3125 58.2002 75.3125H34.7998C31.3563 75.3125 28.6948 75.3136 26.5654 75.1396C24.4207 74.9644 22.7006 74.6047 21.1611 73.8203C18.5857 72.508 16.4919 70.4143 15.1797 67.8389C14.3953 66.2994 14.0356 64.5793 13.8604 62.4346C13.6864 60.3052 13.6875 57.6437 13.6875 54.2002V30.7998C13.6875 27.3563 13.6864 24.6948 13.8604 22.5654C14.0356 20.4207 14.3953 18.7006 15.1797 17.1611C16.4919 14.5857 18.5857 12.4919 21.1611 11.1797C22.7006 10.3953 24.4207 10.0356 26.5654 9.86035C28.6948 9.68639 31.3563 9.6875 34.7998 9.6875H58.2002Z" stroke="white" stroke-opacity="0.64" stroke-width="2.625" shape-rendering="crispEdges"/>
<path d="M31.582 48.4669C31.5829 49.2579 31.8975 50.0163 32.4568 50.5757C33.0161 51.135 33.7745 51.4496 34.5656 51.4504H42.8871L42.6385 53.4395H39.5381C39.2743 53.4395 39.0214 53.5442 38.8349 53.7307C38.6484 53.9172 38.5436 54.1702 38.5436 54.434C38.5436 54.6977 38.6484 54.9507 38.8349 55.1372C39.0214 55.3237 39.2743 55.4285 39.5381 55.4285H53.4612C53.7249 55.4285 53.9779 55.3237 54.1644 55.1372C54.3509 54.9507 54.4557 54.6977 54.4557 54.434C54.4557 54.1702 54.3509 53.9172 54.1644 53.7307C53.9779 53.5442 53.7249 53.4395 53.4612 53.4395H50.3608L50.1122 51.4504H58.4337C59.2247 51.4496 59.9831 51.135 60.5425 50.5757C61.1018 50.0163 61.4164 49.2579 61.4172 48.4669V45.4834H31.582V48.4669ZM46.4996 47.4724C46.6963 47.4724 46.8886 47.5307 47.0522 47.64C47.2157 47.7493 47.3432 47.9046 47.4184 48.0863C47.4937 48.2681 47.5134 48.468 47.475 48.6609C47.4367 48.8539 47.3419 49.0311 47.2029 49.1701C47.0638 49.3092 46.8866 49.4039 46.6937 49.4423C46.5007 49.4807 46.3008 49.461 46.1191 49.3857C45.9373 49.3105 45.782 49.183 45.6727 49.0194C45.5635 48.8559 45.5051 48.6636 45.5051 48.4669C45.5051 48.2032 45.6099 47.9502 45.7964 47.7637C45.9829 47.5772 46.2359 47.4724 46.4996 47.4724V47.4724Z" stroke="url(#paint1_linear_188_4318)"/>
<path d="M61.4172 32.5543C61.4164 31.7633 61.1018 31.0049 60.5425 30.4456C59.9831 29.8862 59.2247 29.5716 58.4337 29.5708H34.5656C33.7745 29.5716 33.0161 29.8862 32.4568 30.4456C31.8975 31.0049 31.5829 31.7633 31.582 32.5543V44.4884H61.4172V32.5543Z" stroke="url(#paint2_linear_188_4318)"/>
</g>
<defs>
<filter id="filter0_d_188_4318" x="9.53674e-07" y="-2.7625" width="93" height="95.8875" filterUnits="userSpaceOnUse" color-interpolation-filters="sRGB">
<feFlood flood-opacity="0" result="BackgroundImageFix"/>
<feColorMatrix in="SourceAlpha" type="matrix" values="0 0 0 0 0 0 0 0 0 0 0 0 0 0 0 0 0 0 127 0" result="hardAlpha"/>
<feOffset dy="4.125"/>
<feGaussianBlur stdDeviation="6.1875"/>
<feComposite in2="hardAlpha" operator="out"/>
<feColorMatrix type="matrix" values="0 0 0 0 0 0 0 0 0 0 0 0 0 0 0 0 0 0 0.05 0"/>
<feBlend mode="normal" in2="BackgroundImageFix" result="effect1_dropShadow_188_4318"/>
<feBlend mode="normal" in="SourceGraphic" in2="effect1_dropShadow_188_4318" result="shape"/>
</filter>
<linearGradient id="paint0_linear_188_4318" x1="26.7023" y1="5.09375" x2="63.9447" y2="79.3365" gradientUnits="userSpaceOnUse">
<stop stop-color="white"/>
<stop offset="1" stop-color="#FFEFF5"/>
</linearGradient>
<linearGradient id="paint1_linear_188_4318" x1="62.218" y1="43.6187" x2="29.7573" y2="44.9539" gradientUnits="userSpaceOnUse">
<stop stop-color="#ED5699"/>
<stop offset="1" stop-color="#FF8586"/>
</linearGradient>
<linearGradient id="paint2_linear_188_4318" x1="62.218" y1="26.7738" x2="29.7268" y2="27.6647" gradientUnits="userSpaceOnUse">
<stop stop-color="#ED5699"/>
<stop offset="1" stop-color="#FF8586"/>
</linearGradient>
</defs>
</svg>
