<svg width="93" height="94" viewBox="0 0 93 94" fill="none" xmlns="http://www.w3.org/2000/svg">
<g filter="url(#filter0_d_144_4918)">
<rect x="15" y="11.3647" width="63" height="63" rx="12.375" fill="url(#paint0_linear_144_4918)" shape-rendering="crispEdges"/>
<rect x="13.6875" y="10.0522" width="65.625" height="65.625" rx="13.6875" stroke="white" stroke-opacity="0.64" stroke-width="2.625" shape-rendering="crispEdges"/>
<path d="M51.0843 36.9494C44.8522 32.9237 38.4022 35.8136 32.4428 29.5038C31.0547 28.0315 31.8609 46.0146 39.3206 52.8292C44.7744 57.807 53.1953 57.2517 56.0347 52.4142C58.8742 47.5766 57.3163 40.9744 51.0843 36.9494Z" stroke="url(#paint1_linear_144_4918)" stroke-width="2" stroke-linecap="round" stroke-linejoin="round"/>
<path d="M40.6455 42.6704C46.6749 48.3493 52.9147 51.7145 61.1175 52.9765" stroke="url(#paint2_linear_144_4918)" stroke-width="2" stroke-linecap="round" stroke-linejoin="round"/>
</g>
<defs>
<filter id="filter0_d_144_4918" x="9.53674e-07" y="-2.39775" width="93" height="95.8875" filterUnits="userSpaceOnUse" color-interpolation-filters="sRGB">
<feFlood flood-opacity="0" result="BackgroundImageFix"/>
<feColorMatrix in="SourceAlpha" type="matrix" values="0 0 0 0 0 0 0 0 0 0 0 0 0 0 0 0 0 0 127 0" result="hardAlpha"/>
<feOffset dy="4.125"/>
<feGaussianBlur stdDeviation="6.1875"/>
<feComposite in2="hardAlpha" operator="out"/>
<feColorMatrix type="matrix" values="0 0 0 0 0 0 0 0 0 0 0 0 0 0 0 0 0 0 0.05 0"/>
<feBlend mode="normal" in2="BackgroundImageFix" result="effect1_dropShadow_144_4918"/>
<feBlend mode="normal" in="SourceGraphic" in2="effect1_dropShadow_144_4918" result="shape"/>
</filter>
<linearGradient id="paint0_linear_144_4918" x1="26.7023" y1="5.4585" x2="63.9447" y2="79.7012" gradientUnits="userSpaceOnUse">
<stop stop-color="white"/>
<stop offset="1" stop-color="#FFEFF5"/>
</linearGradient>
<linearGradient id="paint1_linear_144_4918" x1="58.0855" y1="24.3761" x2="30.2799" y2="24.7378" gradientUnits="userSpaceOnUse">
<stop stop-color="#ED5699"/>
<stop offset="1" stop-color="#FF8586"/>
</linearGradient>
<linearGradient id="paint2_linear_144_4918" x1="61.6669" y1="40.738" x2="39.3723" y2="41.3452" gradientUnits="userSpaceOnUse">
<stop stop-color="#ED5699"/>
<stop offset="1" stop-color="#FF8586"/>
</linearGradient>
</defs>
</svg>
