<svg width="93" height="94" viewBox="0 0 93 94" fill="none" xmlns="http://www.w3.org/2000/svg">
<g filter="url(#filter0_d_144_3855)">
<rect x="15" y="11.3652" width="63" height="63" rx="12.375" fill="url(#paint0_linear_144_3855)" shape-rendering="crispEdges"/>
<rect x="13.6875" y="10.0527" width="65.625" height="65.625" rx="13.6875" stroke="white" stroke-opacity="0.64" stroke-width="2.625" shape-rendering="crispEdges"/>
<path d="M57.4907 42.1749H55.5625C55.5255 42.1749 55.4901 42.1602 55.4639 42.1341C55.4378 42.1079 55.4231 42.0725 55.4231 42.0355V36.651C55.4231 35.9325 55.1377 35.2435 54.6296 34.7354C54.1216 34.2274 53.4326 33.942 52.7141 33.942H47.3296C47.2926 33.942 47.2571 33.9273 47.231 33.9012C47.2048 33.875 47.1901 33.8395 47.1901 33.8026V31.8743C47.1901 29.9824 45.6913 28.3985 43.7994 28.3658C43.341 28.3577 42.8856 28.441 42.4597 28.6109C42.0339 28.7807 41.6461 29.0336 41.3191 29.3549C40.992 29.6762 40.7322 30.0594 40.5548 30.4821C40.3774 30.9049 40.286 31.3587 40.2859 31.8172V33.8026C40.2859 33.8395 40.2712 33.875 40.2451 33.9012C40.2189 33.9273 40.1835 33.942 40.1465 33.942H34.762C34.0301 33.9442 33.3289 34.2359 32.8114 34.7534C32.2939 35.2709 32.0022 35.9721 32 36.704V41.6103C32 41.6472 32.0147 41.6827 32.0408 41.7088C32.067 41.735 32.1024 41.7497 32.1394 41.7497H34.0154C36.0628 41.7497 37.7575 43.5259 37.7861 45.5734C37.8153 47.6556 36.1471 49.5574 34.0711 49.5574H32.1394C32.1024 49.5574 32.067 49.5721 32.0408 49.5982C32.0147 49.6244 32 49.6598 32 49.6968V54.6031C32.0022 55.3349 32.2939 56.0362 32.8114 56.5537C33.3289 57.0712 34.0301 57.3629 34.762 57.3651H39.6683C39.7052 57.3651 39.7407 57.3504 39.7669 57.3242C39.793 57.2981 39.8077 57.2626 39.8077 57.2256V55.7666C39.8077 53.6557 41.5331 51.8383 43.6418 51.7888C45.7401 51.74 47.6154 53.2047 47.6154 55.2939V57.2256C47.6154 57.2626 47.6301 57.2981 47.6562 57.3242C47.6824 57.3504 47.7178 57.3651 47.7548 57.3651H52.7141C53.4326 57.3651 54.1216 57.0797 54.6296 56.5716C55.1377 56.0636 55.4231 55.3745 55.4231 54.6561V49.2186C55.4231 49.1816 55.4378 49.1461 55.4639 49.12C55.4901 49.0938 55.5255 49.0792 55.5625 49.0792H57.5479C59.474 49.0792 61 47.4988 61 45.5657C61 43.6326 59.3827 42.1749 57.4907 42.1749Z" stroke="url(#paint1_linear_144_3855)" stroke-width="2" stroke-linecap="round" stroke-linejoin="round"/>
</g>
<defs>
<filter id="filter0_d_144_3855" x="9.53674e-07" y="-2.39726" width="93" height="95.8875" filterUnits="userSpaceOnUse" color-interpolation-filters="sRGB">
<feFlood flood-opacity="0" result="BackgroundImageFix"/>
<feColorMatrix in="SourceAlpha" type="matrix" values="0 0 0 0 0 0 0 0 0 0 0 0 0 0 0 0 0 0 127 0" result="hardAlpha"/>
<feOffset dy="4.125"/>
<feGaussianBlur stdDeviation="6.1875"/>
<feComposite in2="hardAlpha" operator="out"/>
<feColorMatrix type="matrix" values="0 0 0 0 0 0 0 0 0 0 0 0 0 0 0 0 0 0 0.05 0"/>
<feBlend mode="normal" in2="BackgroundImageFix" result="effect1_dropShadow_144_3855"/>
<feBlend mode="normal" in="SourceGraphic" in2="effect1_dropShadow_144_3855" result="shape"/>
</filter>
<linearGradient id="paint0_linear_144_3855" x1="26.7023" y1="5.45898" x2="63.9447" y2="79.7017" gradientUnits="userSpaceOnUse">
<stop stop-color="white"/>
<stop offset="1" stop-color="#FFEFF5"/>
</linearGradient>
<linearGradient id="paint1_linear_144_3855" x1="61.7783" y1="22.9278" x2="30.1789" y2="23.3611" gradientUnits="userSpaceOnUse">
<stop stop-color="#ED5699"/>
<stop offset="1" stop-color="#FF8586"/>
</linearGradient>
</defs>
</svg>
