<svg width="103" height="99" viewBox="0 0 103 99" fill="none" xmlns="http://www.w3.org/2000/svg">
<g filter="url(#filter0_d_188_4143)">
<path d="M20 34.5647C20 27.8441 20 24.4838 21.3079 21.9169C22.4584 19.6589 24.2942 17.8231 26.5521 16.6727C29.1191 15.3647 32.4794 15.3647 39.2 15.3647H63.8C70.5206 15.3647 73.8809 15.3647 76.4479 16.6727C78.7058 17.8231 80.5416 19.6589 81.6921 21.9169C83 24.4838 83 27.8441 83 34.5647V59.1647C83 65.8854 83 69.2457 81.6921 71.8126C80.5416 74.0706 78.7058 75.9063 76.4479 77.0568C73.8809 78.3647 70.5206 78.3647 63.8 78.3647H39.2C32.4794 78.3647 29.1191 78.3647 26.5521 77.0568C24.2942 75.9063 22.4584 74.0706 21.3079 71.8126C20 69.2457 20 65.8854 20 59.1647V34.5647Z" fill="url(#paint0_linear_188_4143)"/>
<path d="M63.7998 12.3647C67.1106 12.3647 69.7743 12.3628 71.9258 12.5386C74.1122 12.7172 76.0328 13.0943 77.8096 13.9995C80.632 15.4376 82.9271 17.7327 84.3652 20.5552C85.2705 22.332 85.6475 24.2525 85.8262 26.439C86.002 28.5905 86 31.2542 86 34.5649V59.1646C86 62.4753 86.002 65.139 85.8262 67.2905C85.6475 69.477 85.2705 71.3975 84.3652 73.1743C82.9271 75.9967 80.632 78.2919 77.8096 79.73C76.0328 80.6352 74.1122 81.0123 71.9258 81.1909C69.7743 81.3667 67.1106 81.3647 63.7998 81.3647H39.2002C35.8894 81.3647 33.2257 81.3667 31.0742 81.1909C28.8878 81.0123 26.9672 80.6352 25.1904 79.73C22.368 78.2919 20.0729 75.9967 18.6348 73.1743C17.7295 71.3975 17.3525 69.477 17.1738 67.2905C16.998 65.139 17 62.4753 17 59.1646V34.5649C17 31.2542 16.998 28.5905 17.1738 26.439C17.3525 24.2525 17.7295 22.332 18.6348 20.5552C20.0729 17.7327 22.368 15.4376 25.1904 13.9995C26.9672 13.0943 28.8878 12.7172 31.0742 12.5386C33.2257 12.3628 35.8894 12.3647 39.2002 12.3647H63.7998Z" stroke="url(#paint1_linear_188_4143)" stroke-opacity="0.3" stroke-width="6"/>
<path d="M62.4907 46.1744H60.5625C60.5255 46.1744 60.4901 46.1597 60.4639 46.1336C60.4378 46.1075 60.4231 46.072 60.4231 46.035V40.6505C60.4231 39.932 60.1377 39.243 59.6296 38.735C59.1216 38.2269 58.4326 37.9415 57.7141 37.9415H52.3296C52.2926 37.9415 52.2571 37.9268 52.231 37.9007C52.2048 37.8745 52.1901 37.8391 52.1901 37.8021V35.8739C52.1901 33.9819 50.6913 32.398 48.7994 32.3653C48.341 32.3572 47.8856 32.4405 47.4597 32.6104C47.0339 32.7802 46.6461 33.0331 46.3191 33.3544C45.992 33.6757 45.7322 34.0589 45.5548 34.4816C45.3774 34.9044 45.286 35.3582 45.2859 35.8167V37.8021C45.2859 37.8391 45.2712 37.8745 45.2451 37.9007C45.2189 37.9268 45.1835 37.9415 45.1465 37.9415H39.762C39.0301 37.9437 38.3289 38.2354 37.8114 38.7529C37.2939 39.2704 37.0022 39.9716 37 40.7035V45.6098C37 45.6468 37.0147 45.6822 37.0408 45.7084C37.067 45.7345 37.1024 45.7492 37.1394 45.7492H39.0154C41.0628 45.7492 42.7575 47.5254 42.7861 49.5729C42.8153 51.6552 41.1471 53.5569 39.0711 53.5569H37.1394C37.1024 53.5569 37.067 53.5716 37.0408 53.5977C37.0147 53.6239 37 53.6593 37 53.6963V58.6026C37.0022 59.3345 37.2939 60.0357 37.8114 60.5532C38.3289 61.0707 39.0301 61.3624 39.762 61.3646H44.6683C44.7052 61.3646 44.7407 61.3499 44.7669 61.3237C44.793 61.2976 44.8077 61.2621 44.8077 61.2252V59.7661C44.8077 57.6552 46.5331 55.8379 48.6418 55.7884C50.7401 55.7396 52.6154 57.2042 52.6154 59.2935V61.2252C52.6154 61.2621 52.6301 61.2976 52.6562 61.3237C52.6824 61.3499 52.7178 61.3646 52.7548 61.3646H57.7141C58.4326 61.3646 59.1216 61.0792 59.6296 60.5711C60.1377 60.0631 60.4231 59.3741 60.4231 58.6556V53.2181C60.4231 53.1811 60.4378 53.1457 60.4639 53.1195C60.4901 53.0934 60.5255 53.0787 60.5625 53.0787H62.5479C64.474 53.0787 66 51.4983 66 49.5652C66 47.6321 64.3827 46.1744 62.4907 46.1744Z" fill="white" stroke="white" stroke-width="2" stroke-linecap="round" stroke-linejoin="round"/>
</g>
<defs>
<filter id="filter0_d_188_4143" x="-9.53674e-07" y="-1.43526" width="103" height="104.8" filterUnits="userSpaceOnUse" color-interpolation-filters="sRGB">
<feFlood flood-opacity="0" result="BackgroundImageFix"/>
<feColorMatrix in="SourceAlpha" type="matrix" values="0 0 0 0 0 0 0 0 0 0 0 0 0 0 0 0 0 0 127 0" result="hardAlpha"/>
<feOffset dy="5"/>
<feGaussianBlur stdDeviation="7"/>
<feColorMatrix type="matrix" values="0 0 0 0 0.825 0 0 0 0 0.11 0 0 0 0 0.326543 0 0 0 0.1 0"/>
<feBlend mode="normal" in2="BackgroundImageFix" result="effect1_dropShadow_188_4143"/>
<feBlend mode="normal" in="SourceGraphic" in2="effect1_dropShadow_188_4143" result="shape"/>
</filter>
<linearGradient id="paint0_linear_188_4143" x1="117.312" y1="-13.8852" x2="24.8535" y2="-21.1306" gradientUnits="userSpaceOnUse">
<stop stop-color="#ED5699"/>
<stop offset="1" stop-color="#FF8586"/>
</linearGradient>
<linearGradient id="paint1_linear_188_4143" x1="84.6909" y1="3.55237" x2="16.0439" y2="4.49355" gradientUnits="userSpaceOnUse">
<stop stop-color="#ED5699"/>
<stop offset="1" stop-color="#FF8586"/>
</linearGradient>
</defs>
</svg>
