<svg width="103" height="98" viewBox="0 0 103 98" fill="none" xmlns="http://www.w3.org/2000/svg">
<g filter="url(#filter0_d_189_4052)">
<path d="M20 34.2C20 27.4794 20 24.1191 21.3079 21.5521C22.4584 19.2942 24.2942 17.4584 26.5521 16.3079C29.1191 15 32.4794 15 39.2 15H63.8C70.5206 15 73.8809 15 76.4479 16.3079C78.7058 17.4584 80.5416 19.2942 81.6921 21.5521C83 24.1191 83 27.4794 83 34.2V58.8C83 65.5206 83 68.8809 81.6921 71.4479C80.5416 73.7058 78.7058 75.5416 76.4479 76.6921C73.8809 78 70.5206 78 63.8 78H39.2C32.4794 78 29.1191 78 26.5521 76.6921C24.2942 75.5416 22.4584 73.7058 21.3079 71.4479C20 68.8809 20 65.5206 20 58.8V34.2Z" fill="url(#paint0_linear_189_4052)"/>
<path d="M63.7998 12C67.1106 12 69.7743 11.998 71.9258 12.1738C74.1122 12.3525 76.0328 12.7295 77.8096 13.6348C80.632 15.0729 82.9271 17.368 84.3652 20.1904C85.2705 21.9672 85.6475 23.8878 85.8262 26.0742C86.002 28.2257 86 30.8894 86 34.2002V58.7998C86 62.1106 86.002 64.7743 85.8262 66.9258C85.6475 69.1122 85.2705 71.0328 84.3652 72.8096C82.9271 75.632 80.632 77.9271 77.8096 79.3652C76.0328 80.2705 74.1122 80.6475 71.9258 80.8262C69.7743 81.002 67.1106 81 63.7998 81H39.2002C35.8894 81 33.2257 81.002 31.0742 80.8262C28.8878 80.6475 26.9672 80.2705 25.1904 79.3652C22.368 77.9271 20.0729 75.632 18.6348 72.8096C17.7295 71.0328 17.3525 69.1122 17.1738 66.9258C16.998 64.7743 17 62.1106 17 58.7998V34.2002C17 30.8894 16.998 28.2257 17.1738 26.0742C17.3525 23.8878 17.7295 21.9672 18.6348 20.1904C20.0729 17.368 22.368 15.0729 25.1904 13.6348C26.9672 12.7295 28.8878 12.3525 31.0742 12.1738C33.2257 11.998 35.8894 12 39.2002 12H63.7998Z" stroke="url(#paint1_linear_189_4052)" stroke-opacity="0.3" stroke-width="6"/>
<path d="M51.767 46.9702L48.7917 39.2352C48.7471 39.1191 48.6683 39.0193 48.5658 38.9489C48.4632 38.8785 48.3418 38.8408 48.2174 38.8408C48.0931 38.8408 47.9716 38.8785 47.8691 38.9489C47.7666 39.0193 47.6878 39.1191 47.6432 39.2352L44.6679 46.9702C44.637 47.0505 44.5895 47.1235 44.5286 47.1844C44.4678 47.2453 44.3948 47.2927 44.3144 47.3236L36.5795 50.2989C36.4634 50.3436 36.3636 50.4223 36.2932 50.5249C36.2227 50.6274 36.1851 50.7488 36.1851 50.8732C36.1851 50.9976 36.2227 51.119 36.2932 51.2215C36.3636 51.324 36.4634 51.4028 36.5795 51.4475L44.3144 54.4228C44.3948 54.4537 44.4678 54.5011 44.5286 54.562C44.5895 54.6229 44.637 54.6959 44.6679 54.7762L47.6432 62.5112C47.6878 62.6272 47.7666 62.7271 47.8691 62.7975C47.9716 62.8679 48.0931 62.9056 48.2174 62.9056C48.3418 62.9056 48.4632 62.8679 48.5658 62.7975C48.6683 62.7271 48.7471 62.6272 48.7917 62.5112L51.767 54.7762C51.7979 54.6959 51.8453 54.6229 51.9062 54.562C51.9671 54.5011 52.0401 54.4537 52.1205 54.4228L59.8554 51.4475C59.9715 51.4028 60.0713 51.324 60.1417 51.2215C60.2121 51.119 60.2498 50.9976 60.2498 50.8732C60.2498 50.7488 60.2121 50.6274 60.1417 50.5249C60.0713 50.4223 59.9715 50.3436 59.8554 50.2989L52.1205 47.3236C52.0401 47.2927 51.9671 47.2453 51.9062 47.1844C51.8453 47.1235 51.7979 47.0505 51.767 46.9702Z" fill="white"/>
<path d="M41.3824 33.6473L40.0149 30.0918L38.6473 33.6473L35.0918 35.0149L38.6473 36.3824L40.0149 39.9379L41.3824 36.3824L44.9379 35.0149L41.3824 33.6473Z" fill="white"/>
<path d="M63.1645 37.0196L61.3409 32.2791L59.5174 37.0196L54.7769 38.8431L59.5174 40.6667L61.3409 45.4072L63.1645 40.6667L67.905 38.8431L63.1645 37.0196Z" fill="white"/>
</g>
<defs>
<filter id="filter0_d_189_4052" x="-9.53674e-07" y="-1.8" width="103" height="104.8" filterUnits="userSpaceOnUse" color-interpolation-filters="sRGB">
<feFlood flood-opacity="0" result="BackgroundImageFix"/>
<feColorMatrix in="SourceAlpha" type="matrix" values="0 0 0 0 0 0 0 0 0 0 0 0 0 0 0 0 0 0 127 0" result="hardAlpha"/>
<feOffset dy="5"/>
<feGaussianBlur stdDeviation="7"/>
<feColorMatrix type="matrix" values="0 0 0 0 0.825 0 0 0 0 0.11 0 0 0 0 0.326543 0 0 0 0.1 0"/>
<feBlend mode="normal" in2="BackgroundImageFix" result="effect1_dropShadow_189_4052"/>
<feBlend mode="normal" in="SourceGraphic" in2="effect1_dropShadow_189_4052" result="shape"/>
</filter>
<linearGradient id="paint0_linear_189_4052" x1="117.312" y1="-14.2499" x2="24.8535" y2="-21.4953" gradientUnits="userSpaceOnUse">
<stop stop-color="#ED5699"/>
<stop offset="1" stop-color="#FF8586"/>
</linearGradient>
<linearGradient id="paint1_linear_189_4052" x1="84.6909" y1="3.18763" x2="16.0439" y2="4.1288" gradientUnits="userSpaceOnUse">
<stop stop-color="#ED5699"/>
<stop offset="1" stop-color="#FF8586"/>
</linearGradient>
</defs>
</svg>
