<svg width="93" height="94" viewBox="0 0 93 94" fill="none" xmlns="http://www.w3.org/2000/svg">
<g filter="url(#filter0_d_189_4056)">
<path d="M15 30.8C15 23.8693 15 20.404 16.3488 17.7569C17.5352 15.4284 19.4284 13.5352 21.7569 12.3488C24.404 11 27.8693 11 34.8 11H58.2C65.1306 11 68.596 11 71.2431 12.3488C73.5716 13.5352 75.4648 15.4284 76.6512 17.7569C78 20.404 78 23.8693 78 30.8V54.2C78 61.1306 78 64.596 76.6512 67.2431C75.4648 69.5716 73.5716 71.4648 71.2431 72.6512C68.596 74 65.1306 74 58.2 74H34.8C27.8693 74 24.404 74 21.7569 72.6512C19.4284 71.4648 17.5352 69.5716 16.3488 67.2431C15 64.596 15 61.1306 15 54.2V30.8Z" fill="url(#paint0_linear_189_4056)" shape-rendering="crispEdges"/>
<path d="M58.2002 9.6875C61.6437 9.6875 64.3052 9.68639 66.4346 9.86035C68.5793 10.0356 70.2994 10.3953 71.8389 11.1797C74.4143 12.4919 76.508 14.5857 77.8203 17.1611C78.6047 18.7006 78.9644 20.4207 79.1396 22.5654C79.3136 24.6948 79.3125 27.3563 79.3125 30.7998V54.2002C79.3125 57.6437 79.3136 60.3052 79.1396 62.4346C78.9644 64.5793 78.6047 66.2994 77.8203 67.8389C76.508 70.4143 74.4143 72.508 71.8389 73.8203C70.2994 74.6047 68.5793 74.9644 66.4346 75.1396C64.3052 75.3136 61.6437 75.3125 58.2002 75.3125H34.7998C31.3563 75.3125 28.6948 75.3136 26.5654 75.1396C24.4207 74.9644 22.7006 74.6047 21.1611 73.8203C18.5857 72.508 16.4919 70.4143 15.1797 67.8389C14.3953 66.2994 14.0356 64.5793 13.8604 62.4346C13.6864 60.3052 13.6875 57.6437 13.6875 54.2002V30.7998C13.6875 27.3563 13.6864 24.6948 13.8604 22.5654C14.0356 20.4207 14.3953 18.7006 15.1797 17.1611C16.4919 14.5857 18.5857 12.4919 21.1611 11.1797C22.7006 10.3953 24.4207 10.0356 26.5654 9.86035C28.6948 9.68639 31.3563 9.6875 34.7998 9.6875H58.2002Z" stroke="white" stroke-opacity="0.64" stroke-width="2.625" shape-rendering="crispEdges"/>
<path d="M60.3518 28.8947C60.3404 28.8394 60.3135 28.7886 60.2742 28.7481C60.2349 28.7075 60.1848 28.6791 60.1299 28.666C56.4693 27.771 48.0112 30.9604 43.4287 35.541C42.6113 36.3517 41.8662 37.2321 41.2018 38.1722C39.7887 38.0472 38.3755 38.1516 37.1712 38.6766C33.773 40.1722 32.7837 44.0747 32.508 45.7535C32.4924 45.8454 32.4983 45.9396 32.5253 46.0288C32.5522 46.1181 32.5995 46.1998 32.6634 46.2677C32.7274 46.3355 32.8061 46.3876 32.8936 46.4198C32.981 46.4521 33.0748 46.4636 33.1674 46.4535L38.6243 45.8516C38.6282 46.263 38.653 46.674 38.6987 47.0828C38.7261 47.3668 38.8522 47.6322 39.0549 47.8328L41.168 49.941C41.3689 50.1435 41.6342 50.2695 41.9181 50.2972C42.3247 50.3427 42.7333 50.3675 43.1424 50.3716L42.5437 55.8216C42.5337 55.9142 42.5453 56.0079 42.5776 56.0953C42.6099 56.1827 42.662 56.2614 42.7298 56.3253C42.7976 56.3892 42.8793 56.4365 42.9684 56.4635C43.0576 56.4905 43.1518 56.4965 43.2437 56.481C44.9193 56.2122 48.8287 55.2228 50.3156 51.8247C50.8406 50.6203 50.9481 49.2141 50.8268 47.8078C51.7692 47.1434 52.6519 46.3981 53.4649 45.5803C58.0618 41.0066 61.2331 32.7372 60.3518 28.8947ZM48.8787 40.1241C48.4589 39.7046 48.173 39.1701 48.0571 38.5881C47.9412 38.0061 48.0005 37.4028 48.2275 36.8545C48.4545 36.3062 48.839 35.8375 49.3324 35.5078C49.8258 35.1781 50.4059 35.0021 50.9993 35.0021C51.5927 35.0021 52.1728 35.1781 52.6662 35.5078C53.1596 35.8375 53.5441 36.3062 53.7711 36.8545C53.9981 37.4028 54.0574 38.0061 53.9415 38.5881C53.8256 39.1701 53.5397 39.7046 53.1199 40.1241C52.8416 40.4028 52.511 40.624 52.1471 40.7748C51.7833 40.9257 51.3932 41.0034 50.9993 41.0034C50.6054 41.0034 50.2153 40.9257 49.8515 40.7748C49.4876 40.624 49.157 40.4028 48.8787 40.1241Z" stroke="url(#paint1_linear_189_4056)"/>
<path d="M41.0256 51.4642C40.683 51.8074 40.1336 51.9412 39.4722 52.0555C37.9864 52.3087 36.6743 51.0248 36.9413 49.5227C37.0431 48.9532 37.3444 48.155 37.532 47.9675C37.573 47.9273 37.6002 47.8752 37.6099 47.8186C37.6196 47.762 37.6113 47.7038 37.586 47.6522C37.5607 47.6007 37.5199 47.5584 37.4692 47.5314C37.4186 47.5044 37.3607 47.494 37.3038 47.5018C36.4729 47.6034 35.6999 47.9801 35.1079 48.5719C33.6383 50.0428 33.4995 55.5004 33.4995 55.5004C33.4995 55.5004 38.9603 55.3616 40.4299 53.8908C41.0235 53.2992 41.4007 52.5251 41.5007 51.693C41.5238 51.4317 41.2056 51.2761 41.0256 51.4642Z" stroke="url(#paint2_linear_189_4056)"/>
</g>
<defs>
<filter id="filter0_d_189_4056" x="9.53674e-07" y="-2.7625" width="93" height="95.8875" filterUnits="userSpaceOnUse" color-interpolation-filters="sRGB">
<feFlood flood-opacity="0" result="BackgroundImageFix"/>
<feColorMatrix in="SourceAlpha" type="matrix" values="0 0 0 0 0 0 0 0 0 0 0 0 0 0 0 0 0 0 127 0" result="hardAlpha"/>
<feOffset dy="4.125"/>
<feGaussianBlur stdDeviation="6.1875"/>
<feComposite in2="hardAlpha" operator="out"/>
<feColorMatrix type="matrix" values="0 0 0 0 0 0 0 0 0 0 0 0 0 0 0 0 0 0 0.05 0"/>
<feBlend mode="normal" in2="BackgroundImageFix" result="effect1_dropShadow_189_4056"/>
<feBlend mode="normal" in="SourceGraphic" in2="effect1_dropShadow_189_4056" result="shape"/>
</filter>
<linearGradient id="paint0_linear_189_4056" x1="26.7023" y1="5.09375" x2="63.9447" y2="79.3365" gradientUnits="userSpaceOnUse">
<stop stop-color="white"/>
<stop offset="1" stop-color="#FFEFF5"/>
</linearGradient>
<linearGradient id="paint1_linear_189_4056" x1="61.2506" y1="23.27" x2="30.7413" y2="23.6887" gradientUnits="userSpaceOnUse">
<stop stop-color="#ED5699"/>
<stop offset="1" stop-color="#FF8586"/>
</linearGradient>
<linearGradient id="paint2_linear_189_4056" x1="41.7166" y1="45.9991" x2="32.997" y2="46.1186" gradientUnits="userSpaceOnUse">
<stop stop-color="#ED5699"/>
<stop offset="1" stop-color="#FF8586"/>
</linearGradient>
</defs>
</svg>
