<svg width="93" height="94" viewBox="0 0 93 94" fill="none" xmlns="http://www.w3.org/2000/svg">
<g filter="url(#filter0_d_144_4250)">
<rect x="15" y="11.3647" width="63" height="63" rx="12.375" fill="url(#paint0_linear_144_4250)" shape-rendering="crispEdges"/>
<rect x="13.6875" y="10.0522" width="65.625" height="65.625" rx="13.6875" stroke="white" stroke-opacity="0.64" stroke-width="2.625" shape-rendering="crispEdges"/>
<g clip-path="url(#clip0_144_4250)">
<path d="M43.1136 41.8397C43.7688 46.1992 42.5685 48.5827 39.1788 49.084C35.412 49.641 33.86 47.1177 33.2048 42.7582C32.3235 36.892 34.3947 33.2435 37.3478 33.0085C40.0355 32.7951 42.4577 37.481 43.1136 41.8397Z" stroke="url(#paint1_linear_144_4250)" stroke-width="2" stroke-miterlimit="10"/>
<path d="M44.8711 53.9368C45.1039 56.4125 43.7657 58.723 41.7468 59.1187C39.7085 59.5174 37.3794 57.901 36.9048 55.4596C36.4302 53.0181 38.2252 52.8887 40.4249 52.4684C42.6245 52.0481 44.5899 50.9509 44.8711 53.9368Z" stroke="url(#paint2_linear_144_4250)" stroke-width="2" stroke-miterlimit="10"/>
<path d="M51.4373 35.702C50.7822 40.0615 51.9825 42.445 55.3714 42.9462C59.1389 43.5032 60.6903 40.9799 61.3455 36.6204C62.2275 30.7535 60.1556 27.0849 57.2031 26.8707C54.4961 26.6744 52.0933 31.3425 51.4373 35.702Z" stroke="url(#paint3_linear_144_4250)" stroke-width="2" stroke-miterlimit="10"/>
<path d="M49.6864 47.7991C49.4536 50.274 50.7918 52.5852 52.8107 52.981C54.8489 53.3797 57.178 51.7633 57.6526 49.3218C58.1272 46.8804 56.3322 46.751 54.1326 46.33C51.9329 45.9089 49.9676 44.8124 49.6864 47.7991Z" stroke="url(#paint4_linear_144_4250)" stroke-width="2" stroke-miterlimit="10"/>
</g>
</g>
<defs>
<filter id="filter0_d_144_4250" x="9.53674e-07" y="-2.39775" width="93" height="95.8875" filterUnits="userSpaceOnUse" color-interpolation-filters="sRGB">
<feFlood flood-opacity="0" result="BackgroundImageFix"/>
<feColorMatrix in="SourceAlpha" type="matrix" values="0 0 0 0 0 0 0 0 0 0 0 0 0 0 0 0 0 0 127 0" result="hardAlpha"/>
<feOffset dy="4.125"/>
<feGaussianBlur stdDeviation="6.1875"/>
<feComposite in2="hardAlpha" operator="out"/>
<feColorMatrix type="matrix" values="0 0 0 0 0 0 0 0 0 0 0 0 0 0 0 0 0 0 0.05 0"/>
<feBlend mode="normal" in2="BackgroundImageFix" result="effect1_dropShadow_144_4250"/>
<feBlend mode="normal" in="SourceGraphic" in2="effect1_dropShadow_144_4250" result="shape"/>
</filter>
<linearGradient id="paint0_linear_144_4250" x1="26.7023" y1="5.4585" x2="63.9447" y2="79.7012" gradientUnits="userSpaceOnUse">
<stop stop-color="white"/>
<stop offset="1" stop-color="#FFEFF5"/>
</linearGradient>
<linearGradient id="paint1_linear_144_4250" x1="43.5614" y1="29.9717" x2="32.3529" y2="30.0695" gradientUnits="userSpaceOnUse">
<stop stop-color="#ED5699"/>
<stop offset="1" stop-color="#FF8586"/>
</linearGradient>
<linearGradient id="paint2_linear_144_4250" x1="45.1139" y1="50.5606" x2="36.3218" y2="50.6946" gradientUnits="userSpaceOnUse">
<stop stop-color="#ED5699"/>
<stop offset="1" stop-color="#FF8586"/>
</linearGradient>
<linearGradient id="paint3_linear_144_4250" x1="61.8265" y1="23.8352" x2="50.6185" y2="23.933" gradientUnits="userSpaceOnUse">
<stop stop-color="#ED5699"/>
<stop offset="1" stop-color="#FF8586"/>
</linearGradient>
<linearGradient id="paint4_linear_144_4250" x1="57.9459" y1="44.4217" x2="49.1538" y2="44.5557" gradientUnits="userSpaceOnUse">
<stop stop-color="#ED5699"/>
<stop offset="1" stop-color="#FF8586"/>
</linearGradient>
<clipPath id="clip0_144_4250">
<rect width="35" height="35" fill="white" transform="translate(29 25.3647)"/>
</clipPath>
</defs>
</svg>
