<svg width="103" height="98" viewBox="0 0 103 98" fill="none" xmlns="http://www.w3.org/2000/svg">
<g filter="url(#filter0_d_189_4055)">
<rect x="20" y="15" width="63" height="63" rx="12" fill="url(#paint0_linear_189_4055)"/>
<rect x="17" y="12" width="69" height="69" rx="15" stroke="url(#paint1_linear_189_4055)" stroke-opacity="0.3" stroke-width="6"/>
<path d="M65.3518 32.8947C65.3404 32.8394 65.3135 32.7886 65.2742 32.7481C65.2349 32.7075 65.1848 32.6791 65.1299 32.666C61.4693 31.771 53.0112 34.9604 48.4287 39.541C47.6113 40.3517 46.8662 41.2321 46.2018 42.1722C44.7887 42.0472 43.3755 42.1516 42.1712 42.6766C38.773 44.1722 37.7837 48.0747 37.508 49.7535C37.4924 49.8454 37.4983 49.9396 37.5253 50.0288C37.5522 50.1181 37.5995 50.1998 37.6634 50.2677C37.7274 50.3355 37.8061 50.3876 37.8936 50.4198C37.981 50.4521 38.0748 50.4636 38.1674 50.4535L43.6243 49.8516C43.6282 50.263 43.653 50.674 43.6987 51.0828C43.7261 51.3668 43.8522 51.6322 44.0549 51.8328L46.168 53.941C46.3689 54.1435 46.6342 54.2695 46.918 54.2972C47.3247 54.3427 47.7333 54.3675 48.1424 54.3716L47.5437 59.8216C47.5337 59.9142 47.5453 60.0079 47.5776 60.0953C47.6099 60.1827 47.662 60.2614 47.7298 60.3253C47.7976 60.3892 47.8793 60.4365 47.9684 60.4635C48.0576 60.4905 48.1518 60.4965 48.2437 60.481C49.9193 60.2122 53.8287 59.2228 55.3156 55.8247C55.8406 54.6203 55.9481 53.2141 55.8268 51.8078C56.7692 51.1434 57.6519 50.3981 58.4649 49.5803C63.0618 45.0066 66.2331 36.7372 65.3518 32.8947ZM53.8787 44.1241C53.4589 43.7046 53.173 43.1701 53.0571 42.5881C52.9412 42.0061 53.0005 41.4028 53.2275 40.8545C53.4545 40.3062 53.839 39.8375 54.3324 39.5078C54.8258 39.1781 55.4059 39.0021 55.9993 39.0021C56.5927 39.0021 57.1728 39.1781 57.6662 39.5078C58.1596 39.8375 58.5441 40.3062 58.7711 40.8545C58.9981 41.4028 59.0574 42.0061 58.9415 42.5881C58.8256 43.1701 58.5397 43.7046 58.1199 44.1241C57.8416 44.4028 57.511 44.624 57.1471 44.7748C56.7833 44.9257 56.3932 45.0034 55.9993 45.0034C55.6054 45.0034 55.2153 44.9257 54.8515 44.7748C54.4876 44.624 54.157 44.4028 53.8787 44.1241Z" fill="white"/>
<path d="M46.0256 55.4642C45.683 55.8074 45.1336 55.9412 44.4722 56.0555C42.9864 56.3087 41.6743 55.0248 41.9413 53.5227C42.0431 52.9532 42.3444 52.155 42.532 51.9675C42.573 51.9273 42.6002 51.8752 42.6099 51.8186C42.6196 51.762 42.6113 51.7038 42.586 51.6522C42.5607 51.6007 42.5199 51.5584 42.4692 51.5314C42.4186 51.5044 42.3607 51.494 42.3038 51.5018C41.4729 51.6034 40.6999 51.9801 40.1079 52.5719C38.6383 54.0428 38.4995 59.5004 38.4995 59.5004C38.4995 59.5004 43.9603 59.3616 45.4299 57.8908C46.0235 57.2992 46.4007 56.5251 46.5007 55.693C46.5238 55.4317 46.2056 55.2761 46.0256 55.4642Z" fill="white"/>
</g>
<defs>
<filter id="filter0_d_189_4055" x="-9.53674e-07" y="-1.8" width="103" height="104.8" filterUnits="userSpaceOnUse" color-interpolation-filters="sRGB">
<feFlood flood-opacity="0" result="BackgroundImageFix"/>
<feColorMatrix in="SourceAlpha" type="matrix" values="0 0 0 0 0 0 0 0 0 0 0 0 0 0 0 0 0 0 127 0" result="hardAlpha"/>
<feOffset dy="5"/>
<feGaussianBlur stdDeviation="7"/>
<feColorMatrix type="matrix" values="0 0 0 0 0.825 0 0 0 0 0.11 0 0 0 0 0.326543 0 0 0 0.1 0"/>
<feBlend mode="normal" in2="BackgroundImageFix" result="effect1_dropShadow_189_4055"/>
<feBlend mode="normal" in="SourceGraphic" in2="effect1_dropShadow_189_4055" result="shape"/>
</filter>
<linearGradient id="paint0_linear_189_4055" x1="117.312" y1="-14.2499" x2="24.8535" y2="-21.4953" gradientUnits="userSpaceOnUse">
<stop stop-color="#ED5699"/>
<stop offset="1" stop-color="#FF8586"/>
</linearGradient>
<linearGradient id="paint1_linear_189_4055" x1="84.6909" y1="3.18763" x2="16.0439" y2="4.1288" gradientUnits="userSpaceOnUse">
<stop stop-color="#ED5699"/>
<stop offset="1" stop-color="#FF8586"/>
</linearGradient>
</defs>
</svg>
