<svg width="93" height="94" viewBox="0 0 93 94" fill="none" xmlns="http://www.w3.org/2000/svg">
<g filter="url(#filter0_d_144_4280)">
<rect x="15" y="11.3647" width="63" height="63" rx="12.375" fill="url(#paint0_linear_144_4280)" shape-rendering="crispEdges"/>
<rect x="13.6875" y="10.0522" width="65.625" height="65.625" rx="13.6875" stroke="white" stroke-opacity="0.64" stroke-width="2.625" shape-rendering="crispEdges"/>
<g clip-path="url(#clip0_144_4280)">
<path d="M46.7675 43.3349L43.7922 35.6C43.7475 35.4839 43.6688 35.3841 43.5663 35.3137C43.4637 35.2433 43.3423 35.2056 43.2179 35.2056C43.0936 35.2056 42.9721 35.2433 42.8696 35.3137C42.7671 35.3841 42.6883 35.4839 42.6436 35.6L39.6683 43.3349C39.6374 43.4153 39.59 43.4883 39.5291 43.5492C39.4682 43.61 39.3953 43.6575 39.3149 43.6884L31.5799 46.6637C31.4639 46.7083 31.364 46.7871 31.2936 46.8896C31.2232 46.9921 31.1855 47.1136 31.1855 47.2379C31.1855 47.3623 31.2232 47.4838 31.2936 47.5863C31.364 47.6888 31.4639 47.7676 31.5799 47.8122L39.3149 50.7875C39.3953 50.8184 39.4682 50.8658 39.5291 50.9267C39.59 50.9876 39.6374 51.0606 39.6683 51.141L42.6436 58.8759C42.6883 58.992 42.7671 59.0918 42.8696 59.1622C42.9721 59.2326 43.0936 59.2703 43.2179 59.2703C43.3423 59.2703 43.4637 59.2326 43.5663 59.1622C43.6688 59.0918 43.7475 58.992 43.7922 58.8759L46.7675 51.141C46.7984 51.0606 46.8458 50.9876 46.9067 50.9267C46.9676 50.8658 47.0406 50.8184 47.1209 50.7875L54.8559 47.8122C54.972 47.7676 55.0718 47.6888 55.1422 47.5863C55.2126 47.4838 55.2503 47.3623 55.2503 47.2379C55.2503 47.1136 55.2126 46.9921 55.1422 46.8896C55.0718 46.7871 54.972 46.7083 54.8559 46.6637L47.1209 43.6884C47.0406 43.6575 46.9676 43.61 46.9067 43.5492C46.8458 43.4883 46.7984 43.4153 46.7675 43.3349Z" stroke="url(#paint1_linear_144_4280)" stroke-width="2" stroke-linecap="round" stroke-linejoin="round"/>
<path d="M36.3824 30.0121L35.0149 26.4565L33.6473 30.0121L30.0918 31.3796L33.6473 32.7471L35.0149 36.3027L36.3824 32.7471L39.9379 31.3796L36.3824 30.0121Z" stroke="url(#paint2_linear_144_4280)" stroke-width="1.3" stroke-linecap="round" stroke-linejoin="round"/>
<path d="M58.164 33.3841L56.3405 28.6436L54.5169 33.3841L49.7764 35.2076L54.5169 37.0312L56.3405 41.7717L58.164 37.0312L62.9045 35.2076L58.164 33.3841Z" stroke="url(#paint3_linear_144_4280)" stroke-width="1.3" stroke-linecap="round" stroke-linejoin="round"/>
</g>
</g>
<defs>
<filter id="filter0_d_144_4280" x="9.53674e-07" y="-2.39775" width="93" height="95.8875" filterUnits="userSpaceOnUse" color-interpolation-filters="sRGB">
<feFlood flood-opacity="0" result="BackgroundImageFix"/>
<feColorMatrix in="SourceAlpha" type="matrix" values="0 0 0 0 0 0 0 0 0 0 0 0 0 0 0 0 0 0 127 0" result="hardAlpha"/>
<feOffset dy="4.125"/>
<feGaussianBlur stdDeviation="6.1875"/>
<feComposite in2="hardAlpha" operator="out"/>
<feColorMatrix type="matrix" values="0 0 0 0 0 0 0 0 0 0 0 0 0 0 0 0 0 0 0.05 0"/>
<feBlend mode="normal" in2="BackgroundImageFix" result="effect1_dropShadow_144_4280"/>
<feBlend mode="normal" in="SourceGraphic" in2="effect1_dropShadow_144_4280" result="shape"/>
</filter>
<linearGradient id="paint0_linear_144_4280" x1="26.7023" y1="5.4585" x2="63.9447" y2="79.7012" gradientUnits="userSpaceOnUse">
<stop stop-color="white"/>
<stop offset="1" stop-color="#FFEFF5"/>
</linearGradient>
<linearGradient id="paint1_linear_144_4280" x1="55.8962" y1="30.6935" x2="29.6744" y2="31.053" gradientUnits="userSpaceOnUse">
<stop stop-color="#ED5699"/>
<stop offset="1" stop-color="#FF8586"/>
</linearGradient>
<linearGradient id="paint2_linear_144_4280" x1="40.2022" y1="24.6104" x2="29.4735" y2="24.7575" gradientUnits="userSpaceOnUse">
<stop stop-color="#ED5699"/>
<stop offset="1" stop-color="#FF8586"/>
</linearGradient>
<linearGradient id="paint3_linear_144_4280" x1="63.2569" y1="26.182" x2="48.952" y2="26.3782" gradientUnits="userSpaceOnUse">
<stop stop-color="#ED5699"/>
<stop offset="1" stop-color="#FF8586"/>
</linearGradient>
<clipPath id="clip0_144_4280">
<rect width="35.0035" height="35.0035" fill="white" transform="translate(28.998 25.3628)"/>
</clipPath>
</defs>
</svg>
