<svg width="103" height="104" viewBox="0 0 103 104" fill="none" xmlns="http://www.w3.org/2000/svg">
<g filter="url(#filter0_d_188_4098)">
<path d="M20 34.5647C20 27.8441 20 24.4838 21.3079 21.9169C22.4584 19.6589 24.2942 17.8231 26.5521 16.6727C29.1191 15.3647 32.4794 15.3647 39.2 15.3647H63.8C70.5206 15.3647 73.8809 15.3647 76.4479 16.6727C78.7058 17.8231 80.5416 19.6589 81.6921 21.9169C83 24.4838 83 27.8441 83 34.5647V59.1647C83 65.8854 83 69.2457 81.6921 71.8126C80.5416 74.0706 78.7058 75.9063 76.4479 77.0568C73.8809 78.3647 70.5206 78.3647 63.8 78.3647H39.2C32.4794 78.3647 29.1191 78.3647 26.5521 77.0568C24.2942 75.9063 22.4584 74.0706 21.3079 71.8126C20 69.2457 20 65.8854 20 59.1647V34.5647Z" fill="url(#paint0_linear_188_4098)"/>
<path d="M63.7998 12.3647C67.1106 12.3647 69.7743 12.3628 71.9258 12.5386C74.1122 12.7172 76.0328 13.0943 77.8096 13.9995C80.632 15.4376 82.9271 17.7327 84.3652 20.5552C85.2705 22.332 85.6475 24.2525 85.8262 26.439C86.002 28.5905 86 31.2542 86 34.5649V59.1646C86 62.4753 86.002 65.139 85.8262 67.2905C85.6475 69.477 85.2705 71.3975 84.3652 73.1743C82.9271 75.9967 80.632 78.2919 77.8096 79.73C76.0328 80.6352 74.1122 81.0123 71.9258 81.1909C69.7743 81.3667 67.1106 81.3647 63.7998 81.3647H39.2002C35.8894 81.3647 33.2257 81.3667 31.0742 81.1909C28.8878 81.0123 26.9672 80.6352 25.1904 79.73C22.368 78.2919 20.0729 75.9967 18.6348 73.1743C17.7295 71.3975 17.3525 69.477 17.1738 67.2905C16.998 65.139 17 62.4753 17 59.1646V34.5649C17 31.2542 16.998 28.5905 17.1738 26.439C17.3525 24.2525 17.7295 22.332 18.6348 20.5552C20.0729 17.7327 22.368 15.4376 25.1904 13.9995C26.9672 13.0943 28.8878 12.7172 31.0742 12.5386C33.2257 12.3628 35.8894 12.3647 39.2002 12.3647H63.7998Z" stroke="url(#paint1_linear_188_4098)" stroke-opacity="0.3" stroke-width="6"/>
<path d="M64.2187 37.615H38.7812C36.8655 37.615 35.3125 39.168 35.3125 41.0837V57.2712C35.3125 59.187 36.8655 60.74 38.7812 60.74H64.2187C66.1345 60.74 67.6875 59.187 67.6875 57.2712V41.0837C67.6875 39.168 66.1345 37.615 64.2187 37.615Z" fill="white" stroke="white" stroke-width="2" stroke-linejoin="round"/>
<path d="M43.4072 37.6147V35.3022C43.4072 34.6889 43.6509 34.1007 44.0845 33.6671C44.5182 33.2334 45.1064 32.9897 45.7197 32.9897H57.2822C57.8955 32.9897 58.4837 33.2334 58.9174 33.6671C59.3511 34.1007 59.5947 34.6889 59.5947 35.3022V37.6147" stroke="white" stroke-width="2" stroke-linecap="round" stroke-linejoin="round"/>
<path d="M67.6875 45.708H35.3125" stroke="#F56A90" stroke-width="2" stroke-linecap="round" stroke-linejoin="round"/>
<path d="M56.1263 45.708V47.4426C56.1263 47.596 56.0654 47.743 55.957 47.8515C55.8485 47.9599 55.7015 48.0208 55.5481 48.0208H47.4532C47.2999 48.0208 47.1528 47.9599 47.0444 47.8515C46.9359 47.743 46.875 47.596 46.875 47.4426V45.708" stroke="#F56A90" stroke-width="1.6" stroke-linecap="round" stroke-linejoin="round"/>
</g>
<defs>
<filter id="filter0_d_188_4098" x="-9.53674e-07" y="-1.43526" width="103" height="104.8" filterUnits="userSpaceOnUse" color-interpolation-filters="sRGB">
<feFlood flood-opacity="0" result="BackgroundImageFix"/>
<feColorMatrix in="SourceAlpha" type="matrix" values="0 0 0 0 0 0 0 0 0 0 0 0 0 0 0 0 0 0 127 0" result="hardAlpha"/>
<feOffset dy="5"/>
<feGaussianBlur stdDeviation="7"/>
<feColorMatrix type="matrix" values="0 0 0 0 0.825 0 0 0 0 0.11 0 0 0 0 0.326543 0 0 0 0.1 0"/>
<feBlend mode="normal" in2="BackgroundImageFix" result="effect1_dropShadow_188_4098"/>
<feBlend mode="normal" in="SourceGraphic" in2="effect1_dropShadow_188_4098" result="shape"/>
</filter>
<linearGradient id="paint0_linear_188_4098" x1="117.312" y1="-13.8852" x2="24.8535" y2="-21.1306" gradientUnits="userSpaceOnUse">
<stop stop-color="#ED5699"/>
<stop offset="1" stop-color="#FF8586"/>
</linearGradient>
<linearGradient id="paint1_linear_188_4098" x1="84.6909" y1="3.55237" x2="16.0439" y2="4.49355" gradientUnits="userSpaceOnUse">
<stop stop-color="#ED5699"/>
<stop offset="1" stop-color="#FF8586"/>
</linearGradient>
</defs>
</svg>
