<svg width="96" height="97" viewBox="0 0 96 97" fill="none" xmlns="http://www.w3.org/2000/svg">
<g filter="url(#filter0_d_144_3867)">
<rect x="20" y="15.3647" width="56" height="56" rx="12" fill="url(#paint0_linear_144_3867)"/>
<rect x="17" y="12.3647" width="62" height="62" rx="15" stroke="url(#paint1_linear_144_3867)" stroke-opacity="0.3" stroke-width="6"/>
<path d="M44.0189 29.2881L44.3444 30.6063C43.0617 30.9233 41.834 31.4316 40.7026 32.1141L40.0064 30.9483C41.2518 30.1941 42.6048 29.6343 44.0189 29.2881ZM50.9811 29.2881L50.6556 30.6063C51.9383 30.9233 53.166 31.4316 54.2974 32.1141L55.0018 30.9483C53.7532 30.1948 52.3975 29.635 50.9811 29.2881ZM35.0835 35.8671C34.33 37.1142 33.7703 38.4685 33.4233 39.8837L34.7416 40.2091C35.0586 38.9264 35.5669 37.6988 36.2493 36.5674L35.0835 35.8671ZM34.3584 43.3648C34.3583 42.7056 34.4079 42.0473 34.5067 41.3956L33.1638 41.1896C32.9454 42.6301 32.9454 44.0953 33.1638 45.5358L34.5067 45.3339C34.4081 44.6822 34.3585 44.0239 34.3584 43.3648ZM54.9936 55.7771L54.2974 54.6154C53.1678 55.2985 51.9414 55.8069 50.6597 56.1232L50.9852 57.4415C52.3976 57.0919 53.749 56.5308 54.9936 55.7771ZM60.6416 43.3648C60.6415 44.0239 60.5919 44.6822 60.4933 45.3339L61.8363 45.5358C62.0546 44.0953 62.0546 42.6301 61.8363 41.1896L60.4933 41.3956C60.5921 42.0473 60.6417 42.7056 60.6416 43.3648ZM61.5767 46.8417L60.2584 46.5163C59.9422 47.8005 59.4339 49.0296 58.7507 50.1621L59.9165 50.8625C60.6707 49.6142 61.2305 48.2584 61.5767 46.8417ZM49.4692 56.358C48.1638 56.5558 46.8362 56.5558 45.5308 56.358L45.329 57.701C46.7681 57.9194 48.2319 57.9194 49.671 57.701L49.4692 56.358ZM58.0792 51.1591C57.2961 52.2209 56.3573 53.1584 55.2943 53.9398L56.1017 55.0356C57.2726 54.1737 58.3084 53.1421 59.175 51.9747L58.0792 51.1591ZM55.2943 32.7856C56.3574 33.5685 57.2962 34.5074 58.0792 35.5705L59.175 34.7548C58.3114 33.5864 57.2784 32.5533 56.11 31.6898L55.2943 32.7856ZM36.9208 35.5705C37.7038 34.5074 38.6426 33.5685 39.7057 32.7856L38.89 31.6898C37.7216 32.5533 36.6886 33.5864 35.825 34.7548L36.9208 35.5705ZM59.9165 35.8671L58.7507 36.5674C59.4338 37.697 59.9421 38.9234 60.2584 40.205L61.5767 39.8796C61.2297 38.4657 60.6699 37.1128 59.9165 35.8671ZM45.5308 30.3715C46.8362 30.1737 48.1638 30.1737 49.4692 30.3715L49.671 29.0285C48.2319 28.8102 46.7681 28.8102 45.329 29.0285L45.5308 30.3715ZM37.6171 55.3981L34.8116 56.049L35.4666 53.2436L34.1442 52.9346L33.4892 55.7401C33.4482 55.914 33.4419 56.0943 33.4707 56.2707C33.4995 56.4471 33.5627 56.616 33.6568 56.7679C33.751 56.9198 33.8741 57.0517 34.0192 57.1559C34.1644 57.2602 34.3286 57.3348 34.5026 57.3756C34.7061 57.4209 34.9171 57.4209 35.1206 57.3756L37.926 56.7288L37.6171 55.3981ZM34.4244 51.7235L35.7509 52.0283L36.204 50.0838C35.5423 48.9738 35.0494 47.7714 34.7416 46.5163L33.4233 46.8417C33.7198 48.0432 34.1683 49.2019 34.758 50.2898L34.4244 51.7235ZM40.7686 54.6649L38.8241 55.118L39.1331 56.4445L40.5626 56.1108C41.6497 56.7023 42.8087 57.1509 44.0107 57.4456L44.3361 56.1273C43.0849 55.8155 41.8868 55.3198 40.7809 54.6566L40.7686 54.6649ZM47.5 31.5827C40.991 31.5868 35.722 36.864 35.722 43.3689C35.7256 45.5845 36.3523 47.7544 37.5305 49.6307L36.3976 54.4671L41.23 53.3342C46.7379 56.7988 54.0131 55.1469 57.4777 49.6431C60.9423 44.1393 59.2944 36.864 53.7906 33.3953C51.9065 32.2104 49.7258 31.5821 47.5 31.5827Z" fill="white"/>
</g>
<defs>
<filter id="filter0_d_144_3867" x="-9.53674e-07" y="-1.43526" width="96" height="97.8" filterUnits="userSpaceOnUse" color-interpolation-filters="sRGB">
<feFlood flood-opacity="0" result="BackgroundImageFix"/>
<feColorMatrix in="SourceAlpha" type="matrix" values="0 0 0 0 0 0 0 0 0 0 0 0 0 0 0 0 0 0 127 0" result="hardAlpha"/>
<feOffset dy="5"/>
<feGaussianBlur stdDeviation="7"/>
<feColorMatrix type="matrix" values="0 0 0 0 0.825 0 0 0 0 0.11 0 0 0 0 0.326543 0 0 0 0.1 0"/>
<feBlend mode="normal" in2="BackgroundImageFix" result="effect1_dropShadow_144_3867"/>
<feBlend mode="normal" in="SourceGraphic" in2="effect1_dropShadow_144_3867" result="shape"/>
</filter>
<linearGradient id="paint0_linear_144_3867" x1="106.5" y1="-10.6352" x2="24.3142" y2="-17.0756" gradientUnits="userSpaceOnUse">
<stop stop-color="#ED5699"/>
<stop offset="1" stop-color="#FF8586"/>
</linearGradient>
<linearGradient id="paint1_linear_144_3867" x1="77.503" y1="4.86486" x2="16.4834" y2="5.70146" gradientUnits="userSpaceOnUse">
<stop stop-color="#ED5699"/>
<stop offset="1" stop-color="#FF8586"/>
</linearGradient>
</defs>
</svg>
