<svg width="93" height="94" viewBox="0 0 93 94" fill="none" xmlns="http://www.w3.org/2000/svg">
<g filter="url(#filter0_d_144_4031)">
<rect x="15" y="11.3647" width="63" height="63" rx="12.375" fill="url(#paint0_linear_144_4031)" shape-rendering="crispEdges"/>
<rect x="13.6875" y="10.0522" width="65.625" height="65.625" rx="13.6875" stroke="white" stroke-opacity="0.64" stroke-width="2.625" shape-rendering="crispEdges"/>
<mask id="path-3-inside-1_144_4031" fill="white">
<path d="M42.1787 25.3902L42.5827 27.0267C40.9904 27.4202 39.4664 28.0512 38.0619 28.8984L37.1976 27.4512C38.7436 26.515 40.4232 25.82 42.1787 25.3902ZM50.8213 25.3902L50.4173 27.0267C52.0096 27.4202 53.5336 28.0512 54.9381 28.8984L55.8126 27.4512C54.2626 26.5158 52.5797 25.8209 50.8213 25.3902ZM31.0864 33.5573C30.1511 35.1055 29.4562 36.7867 29.0255 38.5434L30.6619 38.9474C31.0555 37.3551 31.6865 35.8311 32.5337 34.4267L31.0864 33.5573ZM30.1863 42.8648C30.1862 42.0465 30.2478 41.2293 30.3704 40.4203L28.7033 40.1646C28.4322 41.9528 28.4322 43.7716 28.7033 45.5598L30.3704 45.3093C30.2479 44.5002 30.1864 43.6831 30.1863 42.8648ZM55.8024 58.2732L54.9381 56.8311C53.5359 57.6791 52.0134 58.3101 50.4224 58.7028L50.8264 60.3393C52.5798 59.9054 54.2574 59.2088 55.8024 58.2732ZM62.8137 42.8648C62.8136 43.6831 62.752 44.5002 62.6296 45.3093L64.2967 45.5598C64.5678 43.7716 64.5678 41.9528 64.2967 40.1646L62.6296 40.4203C62.7522 41.2293 62.8138 42.0465 62.8137 42.8648ZM63.9745 47.181L62.3381 46.777C61.9455 48.3712 61.3144 49.897 60.4663 51.3029L61.9136 52.1722C62.8498 50.6227 63.5448 48.9397 63.9745 47.181ZM48.9445 58.9943C47.3241 59.2398 45.6759 59.2398 44.0555 58.9943L43.8049 60.6615C45.5914 60.9325 47.4086 60.9325 49.1951 60.6615L48.9445 58.9943ZM59.6328 52.5405C58.6607 53.8586 57.4952 55.0223 56.1757 55.9924L57.178 57.3527C58.6315 56.2828 59.9173 55.0021 60.9931 53.553L59.6328 52.5405ZM56.1757 29.732C57.4954 30.7039 58.6608 31.8694 59.6328 33.1891L60.9931 32.1765C59.9211 30.7261 58.6387 29.4437 57.1883 28.3717L56.1757 29.732ZM33.3672 33.1891C34.3392 31.8694 35.5046 30.7039 36.8243 29.732L35.8117 28.3717C34.3613 29.4437 33.0789 30.7261 32.0069 32.1765L33.3672 33.1891ZM61.9136 33.5573L60.4663 34.4267C61.3143 35.8289 61.9454 37.3514 62.3381 38.9423L63.9745 38.5383C63.5438 36.7832 62.8489 35.1037 61.9136 33.5573ZM44.0555 26.7352C45.6759 26.4897 47.3241 26.4897 48.9445 26.7352L49.1951 25.068C47.4086 24.797 45.5914 24.797 43.8049 25.068L44.0555 26.7352ZM34.2315 57.8028L30.7489 58.6108L31.562 55.1281L29.9204 54.7446L29.1073 58.2272C29.0564 58.4431 29.0486 58.667 29.0843 58.8859C29.12 59.1049 29.1985 59.3146 29.3154 59.5032C29.4322 59.6917 29.5851 59.8554 29.7653 59.9848C29.9454 60.1143 30.1493 60.2069 30.3653 60.2575C30.6179 60.3137 30.8798 60.3137 31.1324 60.2575L34.6151 59.4546L34.2315 57.8028ZM30.2682 53.2411L31.9149 53.6195L32.4774 51.2057C31.6559 49.8277 31.0441 48.3351 30.6619 46.777L29.0255 47.181C29.3936 48.6724 29.9504 50.1108 30.6824 51.4614L30.2682 53.2411ZM38.1437 56.8925L35.7299 57.455L36.1135 59.1017L37.888 58.6875C39.2376 59.4217 40.6763 59.9786 42.1684 60.3444L42.5724 58.7079C41.0192 58.3208 39.5319 57.7056 38.1591 56.8822L38.1437 56.8925ZM46.5 28.2387C38.4199 28.2438 31.8791 34.7949 31.8791 42.8699C31.8835 45.6203 32.6615 48.3139 34.1241 50.6432L32.7178 56.647L38.7165 55.2406C45.5539 59.5415 54.5852 57.4908 58.8861 50.6585C63.187 43.8262 61.1414 34.7949 54.3091 30.4889C51.9701 29.018 49.263 28.238 46.5 28.2387Z"/>
</mask>
<path d="M42.5827 27.0267L43.0625 28.9683L45.0036 28.4886L44.5244 26.5474L42.5827 27.0267ZM38.0619 28.8984L36.3448 29.9239L37.3748 31.6486L39.0949 30.611L38.0619 28.8984ZM37.1976 27.4512L36.1616 25.7404L34.4614 26.77L35.4805 28.4766L37.1976 27.4512ZM50.4173 27.0267L48.4756 26.5473L47.9964 28.4886L49.9375 28.9683L50.4173 27.0267ZM54.9381 28.8984L53.9051 30.611L55.6163 31.6433L56.6499 29.9328L54.9381 28.8984ZM55.8126 27.4512L57.5244 28.4855L58.5593 26.7728L56.8459 25.7388L55.8126 27.4512ZM31.0864 33.5573L32.1163 31.8428L30.4061 30.8155L29.3746 32.5231L31.0864 33.5573ZM29.0255 38.5434L27.083 38.0672L26.6075 40.0065L28.5461 40.4851L29.0255 38.5434ZM30.6619 38.9474L30.1826 40.8891L32.1238 41.3684L32.6035 39.4273L30.6619 38.9474ZM32.5337 34.4267L34.2462 35.4597L35.2812 33.744L33.5635 32.7122L32.5337 34.4267ZM30.3704 40.4203L32.3478 40.7201L32.6472 38.7461L30.6736 38.4434L30.3704 40.4203ZM28.7033 40.1646L29.0065 38.1877L27.0261 37.884L26.7259 39.8649L28.7033 40.1646ZM28.7033 45.5598L26.7259 45.8596L27.0252 47.8345L29.0006 47.5376L28.7033 45.5598ZM30.3704 45.3093L30.6677 47.287L32.6476 46.9894L32.3479 45.0099L30.3704 45.3093ZM55.8024 58.2732L56.8383 59.984L58.5413 58.9528L57.5179 57.2451L55.8024 58.2732ZM54.9381 56.8311L56.6536 55.803L55.6214 54.0806L53.9031 55.1197L54.9381 56.8311ZM50.4224 58.7028L49.9432 56.7611L48.0014 57.2404L48.4807 59.1822L50.4224 58.7028ZM50.8264 60.3393L48.8847 60.8187L49.3644 62.7615L51.3069 62.2807L50.8264 60.3393ZM62.6296 45.3093L60.6521 45.0099L60.3524 46.9894L62.3323 47.287L62.6296 45.3093ZM64.2967 45.5598L63.9994 47.5376L65.9748 47.8345L66.2741 45.8596L64.2967 45.5598ZM64.2967 40.1646L66.2741 39.8649L65.9739 37.884L63.9935 38.1877L64.2967 40.1646ZM62.6296 40.4203L62.3264 38.4434L60.3528 38.7461L60.6522 40.7201L62.6296 40.4203ZM62.3381 46.777L62.8174 44.8353L60.8746 44.3556L60.3961 46.2987L62.3381 46.777ZM60.4663 51.3029L58.7538 50.2698L57.7188 51.9855L59.4365 53.0173L60.4663 51.3029ZM61.9136 52.1722L60.8837 53.8867L62.5938 54.9139L63.6254 53.2065L61.9136 52.1722ZM48.9445 58.9943L50.9223 58.697L50.6246 56.7169L48.6449 57.0169L48.9445 58.9943ZM44.0555 58.9943L44.3551 57.0169L42.3753 56.7169L42.0777 58.697L44.0555 58.9943ZM43.8049 60.6615L41.8271 60.3642L41.5303 62.3392L43.5049 62.6389L43.8049 60.6615ZM49.1951 60.6615L49.4951 62.6389L51.4697 62.3392L51.1729 60.3642L49.1951 60.6615ZM59.6328 52.5405L60.827 50.9361L59.2154 49.7366L58.0231 51.3534L59.6328 52.5405ZM56.1757 55.9924L54.9911 54.381L53.3779 55.5669L54.5656 57.1788L56.1757 55.9924ZM57.178 57.3527L55.5679 58.5391L56.7538 60.1485L58.3637 58.9634L57.178 57.3527ZM60.9931 53.553L62.5989 54.7452L63.7896 53.1414L62.1873 51.9487L60.9931 53.553ZM56.1757 29.732L54.5714 28.5378L53.3711 30.1503L54.9897 31.3424L56.1757 29.732ZM59.6328 33.1891L58.0224 34.3751L59.2144 35.9937L60.827 34.7934L59.6328 33.1891ZM60.9931 32.1765L62.1873 33.7808L63.7862 32.5907L62.6015 30.9878L60.9931 32.1765ZM57.1883 28.3717L58.377 26.7633L56.7741 25.5786L55.5839 27.1775L57.1883 28.3717ZM33.3672 33.1891L32.173 34.7934L33.7856 35.9937L34.9776 34.3751L33.3672 33.1891ZM36.8243 29.732L38.0103 31.3424L39.6289 30.1503L38.4286 28.5378L36.8243 29.732ZM35.8117 28.3717L37.4161 27.1775L36.2259 25.5786L34.623 26.7633L35.8117 28.3717ZM32.0069 32.1765L30.3985 30.9878L29.2138 32.5907L30.8127 33.7808L32.0069 32.1765ZM60.4663 34.4267L59.4365 32.7122L57.7169 33.7451L58.7549 35.4616L60.4663 34.4267ZM62.3381 38.9423L60.3963 39.4216L60.8756 41.3634L62.8174 40.884L62.3381 38.9423ZM63.9745 38.5383L64.4539 40.48L66.393 40.0013L65.9169 38.0616L63.9745 38.5383ZM44.0555 26.7352L42.0777 27.0325L42.3753 29.0126L44.3551 28.7126L44.0555 26.7352ZM48.9445 26.7352L48.6449 28.7126L50.6246 29.0126L50.9223 27.0325L48.9445 26.7352ZM49.1951 25.068L51.1729 25.3653L51.4697 23.3903L49.4951 23.0907L49.1951 25.068ZM43.8049 25.068L43.5049 23.0907L41.5303 23.3903L41.8271 25.3653L43.8049 25.068ZM34.2315 57.8028L36.1797 57.3504L35.7274 55.4026L33.7795 55.8545L34.2315 57.8028ZM30.7489 58.6108L28.8013 58.156L28.0706 61.2853L31.2009 60.559L30.7489 58.6108ZM31.562 55.1281L33.5096 55.5829L33.9643 53.6355L32.017 53.1806L31.562 55.1281ZM29.9204 54.7446L30.3754 52.797L28.4276 52.3419L27.9728 54.2899L29.9204 54.7446ZM29.1073 58.2272L31.054 58.6859L31.0549 58.6819L29.1073 58.2272ZM30.3653 60.2575L29.9095 62.2048L29.92 62.2073L29.9305 62.2096L30.3653 60.2575ZM31.1324 60.2575L31.5672 62.2096L31.5745 62.208L31.5817 62.2064L31.1324 60.2575ZM34.6151 59.4546L35.0644 61.4035L37.0163 60.9535L36.5632 59.0022L34.6151 59.4546ZM30.2682 53.2411L28.3202 52.7877L27.8656 54.7411L29.8202 55.1903L30.2682 53.2411ZM31.9149 53.6195L31.4669 55.5687L33.4101 56.0153L33.8627 54.0734L31.9149 53.6195ZM32.4774 51.2057L34.4252 51.6596L34.6082 50.8743L34.1953 50.1816L32.4774 51.2057ZM30.6619 46.777L32.6044 46.3006L32.1273 44.3552L30.1826 44.8353L30.6619 46.777ZM29.0255 47.181L28.5461 45.2393L26.6045 45.7186L27.0837 47.6602L29.0255 47.181ZM30.6824 51.4614L32.6303 51.9148L32.8024 51.1756L32.4407 50.5083L30.6824 51.4614ZM38.1437 56.8925L38.5977 58.8403L38.9512 58.7579L39.2532 58.5565L38.1437 56.8925ZM35.7299 57.455L35.276 55.5072L33.3284 55.9611L33.7821 57.9087L35.7299 57.455ZM36.1135 59.1017L34.1656 59.5554L34.6195 61.5042L36.5681 61.0494L36.1135 59.1017ZM37.888 58.6875L38.8438 56.9307L38.1749 56.5667L37.4334 56.7398L37.888 58.6875ZM42.1684 60.3444L41.6923 62.2869L43.6316 62.7623L44.1101 60.8238L42.1684 60.3444ZM42.5724 58.7079L44.5142 59.1873L44.9925 57.2499L43.0561 56.7673L42.5724 58.7079ZM38.1591 56.8822L39.1877 55.167L38.1025 54.5162L37.0496 55.2182L38.1591 56.8822ZM31.8791 42.8699H29.8791L29.8791 42.8731L31.8791 42.8699ZM34.1241 50.6432L36.0714 51.0993L36.2618 50.2865L35.8179 49.5796L34.1241 50.6432ZM32.7178 56.647L30.7705 56.1909L30.0351 59.3301L33.1743 58.5942L32.7178 56.647ZM38.7165 55.2406L39.7814 53.5477L39.0738 53.1026L38.26 53.2934L38.7165 55.2406ZM54.3091 30.4889L55.3754 28.7969L55.3738 28.7958L54.3091 30.4889ZM42.1787 25.3902L40.237 25.8696L40.641 27.5061L42.5827 27.0267L44.5244 26.5474L44.1204 24.9109L42.1787 25.3902ZM42.5827 27.0267L42.1028 25.0851C40.3157 25.5268 38.6052 26.235 37.0288 27.1859L38.0619 28.8984L39.0949 30.611C40.3276 29.8674 41.6651 29.3137 43.0625 28.9683L42.5827 27.0267ZM38.0619 28.8984L39.779 27.873L38.9148 26.4258L37.1976 27.4512L35.4805 28.4766L36.3448 29.9239L38.0619 28.8984ZM37.1976 27.4512L38.2336 29.1619C39.6056 28.3311 41.0963 27.7143 42.6543 27.3329L42.1787 25.3902L41.7031 23.4476C39.7501 23.9257 37.8815 24.6989 36.1616 25.7404L37.1976 27.4512ZM50.8213 25.3902L48.8796 24.9109L48.4756 26.5473L50.4173 27.0267L52.359 27.5061L52.763 25.8696L50.8213 25.3902ZM50.4173 27.0267L49.9375 28.9683C51.3349 29.3137 52.6724 29.8674 53.9051 30.611L54.9381 28.8984L55.9711 27.1859C54.3948 26.235 52.6843 25.5268 50.8972 25.0851L50.4173 27.0267ZM54.9381 28.8984L56.6499 29.9328L57.5244 28.4855L55.8126 27.4512L54.1008 26.4168L53.2263 27.8641L54.9381 28.8984ZM55.8126 27.4512L56.8459 25.7388C55.1228 24.699 53.2519 23.9264 51.2971 23.4476L50.8213 25.3902L50.3455 27.3328C51.9075 27.7154 53.4024 28.3326 54.7792 29.1635L55.8126 27.4512ZM31.0864 33.5573L29.3746 32.5231C28.3346 34.2445 27.5619 36.1138 27.083 38.0672L29.0255 38.5434L30.9679 39.0197C31.3505 37.4595 31.9676 35.9664 32.7983 34.5915L31.0864 33.5573ZM29.0255 38.5434L28.5461 40.4851L30.1826 40.8891L30.6619 38.9474L31.1413 37.0057L29.5048 36.6017L29.0255 38.5434ZM30.6619 38.9474L32.6035 39.4273C32.9489 38.0298 33.5027 36.6923 34.2462 35.4597L32.5337 34.4267L30.8211 33.3936C29.8702 34.9699 29.1621 36.6804 28.7204 38.4676L30.6619 38.9474ZM32.5337 34.4267L33.5635 32.7122L32.1163 31.8428L31.0864 33.5573L30.0565 35.2717L31.5038 36.1411L32.5337 34.4267ZM30.1863 42.8648L32.1863 42.8645C32.1862 42.1466 32.2402 41.4298 32.3478 40.7201L30.3704 40.4203L28.393 40.1204C28.2553 41.0288 28.1862 41.9463 28.1863 42.8651L30.1863 42.8648ZM30.3704 40.4203L30.6736 38.4434L29.0065 38.1877L28.7033 40.1646L28.4001 42.1415L30.0672 42.3972L30.3704 40.4203ZM28.7033 40.1646L26.7259 39.8649C26.4247 41.8517 26.4247 43.8727 26.7259 45.8596L28.7033 45.5598L30.6807 45.2601C30.4398 43.6706 30.4398 42.0538 30.6807 40.4643L28.7033 40.1646ZM28.7033 45.5598L29.0006 47.5376L30.6677 47.287L30.3704 45.3093L30.0732 43.3315L28.406 43.5821L28.7033 45.5598ZM30.3704 45.3093L32.3479 45.0099C32.2404 44.2998 32.1864 43.5827 32.1863 42.8646L30.1863 42.8648L28.1863 42.8649C28.1864 43.7834 28.2555 44.7005 28.393 45.6086L30.3704 45.3093ZM55.8024 58.2732L57.5179 57.2451L56.6536 55.803L54.9381 56.8311L53.2226 57.8592L54.0868 59.3013L55.8024 58.2732ZM54.9381 56.8311L53.9031 55.1197C52.6735 55.8633 51.3384 56.4167 49.9432 56.7611L50.4224 58.7028L50.9017 60.6446C52.6885 60.2035 54.3982 59.4948 55.9731 58.5425L54.9381 56.8311ZM50.4224 58.7028L48.4807 59.1822L48.8847 60.8187L50.8264 60.3393L52.7681 59.8599L52.3641 58.2235L50.4224 58.7028ZM50.8264 60.3393L51.3069 62.2807C53.256 61.7984 55.1209 61.0241 56.8383 59.984L55.8024 58.2732L54.7664 56.5625C53.3939 57.3936 51.9036 58.0124 50.346 58.3979L50.8264 60.3393ZM62.8137 42.8648L60.8137 42.8646C60.8136 43.5827 60.7596 44.2998 60.6521 45.0099L62.6296 45.3093L64.607 45.6086C64.7445 44.7005 64.8136 43.7834 64.8137 42.8649L62.8137 42.8648ZM62.6296 45.3093L62.3323 47.287L63.9994 47.5376L64.2967 45.5598L64.594 43.5821L62.9268 43.3315L62.6296 45.3093ZM64.2967 45.5598L66.2741 45.8596C66.5753 43.8727 66.5753 41.8517 66.2741 39.8649L64.2967 40.1646L62.3193 40.4643C62.5602 42.0538 62.5602 43.6706 62.3193 45.2601L64.2967 45.5598ZM64.2967 40.1646L63.9935 38.1877L62.3264 38.4434L62.6296 40.4203L62.9328 42.3972L64.5999 42.1415L64.2967 40.1646ZM62.6296 40.4203L60.6522 40.7201C60.7598 41.4298 60.8138 42.1466 60.8137 42.8645L62.8137 42.8648L64.8137 42.8651C64.8138 41.9463 64.7447 41.0288 64.607 40.1204L62.6296 40.4203ZM63.9745 47.181L64.4539 45.2393L62.8174 44.8353L62.3381 46.777L61.8587 48.7187L63.4952 49.1227L63.9745 47.181ZM62.3381 46.777L60.3961 46.2987C60.0516 47.6975 59.4979 49.0363 58.7538 50.2698L60.4663 51.3029L62.1788 52.336C63.1309 50.7578 63.8393 49.0449 64.28 47.2552L62.3381 46.777ZM60.4663 51.3029L59.4365 53.0173L60.8837 53.8867L61.9136 52.1722L62.9435 50.4578L61.4962 49.5884L60.4663 51.3029ZM61.9136 52.1722L63.6254 53.2065C64.6666 51.4832 65.4394 49.6116 65.9174 47.6558L63.9745 47.181L62.0317 46.7062C61.6501 48.2677 61.0331 49.7621 60.2018 51.138L61.9136 52.1722ZM48.9445 58.9943L48.6449 57.0169C47.2231 57.2323 45.7769 57.2323 44.3551 57.0169L44.0555 58.9943L43.7559 60.9718C45.5749 61.2473 47.4251 61.2473 49.2441 60.9718L48.9445 58.9943ZM44.0555 58.9943L42.0777 58.697L41.8271 60.3642L43.8049 60.6615L45.7827 60.9588L46.0333 59.2916L44.0555 58.9943ZM43.8049 60.6615L43.5049 62.6389C45.4903 62.9401 47.5097 62.9401 49.4951 62.6389L49.1951 60.6615L48.895 58.6841C47.3074 58.925 45.6926 58.925 44.1049 58.6841L43.8049 60.6615ZM49.1951 60.6615L51.1729 60.3642L50.9223 58.697L48.9445 58.9943L46.9667 59.2916L47.2173 60.9588L49.1951 60.6615ZM59.6328 52.5405L58.0231 51.3534C57.1706 52.5095 56.1484 53.5302 54.9911 54.381L56.1757 55.9924L57.3603 57.6038C58.8421 56.5145 60.1509 55.2076 61.2424 53.7275L59.6328 52.5405ZM56.1757 55.9924L54.5656 57.1788L55.5679 58.5391L57.178 57.3527L58.7881 56.1663L57.7858 54.806L56.1757 55.9924ZM57.178 57.3527L58.3637 58.9634C59.9772 57.7756 61.4046 56.3539 62.5989 54.7452L60.9931 53.553L59.3872 52.3609C58.4299 53.6504 57.2857 54.79 55.9923 55.7421L57.178 57.3527ZM60.9931 53.553L62.1873 51.9487L60.827 50.9361L59.6328 52.5405L58.4386 54.1448L59.7989 55.1574L60.9931 53.553ZM56.1757 29.732L54.9897 31.3424C56.1473 32.195 57.1698 33.2174 58.0224 34.3751L59.6328 33.1891L61.2431 32.003C60.1519 30.5214 58.8434 29.2129 57.3617 28.1216L56.1757 29.732ZM59.6328 33.1891L60.827 34.7934L62.1873 33.7808L60.9931 32.1765L59.7989 30.5722L58.4386 31.5847L59.6328 33.1891ZM60.9931 32.1765L62.6015 30.9878C61.4112 29.3774 59.9874 27.9535 58.377 26.7633L57.1883 28.3717L55.9995 29.9801C57.29 30.9338 58.4309 32.0748 59.3847 33.3653L60.9931 32.1765ZM57.1883 28.3717L55.5839 27.1775L54.5714 28.5378L56.1757 29.732L57.78 30.9262L58.7926 29.5659L57.1883 28.3717ZM33.3672 33.1891L34.9776 34.3751C35.8302 33.2174 36.8527 32.195 38.0103 31.3424L36.8243 29.732L35.6383 28.1216C34.1566 29.2129 32.8481 30.5214 31.7569 32.003L33.3672 33.1891ZM36.8243 29.732L38.4286 28.5378L37.4161 27.1775L35.8117 28.3717L34.2074 29.5659L35.22 30.9262L36.8243 29.732ZM35.8117 28.3717L34.623 26.7633C33.0126 27.9535 31.5888 29.3774 30.3985 30.9878L32.0069 32.1765L33.6153 33.3653C34.5691 32.0748 35.71 30.9338 37.0005 29.9801L35.8117 28.3717ZM32.0069 32.1765L30.8127 33.7808L32.173 34.7934L33.3672 33.1891L34.5614 31.5847L33.2011 30.5722L32.0069 32.1765ZM61.9136 33.5573L60.8837 31.8428L59.4365 32.7122L60.4663 34.4267L61.4962 36.1411L62.9435 35.2717L61.9136 33.5573ZM60.4663 34.4267L58.7549 35.4616C59.4986 36.6913 60.052 38.0264 60.3963 39.4216L62.3381 38.9423L64.2798 38.4631C63.8388 36.6763 63.1301 34.9665 62.1777 33.3917L60.4663 34.4267ZM62.3381 38.9423L62.8174 40.884L64.4539 40.48L63.9745 38.5383L63.4952 36.5966L61.8587 37.0006L62.3381 38.9423ZM63.9745 38.5383L65.9169 38.0616C65.4379 36.1097 64.665 34.242 63.6249 32.5222L61.9136 33.5573L60.2023 34.5923C61.0327 35.9654 61.6497 37.4566 62.0322 39.015L63.9745 38.5383ZM44.0555 26.7352L44.3551 28.7126C45.7769 28.4972 47.2231 28.4972 48.6449 28.7126L48.9445 26.7352L49.2441 24.7578C47.4251 24.4822 45.5749 24.4822 43.7559 24.7578L44.0555 26.7352ZM48.9445 26.7352L50.9223 27.0325L51.1729 25.3653L49.1951 25.068L47.2173 24.7708L46.9667 26.4379L48.9445 26.7352ZM49.1951 25.068L49.4951 23.0907C47.5097 22.7894 45.4903 22.7894 43.5049 23.0907L43.8049 25.068L44.1049 27.0454C45.6926 26.8045 47.3074 26.8045 48.895 27.0454L49.1951 25.068ZM43.8049 25.068L41.8271 25.3653L42.0777 27.0325L44.0555 26.7352L46.0333 26.4379L45.7827 24.7708L43.8049 25.068ZM34.2315 57.8028L33.7795 55.8545L30.2969 56.6625L30.7489 58.6108L31.2009 60.559L34.6835 59.751L34.2315 57.8028ZM30.7489 58.6108L32.6965 59.0655L33.5096 55.5829L31.562 55.1281L29.6144 54.6734L28.8013 58.156L30.7489 58.6108ZM31.562 55.1281L32.017 53.1806L30.3754 52.797L29.9204 54.7446L29.4654 56.6921L31.107 57.0757L31.562 55.1281ZM29.9204 54.7446L27.9728 54.2899L27.1597 57.7725L29.1073 58.2272L31.0549 58.6819L31.868 55.1993L29.9204 54.7446ZM29.1073 58.2272L27.1606 57.7685C27.0494 58.2403 27.0324 58.7294 27.1104 59.2078L29.0843 58.8859L31.0582 58.564C31.0648 58.6045 31.0634 58.6459 31.054 58.6859L29.1073 58.2272ZM29.0843 58.8859L27.1104 59.2078C27.1884 59.6862 27.36 60.1446 27.6153 60.5566L29.3154 59.5032L31.0155 58.4497C31.0371 58.4846 31.0516 58.5235 31.0582 58.564L29.0843 58.8859ZM29.3154 59.5032L27.6153 60.5566C27.8706 60.9687 28.2047 61.3263 28.5983 61.6091L29.7653 59.9848L30.9322 58.3606C30.9655 58.3845 30.9938 58.4148 31.0155 58.4497L29.3154 59.5032ZM29.7653 59.9848L28.5983 61.6091C28.992 61.8919 29.4376 62.0944 29.9095 62.2048L30.3653 60.2575L30.8211 58.3101C30.8611 58.3195 30.8988 58.3366 30.9322 58.3606L29.7653 59.9848ZM30.3653 60.2575L29.9305 62.2096C30.4695 62.3297 31.0283 62.3297 31.5672 62.2096L31.1324 60.2575L30.6976 58.3053C30.7314 58.2978 30.7664 58.2978 30.8001 58.3053L30.3653 60.2575ZM31.1324 60.2575L31.5817 62.2064L35.0644 61.4035L34.6151 59.4546L34.1658 57.5057L30.6831 58.3086L31.1324 60.2575ZM34.6151 59.4546L36.5632 59.0022L36.1797 57.3504L34.2315 57.8028L32.2833 58.2551L32.6669 59.9069L34.6151 59.4546ZM30.2682 53.2411L29.8202 55.1903L31.4669 55.5687L31.9149 53.6195L32.3628 51.6703L30.7161 51.2919L30.2682 53.2411ZM31.9149 53.6195L33.8627 54.0734L34.4252 51.6596L32.4774 51.2057L30.5296 50.7518L29.9671 53.1656L31.9149 53.6195ZM32.4774 51.2057L34.1953 50.1816C33.4754 48.974 32.9392 47.666 32.6044 46.3006L30.6619 46.777L28.7195 47.2533C29.1489 49.0042 29.8364 50.6814 30.7595 52.2298L32.4774 51.2057ZM30.6619 46.777L30.1826 44.8353L28.5461 45.2393L29.0255 47.181L29.5048 49.1227L31.1413 48.7187L30.6619 46.777ZM29.0255 47.181L27.0837 47.6602C27.4926 49.3168 28.111 50.9144 28.9241 52.4144L30.6824 51.4614L32.4407 50.5083C31.7897 49.3073 31.2945 48.0281 30.9672 46.7018L29.0255 47.181ZM30.6824 51.4614L28.7345 51.008L28.3202 52.7877L30.2682 53.2411L32.2161 53.6945L32.6303 51.9148L30.6824 51.4614ZM38.1437 56.8925L37.6898 54.9447L35.276 55.5072L35.7299 57.455L36.1839 59.4028L38.5977 58.8403L38.1437 56.8925ZM35.7299 57.455L33.7821 57.9087L34.1656 59.5554L36.1135 59.1017L38.0613 58.648L37.6778 57.0013L35.7299 57.455ZM36.1135 59.1017L36.5681 61.0494L38.3427 60.6351L37.888 58.6875L37.4334 56.7398L35.6588 57.1541L36.1135 59.1017ZM37.888 58.6875L36.9322 60.4443C38.433 61.2608 40.0329 61.8801 41.6923 62.2869L42.1684 60.3444L42.6446 58.4019C41.3196 58.0771 40.0422 57.5826 38.8438 56.9307L37.888 58.6875ZM42.1684 60.3444L44.1101 60.8238L44.5142 59.1873L42.5724 58.7079L40.6307 58.2286L40.2267 59.8651L42.1684 60.3444ZM42.5724 58.7079L43.0561 56.7673C41.6946 56.428 40.391 55.8887 39.1877 55.167L38.1591 56.8822L37.1304 58.5974C38.6728 59.5224 40.3437 60.2136 42.0888 60.6486L42.5724 58.7079ZM38.1591 56.8822L37.0496 55.2182L37.0342 55.2284L38.1437 56.8925L39.2532 58.5565L39.2685 58.5463L38.1591 56.8822ZM46.5 28.2387L46.4987 26.2387C37.3139 26.2445 29.8791 33.6914 29.8791 42.8699H31.8791H33.8791C33.8791 35.8983 39.5258 30.2431 46.5013 30.2387L46.5 28.2387ZM31.8791 42.8699L29.8791 42.8731C29.8841 45.9987 30.7682 49.0598 32.4304 51.7067L34.1241 50.6432L35.8179 49.5796C34.5548 47.5681 33.8829 45.2418 33.8791 42.8666L31.8791 42.8699ZM34.1241 50.6432L32.1768 50.187L30.7705 56.1909L32.7178 56.647L34.6651 57.1031L36.0714 51.0993L34.1241 50.6432ZM32.7178 56.647L33.1743 58.5942L39.173 57.1878L38.7165 55.2406L38.26 53.2934L32.2613 54.6998L32.7178 56.647ZM38.7165 55.2406L37.6516 56.9336C45.4225 61.8216 55.6887 59.4921 60.5787 51.724L58.8861 50.6585L57.1935 49.593C53.4817 55.4895 45.6853 57.2614 39.7814 53.5477L38.7165 55.2406ZM58.8861 50.6585L60.5787 51.724C65.4672 43.9581 63.1428 33.6922 55.3754 28.7969L54.3091 30.4889L53.2427 32.1809C59.14 35.8976 60.9068 43.6943 57.1935 49.593L58.8861 50.6585ZM54.3091 30.4889L55.3738 28.7958C52.7157 27.1243 49.6394 26.2379 46.4995 26.2387L46.5 28.2387L46.5005 30.2387C48.8867 30.2381 51.2245 30.9117 53.2444 32.1819L54.3091 30.4889Z" fill="url(#paint1_linear_144_4031)" mask="url(#path-3-inside-1_144_4031)"/>
</g>
<defs>
<filter id="filter0_d_144_4031" x="9.53674e-07" y="-2.39775" width="93" height="95.8875" filterUnits="userSpaceOnUse" color-interpolation-filters="sRGB">
<feFlood flood-opacity="0" result="BackgroundImageFix"/>
<feColorMatrix in="SourceAlpha" type="matrix" values="0 0 0 0 0 0 0 0 0 0 0 0 0 0 0 0 0 0 127 0" result="hardAlpha"/>
<feOffset dy="4.125"/>
<feGaussianBlur stdDeviation="6.1875"/>
<feComposite in2="hardAlpha" operator="out"/>
<feColorMatrix type="matrix" values="0 0 0 0 0 0 0 0 0 0 0 0 0 0 0 0 0 0 0.05 0"/>
<feBlend mode="normal" in2="BackgroundImageFix" result="effect1_dropShadow_144_4031"/>
<feBlend mode="normal" in="SourceGraphic" in2="effect1_dropShadow_144_4031" result="shape"/>
</filter>
<linearGradient id="paint0_linear_144_4031" x1="26.7023" y1="5.4585" x2="63.9447" y2="79.7012" gradientUnits="userSpaceOnUse">
<stop stop-color="white"/>
<stop offset="1" stop-color="#FFEFF5"/>
</linearGradient>
<linearGradient id="paint1_linear_144_4031" x1="65.4662" y1="18.1148" x2="26.2393" y2="18.6526" gradientUnits="userSpaceOnUse">
<stop stop-color="#ED5699"/>
<stop offset="1" stop-color="#FF8586"/>
</linearGradient>
</defs>
</svg>
