<svg width="103" height="99" viewBox="0 0 103 99" fill="none" xmlns="http://www.w3.org/2000/svg">
<g filter="url(#filter0_d_188_4140)">
<path d="M20 34.5647C20 27.8441 20 24.4838 21.3079 21.9169C22.4584 19.6589 24.2942 17.8231 26.5521 16.6727C29.1191 15.3647 32.4794 15.3647 39.2 15.3647H63.8C70.5206 15.3647 73.8809 15.3647 76.4479 16.6727C78.7058 17.8231 80.5416 19.6589 81.6921 21.9169C83 24.4838 83 27.8441 83 34.5647V59.1647C83 65.8854 83 69.2457 81.6921 71.8126C80.5416 74.0706 78.7058 75.9063 76.4479 77.0568C73.8809 78.3647 70.5206 78.3647 63.8 78.3647H39.2C32.4794 78.3647 29.1191 78.3647 26.5521 77.0568C24.2942 75.9063 22.4584 74.0706 21.3079 71.8126C20 69.2457 20 65.8854 20 59.1647V34.5647Z" fill="url(#paint0_linear_188_4140)"/>
<path d="M63.7998 12.3647C67.1106 12.3647 69.7743 12.3628 71.9258 12.5386C74.1122 12.7172 76.0328 13.0943 77.8096 13.9995C80.632 15.4376 82.9271 17.7327 84.3652 20.5552C85.2705 22.332 85.6475 24.2525 85.8262 26.439C86.002 28.5905 86 31.2542 86 34.5649V59.1646C86 62.4753 86.002 65.139 85.8262 67.2905C85.6475 69.477 85.2705 71.3975 84.3652 73.1743C82.9271 75.9967 80.632 78.2919 77.8096 79.73C76.0328 80.6352 74.1122 81.0123 71.9258 81.1909C69.7743 81.3667 67.1106 81.3647 63.7998 81.3647H39.2002C35.8894 81.3647 33.2257 81.3667 31.0742 81.1909C28.8878 81.0123 26.9672 80.6352 25.1904 79.73C22.368 78.2919 20.0729 75.9967 18.6348 73.1743C17.7295 71.3975 17.3525 69.477 17.1738 67.2905C16.998 65.139 17 62.4753 17 59.1646V34.5649C17 31.2542 16.998 28.5905 17.1738 26.439C17.3525 24.2525 17.7295 22.332 18.6348 20.5552C20.0729 17.7327 22.368 15.4376 25.1904 13.9995C26.9672 13.0943 28.8878 12.7172 31.0742 12.5386C33.2257 12.3628 35.8894 12.3647 39.2002 12.3647H63.7998Z" stroke="url(#paint1_linear_188_4140)" stroke-opacity="0.3" stroke-width="6"/>
<path d="M55.2188 56.7816V54.9222C55.2188 52.6755 57.6623 50.5503 59.2474 49.0342C61.4817 46.8982 62.6562 44.0286 62.6562 40.667C62.6562 34.4691 57.7188 29.5108 51.5 29.5108C50.0338 29.5067 48.5813 29.7925 47.2259 30.3517C45.8705 30.9109 44.639 31.7325 43.6023 32.7692C42.5655 33.806 41.7439 35.0375 41.1847 36.3929C40.6255 37.7483 40.3397 39.2008 40.3438 40.667C40.3438 43.9085 41.5687 46.9726 43.7526 49.0342C45.3292 50.5225 47.7813 52.6522 47.7813 54.9222V56.7816" fill="white"/>
<path d="M55.2188 56.7816V54.9222C55.2188 52.6755 57.6623 50.5503 59.2474 49.0342C61.4817 46.8982 62.6563 44.0286 62.6563 40.667C62.6563 34.4691 57.7188 29.5108 51.5 29.5108C50.0338 29.5067 48.5813 29.7925 47.2259 30.3517C45.8705 30.9109 44.639 31.7325 43.6023 32.7692C42.5655 33.806 41.7439 35.0375 41.1847 36.3929C40.6255 37.7483 40.3397 39.2008 40.3438 40.667C40.3438 43.9085 41.5687 46.9726 43.7526 49.0342C45.3292 50.5225 47.7813 52.6522 47.7813 54.9222V56.7816" stroke="white" stroke-width="2" stroke-linecap="round" stroke-linejoin="round"/>
<path d="M49.0215 64.2188H53.9835" stroke="white" stroke-width="2" stroke-linecap="round" stroke-linejoin="round"/>
<path d="M47.7817 60.5002H55.2247" stroke="white" stroke-width="2" stroke-linecap="round" stroke-linejoin="round"/>
<path d="M51.5024 56.7835V46.8655" stroke="#F56A90" stroke-width="2" stroke-linecap="round" stroke-linejoin="round"/>
<path d="M54.449 45.6248C54.449 45.6248 52.7813 46.8652 51.5028 46.8652C50.2243 46.8652 48.5566 45.6248 48.5566 45.6248" stroke="#F56A90" stroke-width="2" stroke-linecap="round" stroke-linejoin="round"/>
</g>
<defs>
<filter id="filter0_d_188_4140" x="-9.53674e-07" y="-1.43526" width="103" height="104.8" filterUnits="userSpaceOnUse" color-interpolation-filters="sRGB">
<feFlood flood-opacity="0" result="BackgroundImageFix"/>
<feColorMatrix in="SourceAlpha" type="matrix" values="0 0 0 0 0 0 0 0 0 0 0 0 0 0 0 0 0 0 127 0" result="hardAlpha"/>
<feOffset dy="5"/>
<feGaussianBlur stdDeviation="7"/>
<feColorMatrix type="matrix" values="0 0 0 0 0.825 0 0 0 0 0.11 0 0 0 0 0.326543 0 0 0 0.1 0"/>
<feBlend mode="normal" in2="BackgroundImageFix" result="effect1_dropShadow_188_4140"/>
<feBlend mode="normal" in="SourceGraphic" in2="effect1_dropShadow_188_4140" result="shape"/>
</filter>
<linearGradient id="paint0_linear_188_4140" x1="117.312" y1="-13.8852" x2="24.8535" y2="-21.1306" gradientUnits="userSpaceOnUse">
<stop stop-color="#ED5699"/>
<stop offset="1" stop-color="#FF8586"/>
</linearGradient>
<linearGradient id="paint1_linear_188_4140" x1="84.6909" y1="3.55237" x2="16.0439" y2="4.49355" gradientUnits="userSpaceOnUse">
<stop stop-color="#ED5699"/>
<stop offset="1" stop-color="#FF8586"/>
</linearGradient>
</defs>
</svg>
