<svg width="93" height="94" viewBox="0 0 93 94" fill="none" xmlns="http://www.w3.org/2000/svg">
<g filter="url(#filter0_d_144_4515)">
<rect x="15" y="11.3652" width="63" height="63" rx="12.375" fill="url(#paint0_linear_144_4515)" shape-rendering="crispEdges"/>
<rect x="13.6875" y="10.0527" width="65.625" height="65.625" rx="13.6875" stroke="white" stroke-opacity="0.64" stroke-width="2.625" shape-rendering="crispEdges"/>
<g clip-path="url(#clip0_144_4515)">
<path d="M40.3161 25.9902H34.6869C34.376 25.9902 34.124 26.2423 34.124 26.5531V32.1823C34.124 32.4932 34.376 32.7452 34.6869 32.7452H40.3161C40.627 32.7452 40.879 32.4932 40.879 32.1823V26.5531C40.879 26.2423 40.627 25.9902 40.3161 25.9902Z" stroke="url(#paint1_linear_144_4515)" stroke-width="1.3"/>
<path d="M49.3141 25.9902H43.685C43.3741 25.9902 43.1221 26.2423 43.1221 26.5531V32.1823C43.1221 32.4932 43.3741 32.7452 43.685 32.7452H49.3141C49.625 32.7452 49.877 32.4932 49.877 32.1823V26.5531C49.877 26.2423 49.625 25.9902 49.3141 25.9902Z" stroke="url(#paint2_linear_144_4515)" stroke-width="1.3"/>
<path d="M58.3122 25.9902H52.683C52.3721 25.9902 52.1201 26.2423 52.1201 26.5531V32.1823C52.1201 32.4932 52.3721 32.7452 52.683 32.7452H58.3122C58.6231 32.7452 58.8751 32.4932 58.8751 32.1823V26.5531C58.8751 26.2423 58.6231 25.9902 58.3122 25.9902Z" stroke="url(#paint3_linear_144_4515)" stroke-width="1.3"/>
<path d="M40.3161 34.9883H34.6869C34.376 34.9883 34.124 35.2403 34.124 35.5512V41.1803C34.124 41.4912 34.376 41.7432 34.6869 41.7432H40.3161C40.627 41.7432 40.879 41.4912 40.879 41.1803V35.5512C40.879 35.2403 40.627 34.9883 40.3161 34.9883Z" stroke="url(#paint4_linear_144_4515)" stroke-width="1.3"/>
<path d="M49.3141 34.9883H43.685C43.3741 34.9883 43.1221 35.2403 43.1221 35.5512V41.1803C43.1221 41.4912 43.3741 41.7432 43.685 41.7432H49.3141C49.625 41.7432 49.877 41.4912 49.877 41.1803V35.5512C49.877 35.2403 49.625 34.9883 49.3141 34.9883Z" stroke="url(#paint5_linear_144_4515)" stroke-width="1.3"/>
<path d="M58.3122 34.9883H52.683C52.3721 34.9883 52.1201 35.2403 52.1201 35.5512V41.1803C52.1201 41.4912 52.3721 41.7432 52.683 41.7432H58.3122C58.6231 41.7432 58.8751 41.4912 58.8751 41.1803V35.5512C58.8751 35.2403 58.6231 34.9883 58.3122 34.9883Z" stroke="url(#paint6_linear_144_4515)" stroke-width="1.3"/>
<path d="M40.3161 43.9902H34.6869C34.376 43.9902 34.124 44.2423 34.124 44.5531V50.1823C34.124 50.4932 34.376 50.7452 34.6869 50.7452H40.3161C40.627 50.7452 40.879 50.4932 40.879 50.1823V44.5531C40.879 44.2423 40.627 43.9902 40.3161 43.9902Z" stroke="url(#paint7_linear_144_4515)" stroke-width="1.3"/>
<path d="M49.3141 43.9902H43.685C43.3741 43.9902 43.1221 44.2423 43.1221 44.5531V50.1823C43.1221 50.4932 43.3741 50.7452 43.685 50.7452H49.3141C49.625 50.7452 49.877 50.4932 49.877 50.1823V44.5531C49.877 44.2423 49.625 43.9902 49.3141 43.9902Z" stroke="url(#paint8_linear_144_4515)" stroke-width="1.3"/>
<path d="M49.3141 52.9932H43.685C43.3741 52.9932 43.1221 53.2452 43.1221 53.5561V59.1852C43.1221 59.4961 43.3741 59.7481 43.685 59.7481H49.3141C49.625 59.7481 49.877 59.4961 49.877 59.1852V53.5561C49.877 53.2452 49.625 52.9932 49.3141 52.9932Z" stroke="url(#paint9_linear_144_4515)" stroke-width="1.3"/>
<path d="M58.3122 43.9902H52.683C52.3721 43.9902 52.1201 44.2423 52.1201 44.5531V50.1823C52.1201 50.4932 52.3721 50.7452 52.683 50.7452H58.3122C58.6231 50.7452 58.8751 50.4932 58.8751 50.1823V44.5531C58.8751 44.2423 58.6231 43.9902 58.3122 43.9902Z" stroke="url(#paint10_linear_144_4515)" stroke-width="1.3"/>
</g>
</g>
<defs>
<filter id="filter0_d_144_4515" x="9.53674e-07" y="-2.39726" width="93" height="95.8875" filterUnits="userSpaceOnUse" color-interpolation-filters="sRGB">
<feFlood flood-opacity="0" result="BackgroundImageFix"/>
<feColorMatrix in="SourceAlpha" type="matrix" values="0 0 0 0 0 0 0 0 0 0 0 0 0 0 0 0 0 0 127 0" result="hardAlpha"/>
<feOffset dy="4.125"/>
<feGaussianBlur stdDeviation="6.1875"/>
<feComposite in2="hardAlpha" operator="out"/>
<feColorMatrix type="matrix" values="0 0 0 0 0 0 0 0 0 0 0 0 0 0 0 0 0 0 0.05 0"/>
<feBlend mode="normal" in2="BackgroundImageFix" result="effect1_dropShadow_144_4515"/>
<feBlend mode="normal" in="SourceGraphic" in2="effect1_dropShadow_144_4515" result="shape"/>
</filter>
<linearGradient id="paint0_linear_144_4515" x1="26.7023" y1="5.45898" x2="63.9447" y2="79.7017" gradientUnits="userSpaceOnUse">
<stop stop-color="white"/>
<stop offset="1" stop-color="#FFEFF5"/>
</linearGradient>
<linearGradient id="paint1_linear_144_4515" x1="41.0603" y1="24.7237" x2="33.6998" y2="24.8246" gradientUnits="userSpaceOnUse">
<stop stop-color="#ED5699"/>
<stop offset="1" stop-color="#FF8586"/>
</linearGradient>
<linearGradient id="paint2_linear_144_4515" x1="50.0583" y1="24.7237" x2="42.6979" y2="24.8246" gradientUnits="userSpaceOnUse">
<stop stop-color="#ED5699"/>
<stop offset="1" stop-color="#FF8586"/>
</linearGradient>
<linearGradient id="paint3_linear_144_4515" x1="59.0564" y1="24.7237" x2="51.6959" y2="24.8246" gradientUnits="userSpaceOnUse">
<stop stop-color="#ED5699"/>
<stop offset="1" stop-color="#FF8586"/>
</linearGradient>
<linearGradient id="paint4_linear_144_4515" x1="41.0603" y1="33.7217" x2="33.6998" y2="33.8227" gradientUnits="userSpaceOnUse">
<stop stop-color="#ED5699"/>
<stop offset="1" stop-color="#FF8586"/>
</linearGradient>
<linearGradient id="paint5_linear_144_4515" x1="50.0583" y1="33.7217" x2="42.6979" y2="33.8227" gradientUnits="userSpaceOnUse">
<stop stop-color="#ED5699"/>
<stop offset="1" stop-color="#FF8586"/>
</linearGradient>
<linearGradient id="paint6_linear_144_4515" x1="59.0564" y1="33.7217" x2="51.6959" y2="33.8227" gradientUnits="userSpaceOnUse">
<stop stop-color="#ED5699"/>
<stop offset="1" stop-color="#FF8586"/>
</linearGradient>
<linearGradient id="paint7_linear_144_4515" x1="41.0603" y1="42.7237" x2="33.6998" y2="42.8246" gradientUnits="userSpaceOnUse">
<stop stop-color="#ED5699"/>
<stop offset="1" stop-color="#FF8586"/>
</linearGradient>
<linearGradient id="paint8_linear_144_4515" x1="50.0583" y1="42.7237" x2="42.6979" y2="42.8246" gradientUnits="userSpaceOnUse">
<stop stop-color="#ED5699"/>
<stop offset="1" stop-color="#FF8586"/>
</linearGradient>
<linearGradient id="paint9_linear_144_4515" x1="50.0583" y1="51.7266" x2="42.6979" y2="51.8275" gradientUnits="userSpaceOnUse">
<stop stop-color="#ED5699"/>
<stop offset="1" stop-color="#FF8586"/>
</linearGradient>
<linearGradient id="paint10_linear_144_4515" x1="59.0564" y1="42.7237" x2="51.6959" y2="42.8246" gradientUnits="userSpaceOnUse">
<stop stop-color="#ED5699"/>
<stop offset="1" stop-color="#FF8586"/>
</linearGradient>
<clipPath id="clip0_144_4515">
<rect width="36" height="36" fill="white" transform="translate(28.5 24.8652)"/>
</clipPath>
</defs>
</svg>
