<svg width="93" height="94" viewBox="0 0 93 94" fill="none" xmlns="http://www.w3.org/2000/svg">
<g filter="url(#filter0_d_189_4126)">
<path d="M15 30.8C15 23.8693 15 20.404 16.3488 17.7569C17.5352 15.4284 19.4284 13.5352 21.7569 12.3488C24.404 11 27.8693 11 34.8 11H58.2C65.1306 11 68.596 11 71.2431 12.3488C73.5716 13.5352 75.4648 15.4284 76.6512 17.7569C78 20.404 78 23.8693 78 30.8V54.2C78 61.1306 78 64.596 76.6512 67.2431C75.4648 69.5716 73.5716 71.4648 71.2431 72.6512C68.596 74 65.1306 74 58.2 74H34.8C27.8693 74 24.404 74 21.7569 72.6512C19.4284 71.4648 17.5352 69.5716 16.3488 67.2431C15 64.596 15 61.1306 15 54.2V30.8Z" fill="url(#paint0_linear_189_4126)" shape-rendering="crispEdges"/>
<path d="M58.2002 9.6875C61.6437 9.6875 64.3052 9.68639 66.4346 9.86035C68.5793 10.0356 70.2994 10.3953 71.8389 11.1797C74.4143 12.4919 76.508 14.5857 77.8203 17.1611C78.6047 18.7006 78.9644 20.4207 79.1396 22.5654C79.3136 24.6948 79.3125 27.3563 79.3125 30.7998V54.2002C79.3125 57.6437 79.3136 60.3052 79.1396 62.4346C78.9644 64.5793 78.6047 66.2994 77.8203 67.8389C76.508 70.4143 74.4143 72.508 71.8389 73.8203C70.2994 74.6047 68.5793 74.9644 66.4346 75.1396C64.3052 75.3136 61.6437 75.3125 58.2002 75.3125H34.7998C31.3563 75.3125 28.6948 75.3136 26.5654 75.1396C24.4207 74.9644 22.7006 74.6047 21.1611 73.8203C18.5857 72.508 16.4919 70.4143 15.1797 67.8389C14.3953 66.2994 14.0356 64.5793 13.8604 62.4346C13.6864 60.3052 13.6875 57.6437 13.6875 54.2002V30.7998C13.6875 27.3563 13.6864 24.6948 13.8604 22.5654C14.0356 20.4207 14.3953 18.7006 15.1797 17.1611C16.4919 14.5857 18.5857 12.4919 21.1611 11.1797C22.7006 10.3953 24.4207 10.0356 26.5654 9.86035C28.6948 9.68639 31.3563 9.6875 34.7998 9.6875H58.2002Z" stroke="white" stroke-opacity="0.64" stroke-width="2.625" shape-rendering="crispEdges"/>
<g clip-path="url(#clip0_189_4126)">
<path d="M51.9367 42.4999C50.5381 42.4999 49.1857 41.8754 48.1272 40.7421C47.098 39.6367 46.4695 38.1626 46.3586 36.5925C46.2402 34.9177 46.7511 33.3776 47.7966 32.2552C48.8422 31.1328 50.3041 30.5273 51.9367 30.5273C53.5577 30.5273 55.0237 31.1437 56.0659 32.2634C57.1182 33.3939 57.6304 34.9313 57.5121 36.5918C57.3985 38.1639 56.7706 39.6374 55.7434 40.7414C54.6877 41.8754 53.336 42.4999 51.9367 42.4999Z" stroke="url(#paint1_linear_189_4126)"/>
<path d="M60.9068 54.4701H42.9743C42.686 54.4716 42.4012 54.407 42.1418 54.2812C41.8824 54.1554 41.6553 53.9717 41.478 53.7444C41.2899 53.4979 41.1601 53.2121 41.0981 52.9083C41.0361 52.6045 41.0437 52.2907 41.1202 51.9902C41.6929 49.6906 43.1117 47.7834 45.223 46.4755C47.0968 45.3151 49.4821 44.6758 51.9402 44.6758C54.4466 44.6758 56.7694 45.2879 58.6541 46.4476C60.7701 47.7487 62.1909 49.6668 62.7609 51.9943C62.8365 52.295 62.8432 52.6088 62.7806 52.9124C62.7179 53.216 62.5875 53.5016 62.399 53.7478C62.2219 53.9741 61.9954 54.1568 61.7367 54.282C61.478 54.4072 61.1941 54.4716 60.9068 54.4701V54.4701Z" stroke="url(#paint2_linear_189_4126)"/>
<path d="M38.7089 42.5678C36.3151 42.5678 34.2104 40.342 34.0151 37.6067C33.9185 36.2054 34.3553 34.9095 35.2396 33.9592C36.1144 33.0184 37.3484 32.5 38.7089 32.5C40.0694 32.5 41.2939 33.0211 42.1735 33.9673C43.0646 34.9251 43.5 36.2183 43.3979 37.6081C43.2027 40.3427 41.0987 42.5678 38.7089 42.5678Z" stroke="url(#paint3_linear_189_4126)"/>
<path d="M42.4106 45.3497C41.3007 44.7832 39.8602 44.5 38.2683 44.5C36.4094 44.5 34.6042 45.0059 33.1845 45.9241C31.5749 46.9669 30.4921 48.4852 30.0549 50.3183C29.9909 50.582 29.9848 50.8574 30.0372 51.1239C30.0895 51.3903 30.1989 51.641 30.3571 51.8571C30.5073 52.0583 30.6996 52.2209 30.9194 52.3323C31.1391 52.4438 31.3804 52.5011 31.6247 52.5H38.6285C38.7468 52.5 38.8612 52.4566 38.952 52.3775C39.0427 52.2985 39.104 52.1886 39.1251 52.0672C39.1321 52.0257 39.1409 51.9842 39.151 51.9434C39.6861 49.6998 40.9398 47.8041 42.7923 46.4221C42.8605 46.3708 42.9153 46.3026 42.9518 46.2236C42.9883 46.1447 43.0053 46.0574 43.0014 45.9699C42.9974 45.8823 42.9726 45.7971 42.9292 45.722C42.8857 45.647 42.825 45.5845 42.7526 45.5401C42.6535 45.4795 42.54 45.4156 42.4106 45.3497Z" stroke="url(#paint4_linear_189_4126)"/>
<path d="M60.6686 44.8333V43.1667H62.3353C62.5121 43.1667 62.6817 43.0964 62.8067 42.9714C62.9317 42.8464 63.002 42.6768 63.002 42.5C63.002 42.3232 62.9317 42.1536 62.8067 42.0286C62.6817 41.9036 62.5121 41.8333 62.3353 41.8333H60.6686V40.1667C60.6686 39.9899 60.5984 39.8203 60.4734 39.6953C60.3483 39.5702 60.1788 39.5 60.002 39.5C59.8251 39.5 59.6556 39.5702 59.5305 39.6953C59.4055 39.8203 59.3353 39.9899 59.3353 40.1667V41.8333H57.6686C57.4918 41.8333 57.3222 41.9036 57.1972 42.0286C57.0722 42.1536 57.002 42.3232 57.002 42.5C57.002 42.6768 57.0722 42.8464 57.1972 42.9714C57.3222 43.0964 57.4918 43.1667 57.6686 43.1667H59.3353V44.8333C59.3353 45.0101 59.4055 45.1797 59.5305 45.3047C59.6556 45.4298 59.8251 45.5 60.002 45.5C60.1788 45.5 60.3483 45.4298 60.4734 45.3047C60.5984 45.1797 60.6686 45.0101 60.6686 44.8333Z" stroke="url(#paint5_linear_189_4126)"/>
</g>
</g>
<defs>
<filter id="filter0_d_189_4126" x="9.53674e-07" y="-2.7625" width="93" height="95.8875" filterUnits="userSpaceOnUse" color-interpolation-filters="sRGB">
<feFlood flood-opacity="0" result="BackgroundImageFix"/>
<feColorMatrix in="SourceAlpha" type="matrix" values="0 0 0 0 0 0 0 0 0 0 0 0 0 0 0 0 0 0 127 0" result="hardAlpha"/>
<feOffset dy="4.125"/>
<feGaussianBlur stdDeviation="6.1875"/>
<feComposite in2="hardAlpha" operator="out"/>
<feColorMatrix type="matrix" values="0 0 0 0 0 0 0 0 0 0 0 0 0 0 0 0 0 0 0.05 0"/>
<feBlend mode="normal" in2="BackgroundImageFix" result="effect1_dropShadow_189_4126"/>
<feBlend mode="normal" in="SourceGraphic" in2="effect1_dropShadow_189_4126" result="shape"/>
</filter>
<linearGradient id="paint0_linear_189_4126" x1="26.7023" y1="5.09375" x2="63.9447" y2="79.3365" gradientUnits="userSpaceOnUse">
<stop stop-color="white"/>
<stop offset="1" stop-color="#FFEFF5"/>
</linearGradient>
<linearGradient id="paint1_linear_189_4126" x1="57.8291" y1="28.2825" x2="45.639" y2="28.4387" gradientUnits="userSpaceOnUse">
<stop stop-color="#ED5699"/>
<stop offset="1" stop-color="#FF8586"/>
</linearGradient>
<linearGradient id="paint2_linear_189_4126" x1="63.4072" y1="42.8394" x2="39.7073" y2="43.5615" gradientUnits="userSpaceOnUse">
<stop stop-color="#ED5699"/>
<stop offset="1" stop-color="#FF8586"/>
</linearGradient>
<linearGradient id="paint3_linear_189_4126" x1="43.6651" y1="30.6123" x2="33.4108" y2="30.7437" gradientUnits="userSpaceOnUse">
<stop stop-color="#ED5699"/>
<stop offset="1" stop-color="#FF8586"/>
</linearGradient>
<linearGradient id="paint4_linear_189_4126" x1="43.3509" y1="43" x2="29.19" y2="43.3155" gradientUnits="userSpaceOnUse">
<stop stop-color="#ED5699"/>
<stop offset="1" stop-color="#FF8586"/>
</linearGradient>
<linearGradient id="paint5_linear_189_4126" x1="63.163" y1="38.375" x2="56.6252" y2="38.4646" gradientUnits="userSpaceOnUse">
<stop stop-color="#ED5699"/>
<stop offset="1" stop-color="#FF8586"/>
</linearGradient>
<clipPath id="clip0_189_4126">
<rect width="34.8242" height="34.8242" fill="white" transform="translate(29.0879 25.0879)"/>
</clipPath>
</defs>
</svg>
