<svg width="103" height="98" viewBox="0 0 103 98" fill="none" xmlns="http://www.w3.org/2000/svg">
<g filter="url(#filter0_d_189_4127)">
<rect x="20" y="15" width="63" height="63" rx="12" fill="url(#paint0_linear_189_4127)"/>
<rect x="17" y="12" width="69" height="69" rx="15" stroke="url(#paint1_linear_189_4127)" stroke-opacity="0.3" stroke-width="6"/>
<g clip-path="url(#clip0_189_4127)">
<path d="M56.9367 46.4999C55.5381 46.4999 54.1857 45.8754 53.1272 44.7421C52.098 43.6367 51.4695 42.1626 51.3586 40.5925C51.2402 38.9177 51.7511 37.3776 52.7966 36.2552C53.8422 35.1328 55.3041 34.5273 56.9367 34.5273C58.5577 34.5273 60.0237 35.1437 61.0659 36.2634C62.1182 37.3939 62.6304 38.9313 62.5121 40.5918C62.3985 42.1639 61.7706 43.6374 60.7434 44.7414C59.6877 45.8754 58.336 46.4999 56.9367 46.4999Z" fill="white"/>
<path d="M65.9068 58.4701H47.9743C47.686 58.4716 47.4012 58.407 47.1418 58.2812C46.8824 58.1554 46.6553 57.9717 46.478 57.7444C46.2899 57.4979 46.1601 57.2121 46.0981 56.9083C46.0361 56.6045 46.0437 56.2907 46.1202 55.9902C46.6929 53.6906 48.1117 51.7834 50.223 50.4755C52.0968 49.3151 54.4821 48.6758 56.9402 48.6758C59.4466 48.6758 61.7694 49.2879 63.6541 50.4476C65.7701 51.7487 67.1909 53.6668 67.7609 55.9943C67.8365 56.295 67.8432 56.6088 67.7806 56.9124C67.7179 57.216 67.5875 57.5016 67.399 57.7478C67.2219 57.9741 66.9954 58.1568 66.7367 58.282C66.478 58.4072 66.1941 58.4716 65.9068 58.4701Z" fill="white"/>
<path d="M43.7089 46.5678C41.3151 46.5678 39.2104 44.342 39.0151 41.6067C38.9185 40.2054 39.3553 38.9095 40.2396 37.9592C41.1144 37.0184 42.3484 36.5 43.7089 36.5C45.0694 36.5 46.2939 37.0211 47.1735 37.9673C48.0646 38.9251 48.5 40.2183 48.3979 41.6081C48.2027 44.3427 46.0987 46.5678 43.7089 46.5678Z" fill="white"/>
<path d="M47.4106 49.3497C46.3007 48.7832 44.8602 48.5 43.2683 48.5C41.4094 48.5 39.6042 49.0059 38.1845 49.9241C36.5749 50.9669 35.4921 52.4852 35.0549 54.3183C34.9909 54.582 34.9848 54.8574 35.0372 55.1239C35.0895 55.3903 35.1989 55.641 35.3571 55.8571C35.5073 56.0583 35.6996 56.2209 35.9194 56.3323C36.1391 56.4438 36.3804 56.5011 36.6247 56.5H43.6285C43.7468 56.5 43.8612 56.4566 43.952 56.3775C44.0427 56.2985 44.104 56.1886 44.1251 56.0672C44.1321 56.0257 44.1409 55.9842 44.151 55.9434C44.6861 53.6998 45.9398 51.8041 47.7923 50.4221C47.8605 50.3708 47.9153 50.3026 47.9518 50.2236C47.9883 50.1447 48.0053 50.0574 48.0014 49.9699C47.9974 49.8823 47.9726 49.7971 47.9292 49.722C47.8857 49.647 47.825 49.5845 47.7526 49.5401C47.6535 49.4795 47.54 49.4156 47.4106 49.3497Z" fill="white"/>
<path d="M66.6686 48.8333V47.1667H68.3353C68.5121 47.1667 68.6817 47.0964 68.8067 46.9714C68.9317 46.8464 69.002 46.6768 69.002 46.5C69.002 46.3232 68.9317 46.1536 68.8067 46.0286C68.6817 45.9036 68.5121 45.8333 68.3353 45.8333H66.6686V44.1667C66.6686 43.9899 66.5984 43.8203 66.4734 43.6953C66.3483 43.5702 66.1788 43.5 66.002 43.5C65.8251 43.5 65.6556 43.5702 65.5305 43.6953C65.4055 43.8203 65.3353 43.9899 65.3353 44.1667V45.8333H63.6686C63.4918 45.8333 63.3222 45.9036 63.1972 46.0286C63.0722 46.1536 63.002 46.3232 63.002 46.5C63.002 46.6768 63.0722 46.8464 63.1972 46.9714C63.3222 47.0964 63.4918 47.1667 63.6686 47.1667H65.3353V48.8333C65.3353 49.0101 65.4055 49.1797 65.5305 49.3047C65.6556 49.4298 65.8251 49.5 66.002 49.5C66.1788 49.5 66.3483 49.4298 66.4734 49.3047C66.5984 49.1797 66.6686 49.0101 66.6686 48.8333Z" fill="white"/>
</g>
</g>
<defs>
<filter id="filter0_d_189_4127" x="-9.53674e-07" y="-1.8" width="103" height="104.8" filterUnits="userSpaceOnUse" color-interpolation-filters="sRGB">
<feFlood flood-opacity="0" result="BackgroundImageFix"/>
<feColorMatrix in="SourceAlpha" type="matrix" values="0 0 0 0 0 0 0 0 0 0 0 0 0 0 0 0 0 0 127 0" result="hardAlpha"/>
<feOffset dy="5"/>
<feGaussianBlur stdDeviation="7"/>
<feColorMatrix type="matrix" values="0 0 0 0 0.825 0 0 0 0 0.11 0 0 0 0 0.326543 0 0 0 0.1 0"/>
<feBlend mode="normal" in2="BackgroundImageFix" result="effect1_dropShadow_189_4127"/>
<feBlend mode="normal" in="SourceGraphic" in2="effect1_dropShadow_189_4127" result="shape"/>
</filter>
<linearGradient id="paint0_linear_189_4127" x1="117.312" y1="-14.2499" x2="24.8535" y2="-21.4953" gradientUnits="userSpaceOnUse">
<stop stop-color="#ED5699"/>
<stop offset="1" stop-color="#FF8586"/>
</linearGradient>
<linearGradient id="paint1_linear_189_4127" x1="84.6909" y1="3.18763" x2="16.0439" y2="4.1288" gradientUnits="userSpaceOnUse">
<stop stop-color="#ED5699"/>
<stop offset="1" stop-color="#FF8586"/>
</linearGradient>
<clipPath id="clip0_189_4127">
<rect width="34.8242" height="34.8242" fill="white" transform="translate(34.0879 29.0879)"/>
</clipPath>
</defs>
</svg>
