<svg width="93" height="94" viewBox="0 0 93 94" fill="none" xmlns="http://www.w3.org/2000/svg">
<g filter="url(#filter0_d_144_4466)">
<rect x="15" y="11.3647" width="63" height="63" rx="12.375" fill="url(#paint0_linear_144_4466)" shape-rendering="crispEdges"/>
<rect x="13.6875" y="10.0522" width="65.625" height="65.625" rx="13.6875" stroke="white" stroke-opacity="0.64" stroke-width="2.625" shape-rendering="crispEdges"/>
<path d="M53.051 36.1389C52.7843 39.7362 50.0572 42.6708 47.0634 42.6708C44.0696 42.6708 41.3378 39.7369 41.0758 36.1389C40.8037 32.3966 43.4573 29.6069 47.0634 29.6069C50.6696 29.6069 53.3232 32.4647 53.051 36.1389Z" stroke="url(#paint1_linear_144_4466)" stroke-width="2" stroke-linecap="round" stroke-linejoin="round"/>
<path d="M47.0602 45.2378C41.1415 45.2378 35.1343 48.5033 34.0227 54.6669C33.8887 55.4098 34.3091 56.1228 35.0867 56.1228H59.0337C59.812 56.1228 60.2324 55.4098 60.0984 54.6669C58.9861 48.5033 52.9789 45.2378 47.0602 45.2378Z" stroke="url(#paint2_linear_144_4466)" stroke-width="2" stroke-miterlimit="10"/>
</g>
<defs>
<filter id="filter0_d_144_4466" x="9.53674e-07" y="-2.39775" width="93" height="95.8875" filterUnits="userSpaceOnUse" color-interpolation-filters="sRGB">
<feFlood flood-opacity="0" result="BackgroundImageFix"/>
<feColorMatrix in="SourceAlpha" type="matrix" values="0 0 0 0 0 0 0 0 0 0 0 0 0 0 0 0 0 0 127 0" result="hardAlpha"/>
<feOffset dy="4.125"/>
<feGaussianBlur stdDeviation="6.1875"/>
<feComposite in2="hardAlpha" operator="out"/>
<feColorMatrix type="matrix" values="0 0 0 0 0 0 0 0 0 0 0 0 0 0 0 0 0 0 0.05 0"/>
<feBlend mode="normal" in2="BackgroundImageFix" result="effect1_dropShadow_144_4466"/>
<feBlend mode="normal" in="SourceGraphic" in2="effect1_dropShadow_144_4466" result="shape"/>
</filter>
<linearGradient id="paint0_linear_144_4466" x1="26.7023" y1="5.4585" x2="63.9447" y2="79.7012" gradientUnits="userSpaceOnUse">
<stop stop-color="white"/>
<stop offset="1" stop-color="#FFEFF5"/>
</linearGradient>
<linearGradient id="paint1_linear_144_4466" x1="53.3927" y1="27.1575" x2="40.3019" y2="27.3225" gradientUnits="userSpaceOnUse">
<stop stop-color="#ED5699"/>
<stop offset="1" stop-color="#FF8586"/>
</linearGradient>
<linearGradient id="paint2_linear_144_4466" x1="60.8242" y1="43.1969" x2="32.383" y2="44.1328" gradientUnits="userSpaceOnUse">
<stop stop-color="#ED5699"/>
<stop offset="1" stop-color="#FF8586"/>
</linearGradient>
</defs>
</svg>
