<svg width="103" height="98" viewBox="0 0 103 98" fill="none" xmlns="http://www.w3.org/2000/svg">
<g filter="url(#filter0_d_189_4133)">
<path d="M20 34.2C20 27.4794 20 24.1191 21.3079 21.5521C22.4584 19.2942 24.2942 17.4584 26.5521 16.3079C29.1191 15 32.4794 15 39.2 15H63.8C70.5206 15 73.8809 15 76.4479 16.3079C78.7058 17.4584 80.5416 19.2942 81.6921 21.5521C83 24.1191 83 27.4794 83 34.2V58.8C83 65.5206 83 68.8809 81.6921 71.4479C80.5416 73.7058 78.7058 75.5416 76.4479 76.6921C73.8809 78 70.5206 78 63.8 78H39.2C32.4794 78 29.1191 78 26.5521 76.6921C24.2942 75.5416 22.4584 73.7058 21.3079 71.4479C20 68.8809 20 65.5206 20 58.8V34.2Z" fill="url(#paint0_linear_189_4133)"/>
<path d="M63.7998 12C67.1106 12 69.7743 11.998 71.9258 12.1738C74.1122 12.3525 76.0328 12.7295 77.8096 13.6348C80.632 15.0729 82.9271 17.368 84.3652 20.1904C85.2705 21.9672 85.6475 23.8878 85.8262 26.0742C86.002 28.2257 86 30.8894 86 34.2002V58.7998C86 62.1106 86.002 64.7743 85.8262 66.9258C85.6475 69.1122 85.2705 71.0328 84.3652 72.8096C82.9271 75.632 80.632 77.9271 77.8096 79.3652C76.0328 80.2705 74.1122 80.6475 71.9258 80.8262C69.7743 81.002 67.1106 81 63.7998 81H39.2002C35.8894 81 33.2257 81.002 31.0742 80.8262C28.8878 80.6475 26.9672 80.2705 25.1904 79.3652C22.368 77.9271 20.0729 75.632 18.6348 72.8096C17.7295 71.0328 17.3525 69.1122 17.1738 66.9258C16.998 64.7743 17 62.1106 17 58.7998V34.2002C17 30.8894 16.998 28.2257 17.1738 26.0742C17.3525 23.8878 17.7295 21.9672 18.6348 20.1904C20.0729 17.368 22.368 15.0729 25.1904 13.6348C26.9672 12.7295 28.8878 12.3525 31.0742 12.1738C33.2257 11.998 35.8894 12 39.2002 12H63.7998Z" stroke="url(#paint1_linear_189_4133)" stroke-opacity="0.3" stroke-width="6"/>
<path d="M45.3156 29.6248H39.6864C39.3756 29.6248 39.1235 29.8768 39.1235 30.1877V35.8168C39.1235 36.1277 39.3756 36.3797 39.6864 36.3797H45.3156C45.6265 36.3797 45.8785 36.1277 45.8785 35.8168V30.1877C45.8785 29.8768 45.6265 29.6248 45.3156 29.6248Z" fill="white"/>
<path d="M54.3136 29.6248H48.6845C48.3736 29.6248 48.1216 29.8768 48.1216 30.1877V35.8168C48.1216 36.1277 48.3736 36.3797 48.6845 36.3797H54.3136C54.6245 36.3797 54.8765 36.1277 54.8765 35.8168V30.1877C54.8765 29.8768 54.6245 29.6248 54.3136 29.6248Z" fill="white"/>
<path d="M63.3117 29.6248H57.6825C57.3717 29.6248 57.1196 29.8768 57.1196 30.1877V35.8168C57.1196 36.1277 57.3717 36.3797 57.6825 36.3797H63.3117C63.6226 36.3797 63.8746 36.1277 63.8746 35.8168V30.1877C63.8746 29.8768 63.6226 29.6248 63.3117 29.6248Z" fill="white"/>
<path d="M45.3156 38.6228H39.6864C39.3756 38.6228 39.1235 38.8748 39.1235 39.1857V44.8149C39.1235 45.1257 39.3756 45.3778 39.6864 45.3778H45.3156C45.6265 45.3778 45.8785 45.1257 45.8785 44.8149V39.1857C45.8785 38.8748 45.6265 38.6228 45.3156 38.6228Z" fill="white"/>
<path d="M54.3136 38.6228H48.6845C48.3736 38.6228 48.1216 38.8748 48.1216 39.1857V44.8149C48.1216 45.1257 48.3736 45.3778 48.6845 45.3778H54.3136C54.6245 45.3778 54.8765 45.1257 54.8765 44.8149V39.1857C54.8765 38.8748 54.6245 38.6228 54.3136 38.6228Z" fill="white"/>
<path d="M63.3117 38.6228H57.6825C57.3717 38.6228 57.1196 38.8748 57.1196 39.1857V44.8149C57.1196 45.1257 57.3717 45.3778 57.6825 45.3778H63.3117C63.6226 45.3778 63.8746 45.1257 63.8746 44.8149V39.1857C63.8746 38.8748 63.6226 38.6228 63.3117 38.6228Z" fill="white"/>
<path d="M45.3156 47.6252H39.6864C39.3756 47.6252 39.1235 47.8773 39.1235 48.1882V53.8173C39.1235 54.1282 39.3756 54.3802 39.6864 54.3802H45.3156C45.6265 54.3802 45.8785 54.1282 45.8785 53.8173V48.1882C45.8785 47.8773 45.6265 47.6252 45.3156 47.6252Z" fill="white"/>
<path d="M54.3136 47.6252H48.6845C48.3736 47.6252 48.1216 47.8773 48.1216 48.1882V53.8173C48.1216 54.1282 48.3736 54.3802 48.6845 54.3802H54.3136C54.6245 54.3802 54.8765 54.1282 54.8765 53.8173V48.1882C54.8765 47.8773 54.6245 47.6252 54.3136 47.6252Z" fill="white"/>
<path d="M54.3136 56.6277H48.6845C48.3736 56.6277 48.1216 56.8797 48.1216 57.1906V62.8197C48.1216 63.1306 48.3736 63.3827 48.6845 63.3827H54.3136C54.6245 63.3827 54.8765 63.1306 54.8765 62.8197V57.1906C54.8765 56.8797 54.6245 56.6277 54.3136 56.6277Z" fill="white"/>
<path d="M63.3117 47.6252H57.6825C57.3717 47.6252 57.1196 47.8773 57.1196 48.1882V53.8173C57.1196 54.1282 57.3717 54.3802 57.6825 54.3802H63.3117C63.6226 54.3802 63.8746 54.1282 63.8746 53.8173V48.1882C63.8746 47.8773 63.6226 47.6252 63.3117 47.6252Z" fill="white"/>
</g>
<defs>
<filter id="filter0_d_189_4133" x="-9.53674e-07" y="-1.8" width="103" height="104.8" filterUnits="userSpaceOnUse" color-interpolation-filters="sRGB">
<feFlood flood-opacity="0" result="BackgroundImageFix"/>
<feColorMatrix in="SourceAlpha" type="matrix" values="0 0 0 0 0 0 0 0 0 0 0 0 0 0 0 0 0 0 127 0" result="hardAlpha"/>
<feOffset dy="5"/>
<feGaussianBlur stdDeviation="7"/>
<feColorMatrix type="matrix" values="0 0 0 0 0.825 0 0 0 0 0.11 0 0 0 0 0.326543 0 0 0 0.1 0"/>
<feBlend mode="normal" in2="BackgroundImageFix" result="effect1_dropShadow_189_4133"/>
<feBlend mode="normal" in="SourceGraphic" in2="effect1_dropShadow_189_4133" result="shape"/>
</filter>
<linearGradient id="paint0_linear_189_4133" x1="117.312" y1="-14.2499" x2="24.8535" y2="-21.4953" gradientUnits="userSpaceOnUse">
<stop stop-color="#ED5699"/>
<stop offset="1" stop-color="#FF8586"/>
</linearGradient>
<linearGradient id="paint1_linear_189_4133" x1="84.6909" y1="3.18763" x2="16.0439" y2="4.1288" gradientUnits="userSpaceOnUse">
<stop stop-color="#ED5699"/>
<stop offset="1" stop-color="#FF8586"/>
</linearGradient>
</defs>
</svg>
