<svg width="93" height="94" viewBox="0 0 93 94" fill="none" xmlns="http://www.w3.org/2000/svg">
<g filter="url(#filter0_d_144_4735)">
<rect x="15" y="11.3652" width="63" height="63" rx="12.375" fill="url(#paint0_linear_144_4735)" shape-rendering="crispEdges"/>
<rect x="13.6875" y="10.0527" width="65.625" height="65.625" rx="13.6875" stroke="white" stroke-opacity="0.64" stroke-width="2.625" shape-rendering="crispEdges"/>
<path d="M62.1961 36.2055C62.1961 33.4102 60.1399 31.1615 57.5993 31.1615C54.1579 31.0006 50.6482 30.9385 47.0615 30.9385H45.9433C42.3653 30.9385 38.8494 31.0006 35.408 31.1621C32.8735 31.1621 30.8174 33.4232 30.8174 36.2186C30.6621 38.4294 30.5963 40.6408 30.6 42.8522C30.5938 45.0636 30.6642 47.2771 30.8112 49.4927C30.8112 52.2881 32.8673 54.5554 35.4018 54.5554C39.0171 54.7231 42.7256 54.7976 46.4962 54.7914C50.273 54.8039 53.9711 54.7252 57.5906 54.5554C60.1312 54.5554 62.1874 52.2881 62.1874 49.4927C62.3364 47.2751 62.4048 45.0636 62.3986 42.846C62.4126 40.6346 62.3451 38.4211 62.1961 36.2055ZM43.4586 48.9461V36.7397L52.4658 42.8398L43.4586 48.9461Z" fill="url(#paint1_linear_144_4735)"/>
</g>
<defs>
<filter id="filter0_d_144_4735" x="9.53674e-07" y="-2.39726" width="93" height="95.8875" filterUnits="userSpaceOnUse" color-interpolation-filters="sRGB">
<feFlood flood-opacity="0" result="BackgroundImageFix"/>
<feColorMatrix in="SourceAlpha" type="matrix" values="0 0 0 0 0 0 0 0 0 0 0 0 0 0 0 0 0 0 127 0" result="hardAlpha"/>
<feOffset dy="4.125"/>
<feGaussianBlur stdDeviation="6.1875"/>
<feComposite in2="hardAlpha" operator="out"/>
<feColorMatrix type="matrix" values="0 0 0 0 0 0 0 0 0 0 0 0 0 0 0 0 0 0 0.05 0"/>
<feBlend mode="normal" in2="BackgroundImageFix" result="effect1_dropShadow_144_4735"/>
<feBlend mode="normal" in="SourceGraphic" in2="effect1_dropShadow_144_4735" result="shape"/>
</filter>
<linearGradient id="paint0_linear_144_4735" x1="26.7023" y1="5.45898" x2="63.9447" y2="79.7017" gradientUnits="userSpaceOnUse">
<stop stop-color="white"/>
<stop offset="1" stop-color="#FFEFF5"/>
</linearGradient>
<linearGradient id="paint1_linear_144_4735" x1="63.2539" y1="26.4659" x2="28.6077" y2="27.0991" gradientUnits="userSpaceOnUse">
<stop stop-color="#ED5699"/>
<stop offset="1" stop-color="#FF8586"/>
</linearGradient>
</defs>
</svg>
