<svg width="93" height="94" viewBox="0 0 93 94" fill="none" xmlns="http://www.w3.org/2000/svg">
<g filter="url(#filter0_d_144_4696)">
<rect x="15" y="11.3647" width="63" height="63" rx="12.375" fill="url(#paint0_linear_144_4696)" shape-rendering="crispEdges"/>
<rect x="13.6875" y="10.0522" width="65.625" height="65.625" rx="13.6875" stroke="white" stroke-opacity="0.64" stroke-width="2.625" shape-rendering="crispEdges"/>
<g clip-path="url(#clip0_144_4696)">
<g clip-path="url(#clip1_144_4696)">
<path d="M57.1694 45.3533C61.3738 48.7272 63.7121 51.7097 62.9051 53.1059C61.6302 55.3092 52.9934 52.7146 43.6146 47.3102C34.2358 41.9059 27.6651 35.7388 28.9393 33.5362C29.7363 32.1592 33.4087 32.6563 38.341 34.5425" stroke="url(#paint1_linear_144_4696)" stroke-width="2.22937" stroke-miterlimit="10"/>
<path d="M45.9223 54.7498C52.2333 54.7498 57.3494 49.6337 57.3494 43.3227C57.3494 37.0116 52.2333 31.8955 45.9223 31.8955C39.6112 31.8955 34.4951 37.0116 34.4951 43.3227C34.4951 49.6337 39.6112 54.7498 45.9223 54.7498Z" stroke="url(#paint2_linear_144_4696)" stroke-width="2.22937" stroke-miterlimit="10"/>
</g>
</g>
</g>
<defs>
<filter id="filter0_d_144_4696" x="9.53674e-07" y="-2.39775" width="93" height="95.8875" filterUnits="userSpaceOnUse" color-interpolation-filters="sRGB">
<feFlood flood-opacity="0" result="BackgroundImageFix"/>
<feColorMatrix in="SourceAlpha" type="matrix" values="0 0 0 0 0 0 0 0 0 0 0 0 0 0 0 0 0 0 127 0" result="hardAlpha"/>
<feOffset dy="4.125"/>
<feGaussianBlur stdDeviation="6.1875"/>
<feComposite in2="hardAlpha" operator="out"/>
<feColorMatrix type="matrix" values="0 0 0 0 0 0 0 0 0 0 0 0 0 0 0 0 0 0 0.05 0"/>
<feBlend mode="normal" in2="BackgroundImageFix" result="effect1_dropShadow_144_4696"/>
<feBlend mode="normal" in="SourceGraphic" in2="effect1_dropShadow_144_4696" result="shape"/>
</filter>
<linearGradient id="paint0_linear_144_4696" x1="26.7023" y1="5.4585" x2="63.9447" y2="79.7012" gradientUnits="userSpaceOnUse">
<stop stop-color="white"/>
<stop offset="1" stop-color="#FFEFF5"/>
</linearGradient>
<linearGradient id="paint1_linear_144_4696" x1="63.9833" y1="28.7879" x2="26.6399" y2="29.6182" gradientUnits="userSpaceOnUse">
<stop stop-color="#ED5699"/>
<stop offset="1" stop-color="#FF8586"/>
</linearGradient>
<linearGradient id="paint2_linear_144_4696" x1="57.9628" y1="27.6104" x2="33.06" y2="27.9518" gradientUnits="userSpaceOnUse">
<stop stop-color="#ED5699"/>
<stop offset="1" stop-color="#FF8586"/>
</linearGradient>
<clipPath id="clip0_144_4696">
<rect width="39.9996" height="39.9996" fill="white" transform="translate(26.5 22.8647)"/>
</clipPath>
<clipPath id="clip1_144_4696">
<rect width="37.4869" height="37.4869" fill="white" transform="translate(27.6455 24.5815)"/>
</clipPath>
</defs>
</svg>
