<svg width="93" height="94" viewBox="0 0 93 94" fill="none" xmlns="http://www.w3.org/2000/svg">
<g filter="url(#filter0_d_189_4200)">
<path d="M15 30.8C15 23.8693 15 20.404 16.3488 17.7569C17.5352 15.4284 19.4284 13.5352 21.7569 12.3488C24.404 11 27.8693 11 34.8 11H58.2C65.1306 11 68.596 11 71.2431 12.3488C73.5716 13.5352 75.4648 15.4284 76.6512 17.7569C78 20.404 78 23.8693 78 30.8V54.2C78 61.1306 78 64.596 76.6512 67.2431C75.4648 69.5716 73.5716 71.4648 71.2431 72.6512C68.596 74 65.1306 74 58.2 74H34.8C27.8693 74 24.404 74 21.7569 72.6512C19.4284 71.4648 17.5352 69.5716 16.3488 67.2431C15 64.596 15 61.1306 15 54.2V30.8Z" fill="url(#paint0_linear_189_4200)" shape-rendering="crispEdges"/>
<path d="M58.2002 9.6875C61.6437 9.6875 64.3052 9.68639 66.4346 9.86035C68.5793 10.0356 70.2994 10.3953 71.8389 11.1797C74.4143 12.4919 76.508 14.5857 77.8203 17.1611C78.6047 18.7006 78.9644 20.4207 79.1396 22.5654C79.3136 24.6948 79.3125 27.3563 79.3125 30.7998V54.2002C79.3125 57.6437 79.3136 60.3052 79.1396 62.4346C78.9644 64.5793 78.6047 66.2994 77.8203 67.8389C76.508 70.4143 74.4143 72.508 71.8389 73.8203C70.2994 74.6047 68.5793 74.9644 66.4346 75.1396C64.3052 75.3136 61.6437 75.3125 58.2002 75.3125H34.7998C31.3563 75.3125 28.6948 75.3136 26.5654 75.1396C24.4207 74.9644 22.7006 74.6047 21.1611 73.8203C18.5857 72.508 16.4919 70.4143 15.1797 67.8389C14.3953 66.2994 14.0356 64.5793 13.8604 62.4346C13.6864 60.3052 13.6875 57.6437 13.6875 54.2002V30.7998C13.6875 27.3563 13.6864 24.6948 13.8604 22.5654C14.0356 20.4207 14.3953 18.7006 15.1797 17.1611C16.4919 14.5857 18.5857 12.4919 21.1611 11.1797C22.7006 10.3953 24.4207 10.0356 26.5654 9.86035C28.6948 9.68639 31.3563 9.6875 34.7998 9.6875H58.2002Z" stroke="white" stroke-opacity="0.64" stroke-width="2.625" shape-rendering="crispEdges"/>
<path fill-rule="evenodd" clip-rule="evenodd" d="M60.5 42.5846C60.5 34.8066 54.2313 28.5 46.5 28.5C38.7688 28.5 32.5 34.8066 32.5 42.5846C32.5 49.6143 37.6188 55.4411 44.3125 56.4987V46.6571H40.7569V42.5846H44.3125V39.4816C44.3125 35.9522 46.4031 34.0012 49.6006 34.0012C51.1325 34.0012 52.735 34.2766 52.735 34.2766V37.743H50.9688C49.2306 37.743 48.6869 38.8283 48.6869 39.9437V42.5846H52.5694L51.9494 46.6571H48.6875V56.5C55.3813 55.443 60.5 49.6162 60.5 42.5846Z" fill="url(#paint1_linear_189_4200)"/>
</g>
<defs>
<filter id="filter0_d_189_4200" x="9.53674e-07" y="-2.7625" width="93" height="95.8875" filterUnits="userSpaceOnUse" color-interpolation-filters="sRGB">
<feFlood flood-opacity="0" result="BackgroundImageFix"/>
<feColorMatrix in="SourceAlpha" type="matrix" values="0 0 0 0 0 0 0 0 0 0 0 0 0 0 0 0 0 0 127 0" result="hardAlpha"/>
<feOffset dy="4.125"/>
<feGaussianBlur stdDeviation="6.1875"/>
<feComposite in2="hardAlpha" operator="out"/>
<feColorMatrix type="matrix" values="0 0 0 0 0 0 0 0 0 0 0 0 0 0 0 0 0 0 0.05 0"/>
<feBlend mode="normal" in2="BackgroundImageFix" result="effect1_dropShadow_189_4200"/>
<feBlend mode="normal" in="SourceGraphic" in2="effect1_dropShadow_189_4200" result="shape"/>
</filter>
<linearGradient id="paint0_linear_189_4200" x1="26.7023" y1="5.09375" x2="63.9447" y2="79.3365" gradientUnits="userSpaceOnUse">
<stop stop-color="white"/>
<stop offset="1" stop-color="#FFEFF5"/>
</linearGradient>
<linearGradient id="paint1_linear_189_4200" x1="61.2515" y1="23.2501" x2="30.7417" y2="23.6684" gradientUnits="userSpaceOnUse">
<stop stop-color="#ED5699"/>
<stop offset="1" stop-color="#FF8586"/>
</linearGradient>
</defs>
</svg>
