<svg width="20" height="20" viewBox="0 0 20 20" fill="none" xmlns="http://www.w3.org/2000/svg">
<path opacity="0.4" d="M1.66663 5L7.42748 8.26414C9.55129 9.4675 10.4486 9.4675 12.5725 8.26414L18.3333 5" stroke="#F98FB3" stroke-width="1.5" stroke-linejoin="round"/>
<path d="M1.67977 11.2297C1.73424 13.7844 1.76148 15.0617 2.70409 16.0079C3.64669 16.9541 4.95857 16.987 7.58232 17.0529C9.19938 17.0936 10.8005 17.0936 12.4176 17.0529C15.0414 16.987 16.3532 16.9541 17.2959 16.0079C18.2385 15.0617 18.2657 13.7844 18.3201 11.2297C18.3377 10.4083 18.3377 9.59183 18.3201 8.77042C18.2657 6.2158 18.2385 4.93849 17.2959 3.9923C16.3532 3.04611 15.0414 3.01315 12.4176 2.94722C10.8005 2.90659 9.19938 2.90659 7.58231 2.94722C4.95857 3.01313 3.64669 3.04609 2.70408 3.99229C1.76148 4.93848 1.73424 6.21579 1.67976 8.77042C1.66224 9.59183 1.66225 10.4083 1.67977 11.2297Z" stroke="#F98FB3" stroke-width="1.5" stroke-linejoin="round"/>
</svg>
