<svg width="20" height="20" viewBox="0 0 20 20" fill="none" xmlns="http://www.w3.org/2000/svg">
<path opacity="0.4" d="M10 13.7499V12.0833" stroke="#F98FB3" stroke-width="1.5" stroke-linecap="round"/>
<path d="M3.55655 15.7039C3.74395 17.0958 4.89682 18.1862 6.29976 18.2507C7.48027 18.305 8.67946 18.3333 10 18.3333C11.3206 18.3333 12.5198 18.305 13.7003 18.2507C15.1033 18.1862 16.2561 17.0958 16.4435 15.7039C16.5659 14.7956 16.6667 13.8647 16.6667 12.9167C16.6667 11.9687 16.5659 11.0378 16.4435 10.1294C16.2561 8.7375 15.1033 7.64707 13.7003 7.58257C12.5198 7.52831 11.3206 7.5 10 7.5C8.67946 7.5 7.48027 7.52831 6.29976 7.58257C4.89682 7.64707 3.74395 8.7375 3.55655 10.1294C3.43424 11.0378 3.33337 11.9687 3.33337 12.9167C3.33337 13.8647 3.43424 14.7956 3.55655 15.7039Z" stroke="#F98FB3" stroke-width="1.5"/>
<path opacity="0.4" d="M6.25 7.50008V5.41675C6.25 3.34568 7.92893 1.66675 10 1.66675C12.0711 1.66675 13.75 3.34568 13.75 5.41675V7.50008" stroke="#F98FB3" stroke-width="1.5" stroke-linecap="round" stroke-linejoin="round"/>
</svg>
