<svg width="64" height="64" viewBox="0 0 64 64" fill="none" xmlns="http://www.w3.org/2000/svg">
<path d="M18.3667 0H44.9667C55.1 0 63.3333 8.23333 63.3333 18.3667V44.9667C63.3333 49.8378 61.3983 54.5094 57.9539 57.9539C54.5094 61.3983 49.8378 63.3333 44.9667 63.3333H18.3667C8.23333 63.3333 0 55.1 0 44.9667V18.3667C0 13.4955 1.93505 8.82389 5.37947 5.37947C8.82389 1.93505 13.4955 0 18.3667 0ZM17.7333 6.33333C14.7099 6.33333 11.8102 7.5344 9.67232 9.67232C7.5344 11.8102 6.33333 14.7099 6.33333 17.7333V45.6C6.33333 51.9017 11.4317 57 17.7333 57H45.6C48.6235 57 51.5231 55.7989 53.661 53.661C55.7989 51.5231 57 48.6235 57 45.6V17.7333C57 11.4317 51.9017 6.33333 45.6 6.33333H17.7333ZM48.2917 11.0833C49.3415 11.0833 50.3483 11.5004 51.0906 12.2427C51.833 12.985 52.25 13.9918 52.25 15.0417C52.25 16.0915 51.833 17.0983 51.0906 17.8406C50.3483 18.583 49.3415 19 48.2917 19C47.2418 19 46.235 18.583 45.4927 17.8406C44.7504 17.0983 44.3333 16.0915 44.3333 15.0417C44.3333 13.9918 44.7504 12.985 45.4927 12.2427C46.235 11.5004 47.2418 11.0833 48.2917 11.0833ZM31.6667 15.8333C35.8659 15.8333 39.8932 17.5015 42.8625 20.4708C45.8318 23.4401 47.5 27.4674 47.5 31.6667C47.5 35.8659 45.8318 39.8932 42.8625 42.8625C39.8932 45.8318 35.8659 47.5 31.6667 47.5C27.4674 47.5 23.4401 45.8318 20.4708 42.8625C17.5015 39.8932 15.8333 35.8659 15.8333 31.6667C15.8333 27.4674 17.5015 23.4401 20.4708 20.4708C23.4401 17.5015 27.4674 15.8333 31.6667 15.8333ZM31.6667 22.1667C29.1471 22.1667 26.7307 23.1676 24.9491 24.9491C23.1676 26.7307 22.1667 29.1471 22.1667 31.6667C22.1667 34.1862 23.1676 36.6026 24.9491 38.3842C26.7307 40.1658 29.1471 41.1667 31.6667 41.1667C34.1862 41.1667 36.6026 40.1658 38.3842 38.3842C40.1658 36.6026 41.1667 34.1862 41.1667 31.6667C41.1667 29.1471 40.1658 26.7307 38.3842 24.9491C36.6026 23.1676 34.1862 22.1667 31.6667 22.1667Z" fill="url(#paint0_linear_637_3664)"/>
<defs>
<linearGradient id="paint0_linear_637_3664" x1="65.0331" y1="-11.8749" x2="-3.97707" y2="-10.9287" gradientUnits="userSpaceOnUse">
<stop stop-color="#ED5699"/>
<stop offset="1" stop-color="#FF8586"/>
</linearGradient>
</defs>
</svg>
