<svg width="57" height="57" viewBox="0 0 57 57" fill="none" xmlns="http://www.w3.org/2000/svg">
<path d="M50.6667 0C52.3464 0 53.9573 0.66726 55.145 1.85499C56.3327 3.04272 57 4.65363 57 6.33333V50.6667C57 52.3464 56.3327 53.9573 55.145 55.145C53.9573 56.3327 52.3464 57 50.6667 57H6.33333C4.65363 57 3.04272 56.3327 1.85499 55.145C0.66726 53.9573 0 52.3464 0 50.6667V6.33333C0 4.65363 0.66726 3.04272 1.85499 1.85499C3.04272 0.66726 4.65363 0 6.33333 0H50.6667ZM49.0833 49.0833V32.3C49.0833 29.5621 47.9957 26.9363 46.0597 25.0003C44.1237 23.0643 41.4979 21.9767 38.76 21.9767C36.0683 21.9767 32.9333 23.6233 31.4133 26.0933V22.5783H22.5783V49.0833H31.4133V33.4717C31.4133 31.0333 33.3767 29.0383 35.815 29.0383C36.9908 29.0383 38.1184 29.5054 38.9498 30.3368C39.7813 31.1682 40.2483 32.2959 40.2483 33.4717V49.0833H49.0833ZM12.2867 17.6067C13.6976 17.6067 15.0508 17.0462 16.0485 16.0485C17.0462 15.0508 17.6067 13.6976 17.6067 12.2867C17.6067 9.34167 15.2317 6.935 12.2867 6.935C10.8673 6.935 9.5061 7.49883 8.50247 8.50247C7.49883 9.5061 6.935 10.8673 6.935 12.2867C6.935 15.2317 9.34167 17.6067 12.2867 17.6067ZM16.6883 49.0833V22.5783H7.91667V49.0833H16.6883Z" fill="url(#paint0_linear_637_3659)"/>
<defs>
<linearGradient id="paint0_linear_637_3659" x1="58.5298" y1="-10.6874" x2="-3.57936" y2="-9.83585" gradientUnits="userSpaceOnUse">
<stop stop-color="#ED5699"/>
<stop offset="1" stop-color="#FF8586"/>
</linearGradient>
</defs>
</svg>
