<svg width="64" height="64" viewBox="0 0 64 64" fill="none" xmlns="http://www.w3.org/2000/svg">
<path d="M22.2933 61.8767C25.3333 62.795 28.405 63.3333 31.6667 63.3333C40.0652 63.3333 48.1197 59.997 54.0584 54.0584C59.997 48.1197 63.3333 40.0652 63.3333 31.6667C63.3333 27.5081 62.5142 23.3903 60.9228 19.5484C59.3314 15.7064 56.9989 12.2155 54.0584 9.27495C51.1179 6.33443 47.6269 4.00188 43.785 2.41048C39.943 0.819083 35.8252 0 31.6667 0C27.5081 0 23.3903 0.819083 19.5484 2.41048C15.7064 4.00188 12.2155 6.33443 9.27495 9.27495C3.3363 15.2136 0 23.2681 0 31.6667C0 45.125 8.455 56.6833 20.3933 61.2433C20.1083 58.7733 19.8233 54.6883 20.3933 51.87L24.035 36.2267C24.035 36.2267 23.1167 34.39 23.1167 31.4767C23.1167 27.1067 25.84 23.845 28.9433 23.845C31.6667 23.845 32.9333 25.84 32.9333 28.405C32.9333 31.1283 31.1283 35.0233 30.21 38.76C29.6717 41.8633 31.8567 44.5867 35.0233 44.5867C40.66 44.5867 45.03 38.57 45.03 30.0833C45.03 22.4833 39.5833 17.29 31.7617 17.29C22.8317 17.29 17.575 23.94 17.575 30.9383C17.575 33.6617 18.4617 36.4167 19.9183 38.2217C20.2033 38.4117 20.2033 38.665 20.1083 39.14L19.19 42.5917C19.19 43.13 18.8417 43.32 18.3033 42.94C14.25 41.1667 11.9067 35.4033 11.9067 30.7483C11.9067 20.7417 19 11.6533 32.68 11.6533C43.5733 11.6533 52.06 19.475 52.06 29.8617C52.06 40.755 45.315 49.495 35.6567 49.495C32.585 49.495 29.5767 47.8483 28.5 45.9167L26.3783 53.4217C25.65 56.145 23.655 59.7867 22.2933 61.9717V61.8767Z" fill="url(#paint0_linear_637_3654)"/>
<defs>
<linearGradient id="paint0_linear_637_3654" x1="65.0331" y1="-11.8749" x2="-3.97707" y2="-10.9287" gradientUnits="userSpaceOnUse">
<stop stop-color="#ED5699"/>
<stop offset="1" stop-color="#FF8586"/>
</linearGradient>
</defs>
</svg>
