<svg width="67" height="54" viewBox="0 0 67 54" fill="none" xmlns="http://www.w3.org/2000/svg">
<path d="M66.2467 6.33333C63.8083 7.44167 61.18 8.17 58.4567 8.51833C61.2433 6.84 63.3967 4.18 64.41 0.981666C61.7817 2.565 58.8683 3.67333 55.7967 4.30667C53.295 1.58333 49.78 0 45.79 0C38.3483 0 32.2683 6.08 32.2683 13.585C32.2683 14.6617 32.395 15.7067 32.6167 16.6883C21.3433 16.1183 11.305 10.7033 4.62333 2.50167C3.45167 4.49667 2.78667 6.84 2.78667 9.31C2.78667 14.0283 5.16167 18.2083 8.835 20.5833C6.58667 20.5833 4.49667 19.95 2.66 19V19.095C2.66 25.6817 7.34667 31.1917 13.5533 32.4267C11.561 32.9743 9.46845 33.0502 7.44167 32.6483C8.30175 35.3478 9.9862 37.71 12.2582 39.4026C14.5302 41.0953 17.2756 42.0334 20.1083 42.085C15.3066 45.8866 9.35436 47.9414 3.23 47.9117C2.15333 47.9117 1.07667 47.8483 0 47.7217C6.01667 51.585 13.1733 53.8333 20.8367 53.8333C45.79 53.8333 59.5017 33.1233 59.5017 15.1683C59.5017 14.5667 59.5017 13.9967 59.47 13.395C62.13 11.495 64.41 9.08833 66.2467 6.33333Z" fill="url(#paint0_linear_637_3649)"/>
<defs>
<linearGradient id="paint0_linear_637_3649" x1="68.0247" y1="-10.0936" x2="-4.15304" y2="-8.87588" gradientUnits="userSpaceOnUse">
<stop stop-color="#ED5699"/>
<stop offset="1" stop-color="#FF8586"/>
</linearGradient>
</defs>
</svg>
